ply
format ascii 1.0
comment Created by Blender 2.91.2 - www.blender.org
element vertex 266
property float x
property float y
property float z
property float nx
property float ny
property float nz
property float s
property float t
property uchar red
property uchar green
property uchar blue
property uchar alpha
element face 132
property list uchar uint vertex_indices
end_header
0.167605 -0.097739 0.149165 1.000000 0.000002 -0.000000 0.625000 0.000000 81 97 121 255
0.167605 -0.088863 -0.247803 1.000000 0.000002 -0.000000 0.562500 0.250000 81 97 121 255
0.167605 -0.088863 0.149165 1.000000 0.000002 -0.000000 0.562500 0.000000 81 97 121 255
-0.139308 -0.088863 -0.247803 0.000000 0.000002 -1.000000 0.562500 0.468750 81 97 121 255
-0.162975 -0.097739 -0.247803 0.000000 0.000002 -1.000000 0.625000 0.500000 81 97 121 255
-0.163951 -0.088863 -0.247803 0.000000 0.000002 -1.000000 0.562500 0.500000 81 97 121 255
-0.162975 -0.097739 -0.247803 -0.994002 -0.109363 0.000000 0.625000 0.500000 81 97 121 255
-0.163951 -0.088863 0.149165 -0.994002 -0.109363 0.000000 0.562500 0.750000 81 97 121 255
-0.163951 -0.088863 -0.247803 -0.994002 -0.109363 0.000000 0.562500 0.500000 81 97 121 255
-0.118550 -0.097739 0.149165 -0.000000 0.000002 1.000000 0.625000 0.875000 81 97 121 255
0.167605 -0.088863 0.149165 -0.000000 0.000002 1.000000 0.562500 1.000000 81 97 121 255
-0.118550 -0.088863 0.149165 -0.000000 0.000002 1.000000 0.562500 0.875000 81 97 121 255
-0.162975 -0.008129 -0.247803 0.000000 1.000000 -0.000000 0.375000 0.500000 81 97 121 255
-0.139308 -0.008129 0.149165 0.000000 1.000000 -0.000000 0.343750 0.750000 81 97 121 255
-0.139308 -0.008129 -0.247803 0.000000 1.000000 -0.000000 0.343750 0.500000 81 97 121 255
0.167605 -0.097739 -0.247803 -0.000000 -1.000000 0.000000 0.875000 0.500000 81 97 121 255
-0.118550 -0.097739 0.149165 -0.000000 -1.000000 0.000000 0.750000 0.750000 81 97 121 255
-0.118550 -0.097739 -0.247803 -0.000000 -1.000000 0.000000 0.750000 0.500000 81 97 121 255
-0.128352 -0.022406 -0.247803 -0.442104 -0.896964 0.000001 0.437500 0.437500 81 97 121 255
-0.139308 -0.017005 -0.235894 -0.442104 -0.896964 0.000001 0.437500 0.468750 81 97 121 255
-0.139308 -0.017005 -0.247803 -0.442104 -0.896964 0.000001 0.437500 0.468750 81 97 121 255
-0.165391 -0.052934 -0.247803 -0.999198 0.040036 -0.000000 0.500000 0.500000 81 97 121 255
-0.163951 -0.017005 0.149165 -0.999198 0.040036 -0.000000 0.437500 0.750000 81 97 121 255
-0.163951 -0.017005 -0.247803 -0.999198 0.040036 -0.000000 0.437500 0.500000 81 97 121 255
-0.140642 -0.052934 -0.247803 0.000000 0.000000 -1.000000 0.500000 0.468750 81 97 121 255
-0.163951 -0.017005 -0.247803 0.000000 0.000000 -1.000000 0.437500 0.500000 81 97 121 255
-0.139308 -0.017005 -0.247803 0.000000 0.000000 -1.000000 0.437500 0.468750 81 97 121 255
-0.128352 -0.022405 0.149165 -0.442104 -0.896964 0.000000 0.437500 0.812500 81 97 121 255
-0.139308 -0.017005 0.137256 -0.442104 -0.896964 0.000000 0.437500 0.781250 81 97 121 255
-0.128352 -0.022405 0.137256 -0.442104 -0.896964 0.000000 0.437500 0.812500 81 97 121 255
-0.140642 -0.052934 0.149165 0.999311 0.037113 0.000001 0.500000 0.781250 81 97 121 255
-0.139308 -0.088863 0.137256 0.999311 0.037113 0.000001 0.562500 0.781250 81 97 121 255
-0.140642 -0.052934 0.137256 0.999311 0.037113 0.000001 0.500000 0.781250 81 97 121 255
-0.163951 -0.088863 -0.247803 -0.999198 -0.040036 0.000000 0.562500 0.500000 81 97 121 255
-0.165391 -0.052934 0.149165 -0.999198 -0.040036 0.000000 0.500000 0.750000 81 97 121 255
-0.165391 -0.052934 -0.247803 -0.999198 -0.040036 0.000000 0.500000 0.500000 81 97 121 255
-0.163951 -0.088863 -0.247803 0.000000 -0.000000 -1.000000 0.562500 0.500000 81 97 121 255
-0.165391 -0.052934 -0.247803 0.000000 -0.000000 -1.000000 0.500000 0.500000 81 97 121 255
-0.118550 -0.017005 0.149165 0.000000 -1.000000 0.000000 0.437500 0.875000 81 97 121 255
0.160313 -0.017005 0.137256 0.000000 -1.000000 0.000000 0.437500 1.000000 81 97 121 255
0.167605 -0.017005 0.149165 0.000000 -1.000000 0.000000 0.437500 1.000000 81 97 121 255
0.167605 -0.017005 0.149165 1.000000 -0.000002 0.000000 0.437500 0.000000 81 97 121 255
0.167605 -0.008129 -0.247803 1.000000 -0.000002 0.000000 0.375000 0.250000 81 97 121 255
0.167605 -0.008129 0.149165 1.000000 -0.000002 0.000000 0.375000 0.000000 81 97 121 255
-0.139308 -0.017005 -0.247803 -0.000000 -0.000002 -1.000000 0.437500 0.468750 81 97 121 255
-0.162975 -0.008129 -0.247803 -0.000000 -0.000002 -1.000000 0.375000 0.500000 81 97 121 255
-0.139308 -0.008129 -0.247803 -0.000000 -0.000002 -1.000000 0.375000 0.468750 81 97 121 255
-0.163951 -0.017005 -0.247803 -0.994002 0.109363 -0.000000 0.437500 0.500000 81 97 121 255
-0.162975 -0.008129 0.149165 -0.994002 0.109363 -0.000000 0.375000 0.750000 81 97 121 255
-0.162975 -0.008129 -0.247803 -0.994002 0.109363 -0.000000 0.375000 0.500000 81 97 121 255
-0.118550 -0.008129 0.149165 -0.000000 -0.000002 1.000000 0.375000 0.875000 81 97 121 255
0.167605 -0.017005 0.149165 -0.000000 -0.000002 1.000000 0.437500 1.000000 81 97 121 255
0.167605 -0.008129 0.149165 -0.000000 -0.000002 1.000000 0.375000 1.000000 81 97 121 255
-0.128352 -0.014863 0.149165 -0.000000 -0.000002 1.000000 0.375000 0.812500 81 97 121 255
-0.118550 -0.017005 0.149165 -0.000000 -0.000002 1.000000 0.437500 0.875000 81 97 121 255
0.167605 -0.017005 -0.247803 -0.000000 -0.000002 -1.000000 0.437500 0.250000 81 97 121 255
-0.118550 -0.008129 -0.247803 -0.000000 -0.000002 -1.000000 0.375000 0.375000 81 97 121 255
0.167605 -0.008129 -0.247803 -0.000000 -0.000002 -1.000000 0.375000 0.250000 81 97 121 255
-0.128352 -0.083463 -0.247803 -0.442104 0.896964 0.000000 0.562500 0.437500 81 97 121 255
-0.139308 -0.088863 -0.235894 -0.442104 0.896964 0.000000 0.562500 0.468750 81 97 121 255
-0.128352 -0.083463 -0.235894 -0.442104 0.896964 0.000000 0.562500 0.437500 81 97 121 255
-0.128352 -0.083463 0.149165 0.482549 0.875869 0.000000 0.562500 0.812500 81 97 121 255
-0.118550 -0.088863 0.137256 0.482549 0.875869 0.000000 0.562500 0.875000 81 97 121 255
-0.128352 -0.083463 0.137256 0.482549 0.875869 0.000000 0.562500 0.812500 81 97 121 255
-0.128352 -0.083463 0.149165 -0.442104 0.896964 0.000000 0.562500 0.812500 81 97 121 255
-0.139308 -0.088863 0.137256 -0.442104 0.896964 0.000000 0.562500 0.781250 81 97 121 255
-0.139308 -0.088863 0.149165 -0.442104 0.896964 0.000000 0.562500 0.781250 81 97 121 255
0.167605 -0.088863 -0.247803 0.000001 1.000000 -0.000000 0.562500 0.250000 81 97 121 255
0.160313 -0.088863 0.137256 0.000001 1.000000 -0.000000 0.562500 0.000000 81 97 121 255
0.167605 -0.088863 0.149165 0.000001 1.000000 -0.000000 0.562500 0.000000 81 97 121 255
-0.118550 -0.097739 -0.247803 -0.566276 -0.824215 0.000000 0.750000 0.500000 81 97 121 255
-0.128352 -0.091005 0.149165 -0.566276 -0.824215 0.000000 0.687500 0.750000 81 97 121 255
-0.128352 -0.091005 -0.247803 -0.566276 -0.824215 0.000000 0.687500 0.500000 81 97 121 255
-0.118550 -0.008129 -0.247803 -0.000000 1.000000 -0.000000 0.250000 0.500000 81 97 121 255
0.167605 -0.008129 0.149165 -0.000000 1.000000 -0.000000 0.125000 0.750000 81 97 121 255
0.167605 -0.008129 -0.247803 -0.000000 1.000000 -0.000000 0.125000 0.500000 81 97 121 255
-0.128352 -0.091005 0.149165 0.000000 0.000000 1.000000 0.625000 0.812500 81 97 121 255
-0.118550 -0.088863 0.149165 0.000000 0.000000 1.000000 0.562500 0.875000 81 97 121 255
-0.128352 -0.083463 0.149165 0.000000 0.000000 1.000000 0.562500 0.812500 81 97 121 255
0.167605 -0.088863 -0.247803 -0.000000 0.000002 -1.000000 0.562500 0.250000 81 97 121 255
-0.118550 -0.097739 -0.247803 -0.000000 0.000002 -1.000000 0.625000 0.375000 81 97 121 255
-0.118550 -0.088863 -0.247803 -0.000000 0.000002 -1.000000 0.562500 0.375000 81 97 121 255
-0.139308 -0.088863 0.149165 0.000001 0.000000 1.000000 0.562500 0.781250 81 97 121 255
-0.128352 -0.091005 0.149165 0.000001 0.000000 1.000000 0.625000 0.812500 81 97 121 255
-0.128352 -0.083463 0.149165 0.000001 0.000000 1.000000 0.562500 0.812500 81 97 121 255
-0.128352 -0.091005 -0.247803 0.523649 -0.851934 0.000000 0.687500 0.500000 81 97 121 255
-0.139308 -0.097739 0.149165 0.523649 -0.851934 0.000000 0.656250 0.750000 81 97 121 255
-0.139308 -0.097739 -0.247803 0.523649 -0.851934 0.000000 0.656250 0.500000 81 97 121 255
-0.139308 -0.017005 -0.247803 0.999311 -0.037113 -0.000001 0.437500 0.468750 81 97 121 255
-0.140642 -0.052934 -0.235894 0.999311 -0.037113 -0.000001 0.500000 0.468750 81 97 121 255
-0.140642 -0.052934 -0.247803 0.999311 -0.037113 -0.000001 0.500000 0.468750 81 97 121 255
-0.140642 -0.052934 -0.247803 0.999311 0.037113 -0.000001 0.500000 0.468750 81 97 121 255
-0.139308 -0.088863 -0.235894 0.999311 0.037113 -0.000001 0.562500 0.468750 81 97 121 255
-0.139308 -0.088863 -0.247803 0.999311 0.037113 -0.000001 0.562500 0.468750 81 97 121 255
-0.139308 -0.017005 0.149165 0.000002 -0.000002 1.000000 0.437500 0.781250 81 97 121 255
-0.128352 -0.014863 0.149165 0.000002 -0.000002 1.000000 0.375000 0.812500 81 97 121 255
-0.139308 -0.008129 0.149165 0.000002 -0.000002 1.000000 0.375000 0.781250 81 97 121 255
-0.118550 -0.017005 -0.247803 -0.000000 -0.000002 -1.000000 0.437500 0.375000 81 97 121 255
-0.128352 -0.014863 -0.247803 -0.000000 -0.000002 -1.000000 0.375000 0.437500 81 97 121 255
0.167605 -0.017005 0.149165 -0.000000 -1.000000 0.000000 0.437500 0.000000 81 97 121 255
0.160313 -0.017005 -0.235894 -0.000000 -1.000000 0.000000 0.437500 0.250000 81 97 121 255
0.167605 -0.017005 -0.247803 -0.000000 -1.000000 0.000000 0.437500 0.250000 81 97 121 255
-0.118550 -0.088863 0.149165 0.000000 1.000000 0.000001 0.562500 0.875000 81 97 121 255
0.160313 -0.088863 0.137256 0.000000 1.000000 0.000001 0.562500 1.000000 81 97 121 255
-0.118550 -0.088863 0.137256 0.000000 1.000000 0.000001 0.562500 0.875000 81 97 121 255
-0.128352 -0.014863 -0.247803 -0.566276 0.824215 -0.000000 0.312500 0.500000 81 97 121 255
-0.118550 -0.008129 0.149165 -0.566276 0.824215 -0.000000 0.250000 0.750000 81 97 121 255
-0.118550 -0.008129 -0.247803 -0.566276 0.824215 -0.000000 0.250000 0.500000 81 97 121 255
-0.118550 -0.088863 -0.247803 0.000000 0.000000 -1.000000 0.562500 0.375000 81 97 121 255
-0.128352 -0.091005 -0.247803 0.000000 0.000000 -1.000000 0.625000 0.437500 81 97 121 255
-0.128352 -0.083463 -0.247803 0.000000 0.000000 -1.000000 0.562500 0.437500 81 97 121 255
-0.162975 -0.008129 0.149165 0.000000 -0.000002 1.000000 0.375000 0.750000 81 97 121 255
-0.139308 -0.017005 0.149165 0.000000 -0.000002 1.000000 0.437500 0.781250 81 97 121 255
-0.139308 -0.008129 0.149165 0.000000 -0.000002 1.000000 0.375000 0.781250 81 97 121 255
-0.163951 -0.088863 0.149165 0.000000 -0.000000 1.000000 0.562500 0.750000 81 97 121 255
-0.140642 -0.052934 0.149165 0.000000 -0.000000 1.000000 0.500000 0.781250 81 97 121 255
-0.165391 -0.052934 0.149165 0.000000 -0.000000 1.000000 0.500000 0.750000 81 97 121 255
-0.163951 -0.017005 0.149165 0.000000 0.000000 1.000000 0.437500 0.750000 81 97 121 255
-0.139308 -0.017005 0.149165 0.000000 0.000000 1.000000 0.437500 0.781250 81 97 121 255
-0.139308 -0.097739 -0.247803 0.000000 -1.000000 0.000000 0.656250 0.500000 81 97 121 255
-0.162975 -0.097739 0.149165 0.000000 -1.000000 0.000000 0.625000 0.750000 81 97 121 255
-0.162975 -0.097739 -0.247803 0.000000 -1.000000 0.000000 0.625000 0.500000 81 97 121 255
-0.162975 -0.097739 0.149165 -0.000000 0.000002 1.000000 0.625000 0.750000 81 97 121 255
-0.139308 -0.088863 0.149165 -0.000000 0.000002 1.000000 0.562500 0.781250 81 97 121 255
-0.163951 -0.088863 0.149165 -0.000000 0.000002 1.000000 0.562500 0.750000 81 97 121 255
-0.128352 -0.014863 -0.247803 0.000002 -0.000002 -1.000000 0.375000 0.437500 81 97 121 255
-0.139308 -0.017005 -0.247803 0.000002 -0.000002 -1.000000 0.437500 0.468750 81 97 121 255
-0.139308 -0.008129 -0.247803 0.000002 -0.000002 -1.000000 0.375000 0.468750 81 97 121 255
-0.128352 -0.022406 -0.247803 0.482550 -0.875868 0.000000 0.437500 0.437500 81 97 121 255
-0.118550 -0.017005 -0.235894 0.482550 -0.875868 0.000000 0.437500 0.375000 81 97 121 255
-0.128352 -0.022406 -0.235894 0.482550 -0.875868 0.000000 0.437500 0.437500 81 97 121 255
-0.128352 -0.022405 0.149165 0.482550 -0.875868 0.000000 0.437500 0.812500 81 97 121 255
-0.118550 -0.017005 0.137256 0.482550 -0.875868 0.000000 0.437500 0.875000 81 97 121 255
-0.118550 -0.017005 0.149165 0.482550 -0.875868 0.000000 0.437500 0.875000 81 97 121 255
-0.139308 -0.008129 -0.247803 0.523649 0.851934 -0.000000 0.343750 0.500000 81 97 121 255
-0.128352 -0.014863 0.149165 0.523649 0.851934 -0.000000 0.312500 0.750000 81 97 121 255
-0.128352 -0.014863 -0.247803 0.523649 0.851934 -0.000000 0.312500 0.500000 81 97 121 255
-0.128352 -0.091005 -0.247803 0.000001 0.000000 -1.000000 0.625000 0.437500 81 97 121 255
-0.139308 -0.088863 -0.247803 0.000001 0.000000 -1.000000 0.562500 0.468750 81 97 121 255
-0.128352 -0.083463 -0.247803 0.000001 0.000000 -1.000000 0.562500 0.437500 81 97 121 255
-0.118550 -0.017005 0.137256 -0.000000 0.000000 1.000000 0.437500 0.875000 235 234 204 255
0.157548 -0.052934 0.137256 -0.000000 0.000000 1.000000 0.500000 1.000000 235 234 204 255
0.160313 -0.017005 0.137256 -0.000000 0.000000 1.000000 0.437500 1.000000 235 234 204 255
0.157548 -0.052934 0.137256 0.997052 -0.076730 0.000000 0.500000 0.000000 235 234 204 255
0.160313 -0.017005 -0.235894 0.997052 -0.076730 0.000000 0.437500 0.250000 235 234 204 255
0.160313 -0.017005 0.137256 0.997052 -0.076730 0.000000 0.437500 0.000000 235 234 204 255
-0.118550 -0.088863 0.137256 -0.000000 -0.000000 1.000000 0.562500 0.875000 235 234 204 255
-0.118550 -0.052934 0.137256 -0.000000 -0.000000 1.000000 0.500000 0.875000 235 234 204 255
0.160313 -0.088863 0.137256 0.997052 0.076730 -0.000000 0.562500 0.000000 235 234 204 255
0.157548 -0.052934 -0.235894 0.997052 0.076730 -0.000000 0.500000 0.250000 235 234 204 255
0.157548 -0.052934 0.137256 0.997052 0.076730 -0.000000 0.500000 0.000000 235 234 204 255
0.157548 -0.052934 -0.235894 -0.000000 -0.000000 -1.000000 0.500000 0.250000 235 234 204 255
-0.118550 -0.088863 -0.235894 -0.000000 -0.000000 -1.000000 0.562500 0.375000 235 234 204 255
-0.118550 -0.052934 -0.235894 -0.000000 -0.000000 -1.000000 0.500000 0.375000 235 234 204 255
-0.128352 -0.083463 0.137256 -0.000002 -0.000000 1.000000 0.562500 0.812500 235 234 204 255
-0.118550 -0.052934 0.137256 -0.000002 -0.000000 1.000000 0.500000 0.875000 235 234 204 255
-0.128352 -0.052934 0.137256 -0.000002 -0.000000 1.000000 0.500000 0.812500 235 234 204 255
-0.118550 -0.017005 -0.235894 -0.000000 0.000000 -1.000000 0.437500 0.375000 235 234 204 255
0.160313 -0.017005 -0.235894 -0.000000 0.000000 -1.000000 0.437500 0.250000 235 234 204 255
-0.128352 -0.022405 0.137256 -0.000002 0.000000 1.000000 0.437500 0.812500 235 234 204 255
-0.118550 -0.017005 0.137256 -0.000002 0.000000 1.000000 0.437500 0.875000 235 234 204 255
-0.140642 -0.052934 0.137256 0.000003 0.000000 1.000000 0.500000 0.781250 235 234 204 255
-0.128352 -0.022405 0.137256 0.000003 0.000000 1.000000 0.437500 0.812500 235 234 204 255
-0.139308 -0.017005 0.137256 0.000003 0.000000 1.000000 0.437500 0.781250 235 234 204 255
-0.140642 -0.052934 0.137256 0.000002 -0.000000 1.000000 0.500000 0.781250 235 234 204 255
-0.128352 -0.083463 0.137256 0.000002 -0.000000 1.000000 0.562500 0.812500 235 234 204 255
-0.128352 -0.052934 0.137256 0.000002 -0.000000 1.000000 0.500000 0.812500 235 234 204 255
-0.118550 -0.052934 -0.235894 -0.000002 -0.000000 -1.000000 0.500000 0.375000 235 234 204 255
-0.128352 -0.083463 -0.235894 -0.000002 -0.000000 -1.000000 0.562500 0.437500 235 234 204 255
-0.128352 -0.052934 -0.235894 -0.000002 -0.000000 -1.000000 0.500000 0.437500 235 234 204 255
-0.128352 -0.022406 -0.235894 -0.000002 0.000000 -1.000000 0.437500 0.437500 235 234 204 255
-0.118550 -0.017005 -0.235894 -0.000002 0.000000 -1.000000 0.437500 0.375000 235 234 204 255
-0.128352 -0.083463 -0.235894 0.000002 -0.000000 -1.000000 0.562500 0.437500 235 234 204 255
-0.140642 -0.052934 -0.235894 0.000002 -0.000000 -1.000000 0.500000 0.468750 235 234 204 255
-0.128352 -0.052934 -0.235894 0.000002 -0.000000 -1.000000 0.500000 0.437500 235 234 204 255
-0.128352 -0.022406 -0.235894 0.000003 0.000000 -1.000000 0.437500 0.437500 235 234 204 255
-0.140642 -0.052934 -0.235894 0.000003 0.000000 -1.000000 0.500000 0.468750 235 234 204 255
-0.139308 -0.017005 -0.235894 0.000003 0.000000 -1.000000 0.437500 0.468750 235 234 204 255
-0.118550 -0.088863 -0.247803 -0.000000 1.000000 -0.000001 0.562500 0.375000 81 97 121 255
0.160313 -0.088863 -0.235894 -0.000000 1.000000 -0.000001 0.562500 0.250000 81 97 121 255
0.167605 -0.088863 -0.247803 -0.000000 1.000000 -0.000001 0.562500 0.250000 81 97 121 255
-0.140642 -0.052934 0.149165 0.999311 -0.037113 0.000001 0.500000 0.781250 81 97 121 255
-0.139308 -0.017005 0.137256 0.999311 -0.037113 0.000001 0.437500 0.781250 81 97 121 255
-0.139308 -0.017005 0.149165 0.999311 -0.037113 0.000001 0.437500 0.781250 81 97 121 255
-0.118550 -0.017005 -0.247803 0.000000 -1.000000 0.000000 0.437500 0.375000 81 97 121 255
-0.118550 -0.017005 -0.235894 0.000000 -1.000000 0.000000 0.437500 0.375000 81 97 121 255
-0.128352 -0.083463 -0.247803 0.482550 0.875868 -0.000001 0.562500 0.437500 81 97 121 255
-0.118550 -0.088863 -0.235894 0.482550 0.875868 -0.000001 0.562500 0.375000 81 97 121 255
-0.118550 -0.088863 -0.247803 0.482550 0.875868 -0.000001 0.562500 0.375000 81 97 121 255
0.167605 -0.097739 -0.247803 1.000000 0.000002 -0.000000 0.625000 0.250000 81 97 121 255
-0.139308 -0.097739 -0.247803 0.000000 0.000002 -1.000000 0.625000 0.468750 81 97 121 255
-0.162975 -0.097739 0.149165 -0.994002 -0.109363 0.000000 0.625000 0.750000 81 97 121 255
0.167605 -0.097739 0.149165 -0.000000 0.000002 1.000000 0.625000 1.000000 81 97 121 255
-0.162975 -0.008129 0.149165 0.000000 1.000000 -0.000000 0.375000 0.750000 81 97 121 255
0.167605 -0.097739 0.149165 -0.000000 -1.000000 0.000000 0.875000 0.750000 81 97 121 255
-0.128352 -0.022406 -0.247803 -0.442105 -0.896963 -0.000000 0.437500 0.437500 81 97 121 255
-0.128352 -0.022406 -0.235894 -0.442105 -0.896963 -0.000000 0.437500 0.437500 81 97 121 255
-0.139308 -0.017005 -0.235894 -0.442105 -0.896963 -0.000000 0.437500 0.468750 81 97 121 255
-0.165391 -0.052934 0.149165 -0.999198 0.040036 -0.000000 0.500000 0.750000 81 97 121 255
-0.139308 -0.017005 0.149165 -0.442104 -0.896964 -0.000000 0.437500 0.781250 81 97 121 255
-0.139308 -0.088863 0.149165 0.999311 0.037113 0.000001 0.562500 0.781250 81 97 121 255
-0.163951 -0.088863 0.149165 -0.999198 -0.040036 0.000000 0.562500 0.750000 81 97 121 255
-0.139308 -0.088863 -0.247803 0.000000 -0.000000 -1.000000 0.562500 0.468750 81 97 121 255
-0.118550 -0.017005 0.137256 -0.000000 -1.000000 0.000000 0.437500 0.875000 81 97 121 255
0.167605 -0.017005 -0.247803 1.000000 -0.000002 0.000000 0.437500 0.250000 81 97 121 255
-0.163951 -0.017005 -0.247803 0.000000 -0.000002 -1.000000 0.437500 0.500000 81 97 121 255
-0.163951 -0.017005 0.149165 -0.994002 0.109363 -0.000000 0.437500 0.750000 81 97 121 255
-0.128352 -0.014863 0.149165 0.000000 -0.000000 1.000000 0.375000 0.812500 81 97 121 255
-0.128352 -0.022405 0.149165 0.000000 -0.000000 1.000000 0.437500 0.812500 81 97 121 255
-0.118550 -0.017005 0.149165 0.000000 -0.000000 1.000000 0.437500 0.875000 81 97 121 255
-0.139308 -0.088863 -0.247803 -0.442104 0.896964 -0.000000 0.562500 0.468750 81 97 121 255
-0.128352 -0.083463 0.149165 0.482550 0.875868 0.000001 0.562500 0.812500 81 97 121 255
-0.118550 -0.088863 0.149165 0.482550 0.875868 0.000001 0.562500 0.875000 81 97 121 255
-0.118550 -0.088863 0.137256 0.482550 0.875868 0.000001 0.562500 0.875000 81 97 121 255
-0.128352 -0.083463 0.137256 -0.442104 0.896964 0.000000 0.562500 0.812500 81 97 121 255
0.160313 -0.088863 -0.235894 0.000001 1.000000 -0.000000 0.562500 0.250000 81 97 121 255
-0.118550 -0.097739 0.149165 -0.566276 -0.824215 0.000000 0.750000 0.750000 81 97 121 255
-0.118550 -0.008129 0.149165 -0.000000 1.000000 -0.000000 0.250000 0.750000 81 97 121 255
-0.128352 -0.091005 0.149165 -0.000000 0.000002 1.000000 0.625000 0.812500 81 97 121 255
0.167605 -0.097739 -0.247803 -0.000000 0.000002 -1.000000 0.625000 0.250000 81 97 121 255
-0.139308 -0.088863 0.149165 0.000002 0.000002 1.000000 0.562500 0.781250 81 97 121 255
-0.139308 -0.097739 0.149165 0.000002 0.000002 1.000000 0.625000 0.781250 81 97 121 255
-0.128352 -0.091005 0.149165 0.000002 0.000002 1.000000 0.625000 0.812500 81 97 121 255
-0.128352 -0.091005 0.149165 0.523649 -0.851934 0.000000 0.687500 0.750000 81 97 121 255
-0.139308 -0.017005 -0.235894 0.999311 -0.037113 -0.000001 0.437500 0.468750 81 97 121 255
-0.140642 -0.052934 -0.235894 0.999311 0.037113 -0.000001 0.500000 0.468750 81 97 121 255
-0.139308 -0.017005 0.149165 0.000001 0.000000 1.000000 0.437500 0.781250 81 97 121 255
-0.128352 -0.022405 0.149165 0.000001 0.000000 1.000000 0.437500 0.812500 81 97 121 255
-0.128352 -0.014863 0.149165 0.000001 0.000000 1.000000 0.375000 0.812500 81 97 121 255
-0.118550 -0.017005 -0.247803 0.000000 0.000000 -1.000000 0.437500 0.375000 81 97 121 255
-0.128352 -0.022406 -0.247803 0.000000 0.000000 -1.000000 0.437500 0.437500 81 97 121 255
-0.128352 -0.014863 -0.247803 0.000000 0.000000 -1.000000 0.375000 0.437500 81 97 121 255
0.160313 -0.017005 0.137256 0.000000 -1.000000 0.000000 0.437500 0.000000 81 97 121 255
0.167605 -0.088863 0.149165 -0.000000 1.000000 0.000001 0.562500 1.000000 81 97 121 255
-0.128352 -0.014863 0.149165 -0.566276 0.824215 -0.000000 0.312500 0.750000 81 97 121 255
-0.128352 -0.091005 -0.247803 -0.000000 0.000002 -1.000000 0.625000 0.437500 81 97 121 255
-0.163951 -0.017005 0.149165 0.000000 -0.000002 1.000000 0.437500 0.750000 81 97 121 255
-0.139308 -0.088863 0.149165 0.000000 -0.000000 1.000000 0.562500 0.781250 81 97 121 255
-0.139308 -0.097739 0.149165 0.000000 -1.000000 0.000000 0.656250 0.750000 81 97 121 255
-0.139308 -0.097739 0.149165 0.000000 0.000002 1.000000 0.625000 0.781250 81 97 121 255
-0.128352 -0.014863 -0.247803 0.000001 0.000000 -1.000000 0.375000 0.437500 81 97 121 255
-0.128352 -0.022406 -0.247803 0.000001 0.000000 -1.000000 0.437500 0.437500 81 97 121 255
-0.139308 -0.017005 -0.247803 0.000001 0.000000 -1.000000 0.437500 0.468750 81 97 121 255
-0.118550 -0.017005 -0.247803 0.482550 -0.875868 0.000000 0.437500 0.375000 81 97 121 255
-0.128352 -0.022405 0.137256 0.482550 -0.875868 0.000000 0.437500 0.812500 81 97 121 255
-0.139308 -0.008129 0.149165 0.523649 0.851934 -0.000000 0.343750 0.750000 81 97 121 255
-0.128352 -0.091005 -0.247803 0.000002 0.000002 -1.000000 0.625000 0.437500 81 97 121 255
-0.139308 -0.097739 -0.247803 0.000002 0.000002 -1.000000 0.625000 0.468750 81 97 121 255
-0.139308 -0.088863 -0.247803 0.000002 0.000002 -1.000000 0.562500 0.468750 81 97 121 255
0.157548 -0.052934 -0.235894 0.997052 -0.076730 0.000000 0.500000 0.250000 235 234 204 255
0.160313 -0.088863 0.137256 -0.000000 -0.000000 1.000000 0.562500 1.000000 235 234 204 255
0.160313 -0.088863 -0.235894 0.997052 0.076730 -0.000000 0.562500 0.250000 235 234 204 255
0.160313 -0.088863 -0.235894 -0.000000 -0.000000 -1.000000 0.562500 0.250000 235 234 204 255
-0.118550 -0.088863 0.137256 -0.000002 -0.000000 1.000000 0.562500 0.875000 235 234 204 255
-0.128352 -0.022405 0.137256 0.000002 0.000000 1.000000 0.437500 0.812500 235 234 204 255
-0.139308 -0.088863 0.137256 0.000003 -0.000000 1.000000 0.562500 0.781250 235 234 204 255
-0.128352 -0.083463 0.137256 0.000003 -0.000000 1.000000 0.562500 0.812500 235 234 204 255
-0.118550 -0.088863 -0.235894 -0.000002 -0.000000 -1.000000 0.562500 0.375000 235 234 204 255
-0.128352 -0.083463 -0.235894 0.000003 -0.000000 -1.000000 0.562500 0.437500 235 234 204 255
-0.139308 -0.088863 -0.235894 0.000003 -0.000000 -1.000000 0.562500 0.468750 235 234 204 255
-0.128352 -0.022406 -0.235894 0.000002 0.000000 -1.000000 0.437500 0.437500 235 234 204 255
-0.118550 -0.088863 -0.235894 0.000000 1.000000 -0.000001 0.562500 0.375000 81 97 121 255
-0.140642 -0.052934 0.137256 0.999311 -0.037113 0.000001 0.500000 0.781250 81 97 121 255
-0.128352 -0.083463 -0.247803 0.482549 0.875869 0.000000 0.562500 0.437500 81 97 121 255
-0.128352 -0.083463 -0.235894 0.482549 0.875869 0.000000 0.562500 0.437500 81 97 121 255
-0.118550 -0.088863 -0.235894 0.482549 0.875869 0.000000 0.562500 0.375000 81 97 121 255
3 0 1 2
3 3 4 5
3 6 7 8
3 9 10 11
3 12 13 14
3 15 16 17
3 18 19 20
3 21 22 23
3 24 25 26
3 27 28 29
3 30 31 32
3 33 34 35
3 24 36 37
3 38 39 40
3 41 42 43
3 44 45 46
3 47 48 49
3 50 51 52
3 53 54 50
3 55 56 57
3 58 59 60
3 61 62 63
3 64 65 66
3 67 68 69
3 70 71 72
3 73 74 75
3 76 77 78
3 79 80 81
3 82 83 84
3 85 86 87
3 88 89 90
3 91 92 93
3 94 95 96
3 97 98 56
3 99 100 101
3 102 103 104
3 105 106 107
3 108 109 110
3 111 112 113
3 114 115 116
3 117 115 118
3 119 120 121
3 122 123 124
3 125 126 127
3 128 129 130
3 131 132 133
3 134 135 136
3 137 138 139
3 140 141 142
3 143 144 145
3 146 141 147
3 148 149 150
3 151 152 153
3 154 155 156
3 151 157 158
3 159 155 160
3 161 162 163
3 164 165 166
3 167 168 169
3 167 170 171
3 172 173 174
3 175 176 177
3 178 179 180
3 181 182 183
3 184 100 185
3 186 187 188
3 0 189 1
3 3 190 4
3 6 191 7
3 9 192 10
3 12 193 13
3 15 194 16
3 195 196 197
3 21 198 22
3 24 37 25
3 27 199 28
3 30 200 31
3 33 201 34
3 24 202 36
3 38 203 39
3 41 204 42
3 44 205 45
3 47 206 48
3 50 54 51
3 207 208 209
3 55 97 56
3 58 210 59
3 211 212 213
3 64 214 65
3 67 215 68
3 70 216 71
3 73 217 74
3 218 9 11
3 79 219 80
3 220 221 222
3 85 223 86
3 88 224 89
3 91 225 92
3 226 227 228
3 229 230 231
3 99 232 100
3 102 233 103
3 105 234 106
3 81 80 235
3 111 236 112
3 114 237 115
3 117 116 115
3 119 238 120
3 122 239 123
3 240 241 242
3 128 243 129
3 131 244 132
3 134 245 135
3 246 247 248
3 140 147 141
3 143 249 144
3 146 250 141
3 148 251 149
3 151 252 152
3 154 253 155
3 151 153 157
3 159 156 155
3 164 166 254
3 161 255 256
3 167 257 168
3 167 169 170
3 258 259 176
3 260 174 173
3 178 261 179
3 181 262 182
3 184 101 100
3 263 264 265
