ply
format ascii 1.0
comment Created by Blender 2.91.2 - www.blender.org
element vertex 158
property float x
property float y
property float z
property float nx
property float ny
property float nz
property float s
property float t
property uchar red
property uchar green
property uchar blue
property uchar alpha
element face 86
property list uchar uint vertex_indices
end_header
0.027333 0.027333 0.089297 0.954565 -0.000000 -0.298002 0.625000 0.000000 148 94 70 255
0.019438 0.014075 0.064006 0.954565 -0.000000 -0.298002 0.589597 0.035403 148 94 70 255
0.019438 0.019441 0.064006 0.954565 -0.000000 -0.298002 0.589597 0.000000 148 94 70 255
0.027333 -0.027333 0.089297 -0.000000 -0.943493 -0.331393 0.625000 0.250000 148 94 70 255
0.014072 -0.018450 0.064006 -0.000000 -0.943493 -0.331393 0.589598 0.285403 148 94 70 255
0.019438 -0.018450 0.064006 -0.000000 -0.943493 -0.331393 0.589598 0.250000 148 94 70 255
-0.027333 -0.027333 0.089297 -0.943528 0.000000 -0.331292 0.625000 0.500000 148 94 70 255
-0.018453 -0.013084 0.064006 -0.943528 0.000000 -0.331292 0.589597 0.535403 148 94 70 255
-0.018453 -0.018450 0.064006 -0.943528 0.000000 -0.331292 0.589598 0.500000 148 94 70 255
-0.027333 0.027333 0.089297 -0.000001 0.954598 -0.297898 0.625000 0.750000 148 94 70 255
-0.013087 0.019441 0.064006 -0.000001 0.954598 -0.297898 0.589597 0.785403 148 94 70 255
-0.018453 0.019441 0.064006 -0.000001 0.954598 -0.297898 0.589597 0.750000 148 94 70 255
-0.027333 -0.027333 -0.089297 -0.000000 0.000000 -1.000000 0.375000 0.500000 148 94 70 255
0.027333 0.027333 -0.089297 -0.000000 0.000000 -1.000000 0.125000 0.750000 148 94 70 255
0.027333 -0.027333 -0.089297 -0.000000 0.000000 -1.000000 0.125000 0.500000 148 94 70 255
0.027333 0.027333 0.089297 0.264201 0.000000 -0.964468 0.625000 0.000000 158 148 151 255
0.056392 -0.027333 0.097257 0.264201 0.000000 -0.964468 0.625000 0.250000 158 148 151 255
0.027333 -0.027333 0.089297 0.264201 0.000000 -0.964468 0.625000 0.250000 158 148 151 255
-0.056392 0.027333 0.097257 0.000000 1.000000 -0.000000 0.625000 0.750000 158 148 151 255
0.056392 0.027333 0.118852 0.000000 1.000000 -0.000000 0.625000 1.000000 158 148 151 255
0.056392 0.027333 0.097257 0.000000 1.000000 -0.000000 0.625000 1.000000 158 148 151 255
-0.027333 0.027333 0.089297 0.000000 1.000000 0.000000 0.625000 0.750000 158 148 151 255
0.027333 0.027333 0.089297 0.000000 1.000000 0.000000 0.625000 1.000000 158 148 151 255
0.027333 -0.027333 0.089297 0.000000 -1.000000 0.000000 0.625000 0.250000 158 148 151 255
-0.056392 -0.027333 0.097257 0.000000 -1.000000 0.000000 0.625000 0.500000 158 148 151 255
-0.027333 -0.027333 0.089297 0.000000 -1.000000 0.000000 0.625000 0.500000 158 148 151 255
-0.027333 -0.027333 0.089297 -0.264201 0.000000 -0.964468 0.625000 0.500000 158 148 151 255
-0.056392 0.027333 0.097257 -0.264201 0.000000 -0.964468 0.625000 0.750000 158 148 151 255
-0.027333 0.027333 0.089297 -0.264201 0.000000 -0.964468 0.625000 0.750000 158 148 151 255
-0.056392 -0.027333 0.118852 -0.000000 0.000000 1.000000 0.625000 0.500000 158 148 151 255
-0.033132 0.011522 0.118852 -0.000000 0.000000 1.000000 0.625000 0.750000 158 148 151 255
-0.056392 0.027333 0.118852 -0.000000 0.000000 1.000000 0.625000 0.750000 158 148 151 255
0.056392 -0.027333 0.097257 0.000000 -1.000000 0.000000 0.625000 0.250000 158 148 151 255
-0.056392 -0.027333 0.118852 0.000000 -1.000000 0.000000 0.625000 0.500000 158 148 151 255
-0.056392 -0.027333 0.097257 -1.000000 -0.000000 0.000000 0.625000 0.500000 158 148 151 255
-0.056392 0.027333 0.118852 -1.000000 -0.000000 0.000000 0.625000 0.750000 158 148 151 255
-0.056392 0.027333 0.097257 -1.000000 -0.000000 0.000000 0.625000 0.750000 158 148 151 255
0.056392 0.027333 0.097257 1.000000 -0.000000 0.000000 0.625000 0.000000 158 148 151 255
0.056392 -0.027333 0.118852 1.000000 -0.000000 0.000000 0.625000 0.250000 158 148 151 255
0.056392 -0.027333 0.097257 1.000000 -0.000000 0.000000 0.625000 0.250000 158 148 151 255
0.033132 0.011522 0.118852 0.999846 0.000000 -0.017554 0.625000 0.000000 216 223 223 255
0.036684 -0.013791 0.321202 0.999846 0.000000 -0.017554 0.625000 0.250000 216 223 223 255
0.033132 -0.011522 0.118852 0.999846 0.000000 -0.017554 0.625000 0.250000 216 223 223 255
0.056392 0.027333 0.118852 0.000000 0.000000 1.000000 0.625000 0.000000 158 148 151 255
0.033132 -0.011522 0.118852 0.000000 0.000000 1.000000 0.625000 0.250000 158 148 151 255
0.056392 -0.027333 0.118852 0.000000 0.000000 1.000000 0.625000 0.250000 158 148 151 255
0.033132 0.011522 0.118852 0.000000 0.000000 1.000000 0.625000 1.000000 158 148 151 255
0.056392 0.027333 0.118852 0.000000 0.000000 1.000000 0.625000 1.000000 158 148 151 255
-0.033132 -0.011522 0.118852 0.000000 -0.000000 1.000000 0.625000 0.500000 158 148 151 255
-0.036684 0.013791 0.321202 0.000000 0.993494 0.113884 0.625000 0.750000 216 223 223 255
0.004031 0.002703 0.417931 0.000000 0.993494 0.113884 0.625000 1.000000 215 222 222 255
0.036684 0.013791 0.321202 0.000000 0.993494 0.113884 0.625000 1.000000 216 223 223 255
0.033132 0.011522 0.118852 0.000000 0.999937 -0.011210 0.625000 1.000000 216 223 223 255
-0.036684 0.013791 0.321202 0.000000 0.999937 -0.011210 0.625000 0.750000 216 223 223 255
0.036684 0.013791 0.321202 0.000000 0.999937 -0.011210 0.625000 1.000000 216 223 223 255
-0.033132 -0.011522 0.118852 0.000000 -0.999937 -0.011210 0.625000 0.500000 216 223 223 255
0.036684 -0.013791 0.321202 0.000000 -0.999937 -0.011210 0.625000 0.250000 216 223 223 255
-0.036684 -0.013791 0.321202 0.000000 -0.999937 -0.011210 0.625000 0.500000 216 223 223 255
-0.033132 -0.011522 0.118852 -0.999846 0.000000 -0.017554 0.625000 0.500000 216 223 223 255
-0.036684 0.013791 0.321202 -0.999846 0.000000 -0.017554 0.625000 0.750000 216 223 223 255
-0.033132 0.011522 0.118852 -0.999846 0.000000 -0.017554 0.625000 0.750000 216 223 223 255
0.004031 -0.002703 0.417931 -0.000000 0.000000 1.000000 0.875000 0.500000 215 222 222 255
-0.004031 0.002703 0.417931 -0.000000 0.000000 1.000000 0.625000 0.750000 216 223 223 255
-0.004031 -0.002703 0.417931 -0.000000 0.000000 1.000000 0.625000 0.500000 216 223 223 255
-0.036684 -0.013791 0.321202 0.000000 -0.993494 0.113884 0.625000 0.500000 216 223 223 255
0.004031 -0.002703 0.417931 0.000000 -0.993494 0.113884 0.625000 0.250000 215 222 222 255
-0.004031 -0.002703 0.417931 0.000000 -0.993494 0.113884 0.625000 0.500000 216 223 223 255
-0.036684 0.013791 0.321202 -0.947472 0.000000 0.319838 0.625000 0.750000 216 223 223 255
-0.004031 -0.002703 0.417931 -0.947472 0.000000 0.319838 0.625000 0.500000 216 223 223 255
-0.004031 0.002703 0.417931 -0.947472 0.000000 0.319838 0.625000 0.750000 216 223 223 255
0.036684 -0.013791 0.321202 0.947472 -0.000000 0.319839 0.625000 0.250000 216 223 223 255
0.004031 0.002703 0.417931 0.947472 -0.000000 0.319839 0.625000 0.000000 215 222 222 255
0.004031 -0.002703 0.417931 0.947472 -0.000000 0.319839 0.625000 0.250000 215 222 222 255
0.027333 -0.027333 0.089297 0.954565 0.000000 -0.298003 0.625000 0.250000 148 94 70 255
0.019438 0.014075 0.064006 0.954565 0.000000 -0.298003 0.589597 0.035403 148 94 70 255
0.027333 0.027333 0.089297 0.954565 0.000000 -0.298003 0.625000 0.000000 148 94 70 255
-0.027333 -0.027333 0.089297 0.000000 -0.943493 -0.331393 0.625000 0.500000 148 94 70 255
-0.027333 0.027333 0.089297 -0.943528 0.000000 -0.331292 0.625000 0.750000 148 94 70 255
0.027333 0.027333 0.089297 0.000000 0.954598 -0.297898 0.625000 1.000000 148 94 70 255
-0.013087 0.019441 0.064006 0.000000 0.954598 -0.297898 0.589597 0.785403 148 94 70 255
-0.027333 0.027333 0.089297 0.000000 0.954598 -0.297898 0.625000 0.750000 148 94 70 255
-0.027333 0.027333 -0.089297 -0.000000 -0.000000 -1.000000 0.375000 0.750000 148 94 70 255
0.056392 0.027333 0.097257 0.264201 0.000000 -0.964468 0.625000 0.000000 158 148 151 255
-0.056392 0.027333 0.118852 0.000000 1.000000 0.000000 0.625000 0.750000 158 148 151 255
-0.027333 -0.027333 0.089297 -0.264200 -0.000000 -0.964468 0.625000 0.500000 158 148 151 255
-0.056392 -0.027333 0.097257 -0.264200 -0.000000 -0.964468 0.625000 0.500000 158 148 151 255
-0.056392 0.027333 0.097257 -0.264200 -0.000000 -0.964468 0.625000 0.750000 158 148 151 255
0.056392 -0.027333 0.118852 0.000000 -1.000000 0.000000 0.625000 0.250000 158 148 151 255
-0.056392 -0.027333 0.118852 -1.000000 -0.000000 -0.000000 0.625000 0.500000 158 148 151 255
0.056392 0.027333 0.118852 1.000000 -0.000000 0.000000 0.625000 0.000000 158 148 151 255
0.036684 0.013791 0.321202 0.999846 0.000000 -0.017554 0.625000 0.000000 216 223 223 255
0.033132 0.011522 0.118852 0.000000 -0.000000 1.000000 0.625000 0.000000 158 148 151 255
-0.004031 0.002703 0.417931 0.000000 0.993494 0.113884 0.625000 0.750000 216 223 223 255
-0.033132 0.011522 0.118852 0.000000 0.999937 -0.011210 0.625000 0.750000 216 223 223 255
0.033132 -0.011522 0.118852 -0.000000 -0.999937 -0.011210 0.625000 0.250000 216 223 223 255
-0.036684 -0.013791 0.321202 -0.999846 -0.000000 -0.017554 0.625000 0.500000 216 223 223 255
0.004031 0.002703 0.417931 -0.000000 0.000000 1.000000 0.875000 0.750000 215 222 222 255
0.036684 -0.013791 0.321202 0.000000 -0.993494 0.113884 0.625000 0.250000 216 223 223 255
-0.036684 -0.013791 0.321202 -0.947472 0.000000 0.319838 0.625000 0.500000 216 223 223 255
0.036684 0.013791 0.321202 0.947472 0.000000 0.319839 0.625000 0.000000 216 223 223 255
-0.013087 0.019441 0.064006 -0.000000 1.000000 0.000000 0.589597 0.785403 148 94 70 255
-0.018453 0.019441 -0.048335 -0.000000 1.000000 0.000000 0.432339 0.750000 148 94 70 255
-0.018453 0.019441 0.064006 -0.000000 1.000000 0.000000 0.589597 0.750000 148 94 70 255
0.010689 0.019441 -0.048060 -0.001793 0.981865 0.189571 0.432725 0.942275 148 94 70 255
-0.027333 0.027333 -0.089297 -0.001793 0.981865 0.189571 0.375000 0.750000 148 94 70 255
-0.018453 0.019441 -0.048335 -0.001793 0.981865 0.189571 0.432339 0.750000 148 94 70 255
-0.018453 -0.018450 0.064006 -0.000000 -1.000000 0.000000 0.589598 0.500000 148 94 70 255
-0.009745 -0.018450 -0.048253 -0.000000 -1.000000 0.000000 0.432455 0.442545 148 94 70 255
0.014072 -0.018450 0.064006 -0.000000 -1.000000 0.000000 0.589598 0.285403 148 94 70 255
-0.009745 -0.018450 -0.048253 -0.002009 -0.977191 0.212353 0.432455 0.442545 148 94 70 255
-0.018453 -0.018450 -0.048335 -0.002009 -0.977191 0.212353 0.432339 0.500000 148 94 70 255
-0.027333 -0.027333 -0.089297 -0.002009 -0.977191 0.212353 0.375000 0.500000 148 94 70 255
0.019438 -0.009684 -0.047977 1.000000 0.000000 0.000000 0.432841 0.192159 148 94 70 255
0.019438 0.019441 -0.047977 1.000000 0.000000 0.000000 0.432841 0.000000 148 94 70 255
0.019438 0.019441 0.000000 1.000000 0.000000 0.000000 0.500000 0.000000 148 94 70 255
0.019438 -0.009684 -0.047977 0.982230 0.000000 0.187684 0.432841 0.192159 148 94 70 255
0.027333 0.027333 -0.089297 0.982230 0.000000 0.187684 0.375000 0.000000 148 94 70 255
0.019438 0.019441 -0.047977 0.982230 0.000000 0.187684 0.432841 0.000000 148 94 70 255
-0.018453 0.019441 0.064006 -1.000000 0.000000 0.000000 0.589597 0.750000 148 94 70 255
-0.018453 0.010750 -0.048335 -1.000000 0.000000 0.000000 0.432339 0.692661 148 94 70 255
-0.018453 -0.013084 0.064006 -1.000000 0.000000 0.000000 0.589597 0.535403 148 94 70 255
-0.018453 0.010750 -0.048335 -0.977298 0.000000 0.211868 0.432339 0.692661 148 94 70 255
-0.018453 0.019441 -0.048335 -0.977298 0.000000 0.211868 0.432339 0.750000 148 94 70 255
-0.027333 0.027333 -0.089297 -0.977298 0.000000 0.211868 0.375000 0.750000 148 94 70 255
0.019438 -0.018450 -0.047977 -0.000000 -1.000000 -0.000000 0.432841 0.250000 148 94 70 255
0.019438 -0.018450 0.064006 -0.000000 -1.000000 -0.000000 0.589598 0.250000 148 94 70 255
-0.009745 -0.018450 -0.048253 -0.001985 -0.977738 0.209818 0.432455 0.442545 148 94 70 255
0.027333 -0.027333 -0.089297 -0.001985 -0.977738 0.209818 0.375000 0.250000 148 94 70 255
0.019438 -0.018450 -0.047977 -0.001985 -0.977738 0.209818 0.432841 0.250000 148 94 70 255
0.019438 0.019441 0.000000 0.000000 1.000000 0.000000 0.500000 1.000000 148 94 70 255
0.019438 0.019441 -0.047977 0.000000 1.000000 0.000000 0.432841 1.000000 148 94 70 255
0.010689 0.019441 -0.048060 0.000000 1.000000 0.000000 0.432725 0.942275 148 94 70 255
0.010689 0.019441 -0.048060 -0.001772 0.982304 0.187287 0.432725 0.942275 148 94 70 255
0.019438 0.019441 -0.047977 -0.001772 0.982304 0.187287 0.432841 1.000000 148 94 70 255
0.027333 0.027333 -0.089297 -0.001772 0.982304 0.187287 0.375000 1.000000 148 94 70 255
-0.018453 -0.018450 -0.048335 -1.000000 0.000000 0.000000 0.432339 0.500000 148 94 70 255
-0.018453 -0.018450 0.064006 -1.000000 0.000000 0.000000 0.589598 0.500000 148 94 70 255
-0.027333 -0.027333 -0.089297 -0.977298 -0.000000 0.211868 0.375000 0.500000 148 94 70 255
-0.018453 -0.018450 -0.048335 -0.977298 -0.000000 0.211868 0.432339 0.500000 148 94 70 255
0.019438 -0.018450 0.064006 1.000000 0.000000 0.000000 0.589598 0.250000 148 94 70 255
0.019438 0.014075 0.064006 1.000000 0.000000 0.000000 0.589597 0.035403 148 94 70 255
0.019438 -0.018450 -0.047977 0.982230 -0.000000 0.187684 0.432841 0.250000 148 94 70 255
0.027333 -0.027333 -0.089297 0.982230 -0.000000 0.187684 0.375000 0.250000 148 94 70 255
0.019438 -0.018450 0.064006 0.954565 0.000000 -0.298003 0.589598 0.250000 148 94 70 255
-0.018453 -0.018450 0.064006 -0.000000 -0.943493 -0.331393 0.589598 0.500000 148 94 70 255
-0.018453 0.019441 0.064006 -0.943528 -0.000000 -0.331292 0.589597 0.750000 148 94 70 255
0.019438 0.019441 0.064006 0.000000 0.954598 -0.297898 0.589597 1.000000 148 94 70 255
0.010689 0.019441 -0.048060 -0.000000 0.982173 0.187977 0.432725 0.942275 148 94 70 255
0.027333 0.027333 -0.089297 -0.000000 0.982173 0.187977 0.375000 1.000000 148 94 70 255
-0.027333 0.027333 -0.089297 -0.000000 0.982173 0.187977 0.375000 0.750000 148 94 70 255
-0.018453 -0.018450 -0.048335 -0.000000 -1.000000 0.000000 0.432339 0.500000 148 94 70 255
0.019438 0.019441 0.064006 1.000000 0.000000 0.000000 0.589597 0.000000 148 94 70 255
-0.018453 0.019441 -0.048335 -1.000000 0.000000 0.000000 0.432339 0.750000 148 94 70 255
-0.009745 -0.018450 -0.048253 0.000000 -0.977371 0.211531 0.432455 0.442545 148 94 70 255
-0.027333 -0.027333 -0.089297 0.000000 -0.977371 0.211531 0.375000 0.500000 148 94 70 255
0.027333 -0.027333 -0.089297 0.000000 -0.977371 0.211531 0.375000 0.250000 148 94 70 255
0.019438 0.019441 0.064006 0.000000 1.000000 -0.000000 0.589597 1.000000 148 94 70 255
0.019438 -0.018450 -0.047977 1.000000 0.000000 -0.000000 0.432841 0.250000 148 94 70 255
3 0 1 2
3 3 4 5
3 6 7 8
3 9 10 11
3 12 13 14
3 15 16 17
3 18 19 20
3 21 20 22
3 23 24 25
3 26 27 28
3 29 30 31
3 32 33 24
3 34 35 36
3 37 38 39
3 40 41 42
3 43 44 45
3 31 46 47
3 29 44 48
3 49 50 51
3 52 53 54
3 55 56 57
3 58 59 60
3 61 62 63
3 64 65 66
3 67 68 69
3 70 71 72
3 73 74 75
3 76 4 3
3 77 7 6
3 78 79 80
3 12 81 13
3 15 82 16
3 18 83 19
3 21 18 20
3 23 32 24
3 84 85 86
3 29 48 30
3 32 87 33
3 34 88 35
3 37 89 38
3 40 90 41
3 43 91 44
3 31 30 46
3 29 45 44
3 49 92 50
3 52 93 53
3 55 94 56
3 58 95 59
3 61 96 62
3 64 97 65
3 67 98 68
3 70 99 71
3 100 101 102
3 103 104 105
3 106 107 108
3 109 110 111
3 112 113 114
3 115 116 117
3 118 119 120
3 121 122 123
3 108 124 125
3 126 127 128
3 129 130 131
3 132 133 134
3 120 135 136
3 121 137 138
3 139 112 140
3 115 141 142
3 73 143 74
3 76 144 4
3 77 145 7
3 78 146 79
3 100 131 101
3 147 148 149
3 106 150 107
3 114 151 140
3 140 112 114
3 115 142 116
3 118 152 119
3 108 107 124
3 153 154 155
3 131 100 129
3 100 156 129
3 120 119 135
3 121 123 137
3 139 157 112
