ply
format ascii 1.0
comment Created by Blender 2.91.2 - www.blender.org
element vertex 542
property float x
property float y
property float z
property float nx
property float ny
property float nz
property float s
property float t
element face 200
property list uchar uint vertex_indices
end_header
0.000000 -0.730484 1.577072 -0.042898 -0.722251 -0.690299 0.250000 0.250000
-0.162231 -0.462559 1.306827 -0.042898 -0.722251 -0.690299 0.323231 0.350793
-0.000000 -0.475641 1.310432 -0.042898 -0.722251 -0.690299 0.250000 0.355925
-0.348181 -0.113131 1.008333 -0.910545 -0.401941 0.096706 0.425680 0.307082
-0.162231 -0.462559 1.306827 -0.910545 -0.401941 0.096706 0.323231 0.350793
-0.224062 -0.315113 1.337483 -0.910545 -0.401941 0.096706 0.350741 0.282733
-0.000000 -0.366099 1.008333 -0.270458 -0.863356 -0.425993 0.250000 0.434721
-0.162231 -0.462559 1.306827 -0.270458 -0.863356 -0.425993 0.323231 0.350793
-0.216672 -0.298224 1.008333 -0.270458 -0.863356 -0.425993 0.357555 0.398037
-0.000000 -0.416167 0.813981 -0.322706 -0.946143 0.025981 1.000000 0.875199
-0.246481 -0.339251 0.553510 -0.322706 -0.946143 0.025981 0.900000 0.751596
-0.000000 -0.423320 0.553510 -0.322706 -0.946143 0.025981 1.000000 0.751596
-0.000000 -0.366099 1.008333 -0.311051 -0.920344 0.237094 1.000000 1.000000
-0.242755 -0.334123 0.813981 -0.311051 -0.920344 0.237094 0.900000 0.875199
-0.000000 -0.416167 0.813981 -0.311051 -0.920344 0.237094 1.000000 0.875199
-0.242755 -0.334123 0.813981 -0.779180 -0.580229 0.237094 0.900000 0.875199
-0.348181 -0.113131 1.008333 -0.779180 -0.580229 0.237094 0.800000 1.000000
-0.395799 -0.128603 0.813981 -0.779180 -0.580229 0.237094 0.800000 0.875199
-0.246481 -0.339251 0.553510 -0.800113 -0.599286 0.025981 0.900000 0.751596
-0.395799 -0.128603 0.813981 -0.800113 -0.599286 0.025981 0.800000 0.875199
-0.402601 -0.130813 0.553510 -0.800113 -0.599286 0.025981 0.800000 0.751596
0.000000 -0.730484 1.577072 -0.889964 -0.266706 0.369908 0.250000 0.250000
-0.262496 -0.158267 1.358103 -0.889964 -0.266706 0.369908 0.368490 0.211500
-0.224062 -0.315113 1.337483 -0.889964 -0.266706 0.369908 0.350741 0.282733
-0.215188 0.296180 1.008333 -0.564319 0.539618 0.624786 0.358577 0.100557
-0.262496 -0.158267 1.358103 -0.564319 0.539618 0.624786 0.368490 0.211500
-0.138478 -0.055374 1.381251 -0.564319 0.539618 0.624786 0.312261 0.164305
-0.348181 -0.113131 1.008333 -0.971534 -0.010278 0.236677 0.425680 0.307082
-0.262496 -0.158267 1.358103 -0.971534 -0.010278 0.236677 0.368490 0.211500
-0.350583 0.113911 1.008333 -0.971534 -0.010278 0.236677 0.424028 0.193455
-0.395799 -0.128603 0.813981 -0.999557 0.014537 0.025981 0.800000 0.875199
-0.398814 0.129583 0.553510 -0.999557 0.014537 0.025981 0.700000 0.751596
-0.402601 -0.130813 0.553510 -0.999557 0.014537 0.025981 0.800000 0.751596
-0.348181 -0.113131 1.008333 -0.971420 0.011425 0.237094 0.800000 1.000000
-0.392785 0.127624 0.813981 -0.971420 0.011425 0.237094 0.700000 0.875199
-0.395799 -0.128603 0.813981 -0.971420 0.011425 0.237094 0.800000 0.875199
-0.392785 0.127624 0.813981 -0.792610 0.561743 0.237094 0.700000 0.875199
-0.215188 0.296180 1.008333 -0.792610 0.561743 0.237094 0.600000 1.000000
-0.244617 0.336686 0.813981 -0.792610 0.561743 0.237094 0.600000 0.875199
-0.398814 0.129583 0.553510 -0.817203 0.575764 0.025981 0.700000 0.751596
-0.244617 0.336686 0.813981 -0.817203 0.575764 0.025981 0.600000 0.875199
-0.248821 0.342473 0.553510 -0.817203 0.575764 0.025981 0.600000 0.751596
0.000000 -0.730484 1.577072 -0.202703 0.234214 0.950818 0.250000 0.250000
0.000000 0.029796 1.389793 -0.202703 0.234214 0.950818 0.250000 0.125412
-0.138478 -0.055374 1.381251 -0.202703 0.234214 0.950818 0.312261 0.164305
0.215188 0.296180 1.008333 0.419828 0.615721 0.666808 0.141423 0.100557
0.000000 0.029796 1.389793 0.419828 0.615721 0.666808 0.250000 0.125412
0.138478 -0.055374 1.381251 0.419828 0.615721 0.666808 0.187739 0.164305
-0.215188 0.296180 1.008333 -0.244087 0.725035 0.644007 0.358577 0.100557
0.000000 0.029796 1.389793 -0.244087 0.725035 0.644007 0.250000 0.125412
0.000000 0.368625 1.008333 -0.244087 0.725035 0.644007 0.250000 0.067016
-0.244617 0.336686 0.813981 -0.295054 0.955127 0.025981 0.600000 0.875199
0.000000 0.419338 0.553510 -0.295054 0.955127 0.025981 0.500000 0.751596
-0.248821 0.342473 0.553510 -0.295054 0.955127 0.025981 0.600000 0.751596
-0.215188 0.296180 1.008333 -0.289319 0.927405 0.237094 0.600000 1.000000
0.000000 0.412999 0.813981 -0.289319 0.927405 0.237094 0.500000 0.875199
-0.244617 0.336686 0.813981 -0.289319 0.927405 0.237094 0.600000 0.875199
0.000000 0.412999 0.813981 0.289320 0.927405 0.237094 0.500000 0.875199
0.215188 0.296180 1.008333 0.289320 0.927405 0.237094 0.400000 1.000000
0.244617 0.336686 0.813981 0.289320 0.927405 0.237094 0.400000 0.875199
0.000000 0.419338 0.553510 0.295054 0.955127 0.025981 0.500000 0.751596
0.244617 0.336686 0.813981 0.295054 0.955127 0.025981 0.400000 0.875199
0.248821 0.342473 0.553510 0.295054 0.955127 0.025981 0.400000 0.751596
0.000000 -0.730484 1.577072 0.336209 0.198098 0.920718 0.250000 0.250000
0.262496 -0.158267 1.358103 0.336209 0.198098 0.920718 0.131510 0.211500
0.138478 -0.055374 1.381251 0.336209 0.198098 0.920718 0.187739 0.164305
0.348181 -0.113131 1.008333 0.945614 -0.257793 0.198386 0.074320 0.307082
0.262496 -0.158267 1.358103 0.945614 -0.257793 0.198386 0.131510 0.211500
0.224062 -0.315113 1.337483 0.945614 -0.257793 0.198386 0.149259 0.282733
0.215188 0.296180 1.008333 0.668077 0.496268 0.554429 0.141424 0.100557
0.262496 -0.158267 1.358103 0.668077 0.496268 0.554429 0.131510 0.211500
0.350583 0.113911 1.008333 0.668077 0.496268 0.554429 0.075972 0.193455
0.244617 0.336686 0.813981 0.817203 0.575764 0.025981 0.400000 0.875199
0.398814 0.129582 0.553510 0.817203 0.575764 0.025981 0.300000 0.751596
0.248821 0.342473 0.553510 0.817203 0.575764 0.025981 0.400000 0.751596
0.215188 0.296180 1.008333 0.792610 0.561743 0.237094 0.400000 1.000000
0.392785 0.127624 0.813981 0.792610 0.561743 0.237094 0.300000 0.875199
0.244617 0.336686 0.813981 0.792610 0.561743 0.237094 0.400000 0.875199
0.392785 0.127624 0.813981 0.971420 0.011425 0.237094 0.300000 0.875199
0.348181 -0.113131 1.008333 0.971420 0.011425 0.237094 0.200000 1.000000
0.395799 -0.128603 0.813981 0.971420 0.011425 0.237094 0.200000 0.875199
0.398814 0.129582 0.553510 0.999557 0.014537 0.025981 0.300000 0.751596
0.395799 -0.128603 0.813981 0.999557 0.014537 0.025981 0.200000 0.875199
0.402601 -0.130813 0.553510 0.999557 0.014537 0.025981 0.200000 0.751596
0.000000 -0.730484 1.577072 0.902785 -0.407303 0.138146 0.250000 0.250000
0.162231 -0.462559 1.306827 0.902785 -0.407303 0.138146 0.176769 0.350793
0.224062 -0.315113 1.337483 0.902785 -0.407303 0.138146 0.149259 0.282733
-0.000000 -0.366099 1.008333 0.068072 -0.937925 -0.340093 0.250000 0.434721
0.162231 -0.462559 1.306827 0.068072 -0.937925 -0.340093 0.176769 0.350793
-0.000000 -0.475641 1.310432 0.068072 -0.937925 -0.340093 0.250000 0.355925
0.348181 -0.113131 1.008333 0.803634 -0.570983 -0.167783 0.074320 0.307082
0.162231 -0.462559 1.306827 0.803634 -0.570983 -0.167783 0.176769 0.350793
0.216672 -0.298224 1.008333 0.803634 -0.570983 -0.167783 0.142445 0.398037
0.395799 -0.128603 0.813981 0.800113 -0.599286 0.025981 0.200000 0.875199
0.246481 -0.339251 0.553510 0.800113 -0.599286 0.025981 0.100000 0.751596
0.402601 -0.130813 0.553510 0.800113 -0.599286 0.025981 0.200000 0.751596
0.348181 -0.113131 1.008333 0.779179 -0.580229 0.237094 0.200000 1.000000
0.242754 -0.334123 0.813981 0.779179 -0.580229 0.237094 0.100000 0.875199
0.395799 -0.128603 0.813981 0.779179 -0.580229 0.237094 0.200000 0.875199
0.242754 -0.334123 0.813981 0.311051 -0.920344 0.237094 0.100000 0.875199
-0.000000 -0.366099 1.008333 0.311051 -0.920344 0.237094 0.000000 1.000000
-0.000000 -0.416167 0.813981 0.311051 -0.920344 0.237094 0.000000 0.875199
0.246481 -0.339251 0.553510 0.322706 -0.946143 0.025981 0.100000 0.751596
-0.000000 -0.416167 0.813981 0.322706 -0.946143 0.025981 0.000000 0.875199
-0.000000 -0.423320 0.553510 0.322706 -0.946143 0.025981 0.000000 0.751596
0.000000 -0.730484 1.577072 -0.902785 -0.407303 0.138146 0.250000 0.250000
-0.224062 -0.315113 1.337483 -0.902785 -0.407303 0.138146 0.350741 0.282733
-0.162231 -0.462559 1.306827 -0.902785 -0.407303 0.138146 0.323231 0.350793
-0.348181 -0.113131 1.008333 -0.803634 -0.570983 -0.167783 0.425680 0.307082
-0.216672 -0.298224 1.008333 -0.803634 -0.570983 -0.167783 0.357555 0.398037
-0.162231 -0.462559 1.306827 -0.803634 -0.570983 -0.167783 0.323231 0.350793
-0.000000 -0.366099 1.008333 -0.068072 -0.937925 -0.340093 0.250000 0.434721
-0.000000 -0.475641 1.310432 -0.068072 -0.937925 -0.340093 0.250000 0.355925
-0.162231 -0.462559 1.306827 -0.068072 -0.937925 -0.340093 0.323231 0.350793
-0.000000 -0.416167 0.813981 -0.320094 -0.947101 0.023226 1.000000 0.875199
-0.242755 -0.334123 0.813981 -0.320094 -0.947101 0.023226 0.900000 0.875199
-0.246481 -0.339251 0.553510 -0.320094 -0.947101 0.023226 0.900000 0.751596
-0.000000 -0.366099 1.008333 -0.292177 -0.932687 0.211489 1.000000 1.000000
-0.216672 -0.298224 1.008333 -0.292177 -0.932687 0.211489 0.900000 1.000000
-0.242755 -0.334123 0.813981 -0.292177 -0.932687 0.211489 0.900000 0.875199
-0.242755 -0.334123 0.813981 -0.796750 -0.566093 0.211489 0.900000 0.875199
-0.216672 -0.298224 1.008333 -0.796750 -0.566093 0.211489 0.900000 1.000000
-0.348181 -0.113131 1.008333 -0.796750 -0.566093 0.211489 0.800000 1.000000
-0.246481 -0.339251 0.553510 -0.801832 -0.597098 0.023227 0.900000 0.751596
-0.242755 -0.334123 0.813981 -0.801832 -0.597098 0.023227 0.900000 0.875199
-0.395799 -0.128603 0.813981 -0.801832 -0.597098 0.023227 0.800000 0.875199
0.000000 -0.730484 1.577072 -0.336209 0.198098 0.920717 0.250000 0.250000
-0.138478 -0.055374 1.381251 -0.336209 0.198098 0.920717 0.312261 0.164305
-0.262496 -0.158267 1.358103 -0.336209 0.198098 0.920717 0.368490 0.211500
-0.215188 0.296180 1.008333 -0.668077 0.496268 0.554429 0.358577 0.100557
-0.350583 0.113911 1.008333 -0.668077 0.496268 0.554429 0.424028 0.193455
-0.262496 -0.158267 1.358103 -0.668077 0.496268 0.554429 0.368490 0.211500
-0.348181 -0.113131 1.008333 -0.945614 -0.257793 0.198386 0.425680 0.307082
-0.224062 -0.315113 1.337483 -0.945614 -0.257793 0.198386 0.350741 0.282733
-0.262496 -0.158267 1.358103 -0.945614 -0.257793 0.198386 0.368490 0.211500
-0.395799 -0.128603 0.813981 -0.999661 0.011757 0.023227 0.800000 0.875199
-0.392785 0.127624 0.813981 -0.999661 0.011757 0.023227 0.700000 0.875199
-0.398814 0.129583 0.553510 -0.999661 0.011757 0.023227 0.700000 0.751596
-0.348181 -0.113131 1.008333 -0.977326 -0.010339 0.211489 0.800000 1.000000
-0.350583 0.113911 1.008333 -0.977326 -0.010339 0.211489 0.700000 1.000000
-0.392785 0.127624 0.813981 -0.977326 -0.010339 0.211489 0.700000 0.875199
-0.392785 0.127624 0.813981 -0.784596 0.582822 0.211489 0.700000 0.875199
-0.350583 0.113911 1.008333 -0.784596 0.582822 0.211489 0.700000 1.000000
-0.215188 0.296180 1.008333 -0.784596 0.582822 0.211489 0.600000 1.000000
-0.398814 0.129583 0.553510 -0.815653 0.578074 0.023227 0.700000 0.751596
-0.392785 0.127624 0.813981 -0.815653 0.578074 0.023227 0.700000 0.875199
-0.244617 0.336686 0.813981 -0.815653 0.578074 0.023227 0.600000 0.875199
0.000000 -0.730484 1.577072 0.202703 0.234214 0.950818 0.250000 0.250000
0.138478 -0.055374 1.381251 0.202703 0.234214 0.950818 0.187739 0.164305
0.000000 0.029796 1.389793 0.202703 0.234214 0.950818 0.250000 0.125412
0.215188 0.296180 1.008333 0.244087 0.725035 0.644007 0.141423 0.100557
0.000000 0.368625 1.008333 0.244087 0.725035 0.644007 0.250000 0.067016
0.000000 0.029796 1.389793 0.244087 0.725035 0.644007 0.250000 0.125412
-0.215188 0.296180 1.008333 -0.419827 0.615721 0.666808 0.358577 0.100557
-0.138478 -0.055374 1.381251 -0.419827 0.615721 0.666808 0.312261 0.164305
0.000000 0.029796 1.389793 -0.419827 0.615721 0.666808 0.250000 0.125412
-0.244617 0.336686 0.813981 -0.297731 0.954367 0.023227 0.600000 0.875199
0.000000 0.412999 0.813981 -0.297731 0.954367 0.023227 0.500000 0.875199
0.000000 0.419338 0.553510 -0.297731 0.954367 0.023227 0.500000 0.751596
-0.215188 0.296180 1.008333 -0.311843 0.926297 0.211489 0.600000 1.000000
0.000000 0.368625 1.008333 -0.311843 0.926297 0.211489 0.500000 1.000000
0.000000 0.412999 0.813981 -0.311843 0.926297 0.211489 0.500000 0.875199
0.000000 0.412999 0.813981 0.311844 0.926297 0.211489 0.500000 0.875199
0.000000 0.368625 1.008333 0.311844 0.926297 0.211489 0.500000 1.000000
0.215188 0.296180 1.008333 0.311844 0.926297 0.211489 0.400000 1.000000
0.000000 0.419338 0.553510 0.297731 0.954367 0.023227 0.500000 0.751596
0.000000 0.412999 0.813981 0.297731 0.954367 0.023227 0.500000 0.875199
0.244617 0.336686 0.813981 0.297731 0.954367 0.023227 0.400000 0.875199
0.000000 -0.730484 1.577072 0.889965 -0.266706 0.369907 0.250000 0.250000
0.224062 -0.315113 1.337483 0.889965 -0.266706 0.369907 0.149259 0.282733
0.262496 -0.158267 1.358103 0.889965 -0.266706 0.369907 0.131510 0.211500
0.348181 -0.113131 1.008333 0.971534 -0.010278 0.236676 0.074320 0.307082
0.350583 0.113911 1.008333 0.971534 -0.010278 0.236676 0.075972 0.193455
0.262496 -0.158267 1.358103 0.971534 -0.010278 0.236676 0.131510 0.211500
0.215188 0.296180 1.008333 0.564318 0.539618 0.624786 0.141424 0.100557
0.138478 -0.055374 1.381251 0.564318 0.539618 0.624786 0.187739 0.164305
0.262496 -0.158267 1.358103 0.564318 0.539618 0.624786 0.131510 0.211500
0.244617 0.336686 0.813981 0.815653 0.578074 0.023227 0.400000 0.875199
0.392785 0.127624 0.813981 0.815653 0.578074 0.023227 0.300000 0.875199
0.398814 0.129582 0.553510 0.815653 0.578074 0.023227 0.300000 0.751596
0.215188 0.296180 1.008333 0.784596 0.582823 0.211489 0.400000 1.000000
0.350583 0.113911 1.008333 0.784596 0.582823 0.211489 0.300000 1.000000
0.392785 0.127624 0.813981 0.784596 0.582823 0.211489 0.300000 0.875199
0.392785 0.127624 0.813981 0.977326 -0.010340 0.211489 0.300000 0.875199
0.350583 0.113911 1.008333 0.977326 -0.010340 0.211489 0.300000 1.000000
0.348181 -0.113131 1.008333 0.977326 -0.010340 0.211489 0.200000 1.000000
0.398814 0.129582 0.553510 0.999661 0.011757 0.023227 0.300000 0.751596
0.392785 0.127624 0.813981 0.999661 0.011757 0.023227 0.300000 0.875199
0.395799 -0.128603 0.813981 0.999661 0.011757 0.023227 0.200000 0.875199
0.000000 -0.730484 1.577072 0.042898 -0.722251 -0.690299 0.250000 0.250000
-0.000000 -0.475641 1.310432 0.042898 -0.722251 -0.690299 0.250000 0.355925
0.162231 -0.462559 1.306827 0.042898 -0.722251 -0.690299 0.176769 0.350793
-0.000000 -0.366099 1.008333 0.270457 -0.863356 -0.425993 0.250000 0.434721
0.216672 -0.298224 1.008333 0.270457 -0.863356 -0.425993 0.142445 0.398037
0.162231 -0.462559 1.306827 0.270457 -0.863356 -0.425993 0.176769 0.350793
0.348181 -0.113131 1.008333 0.910545 -0.401941 0.096706 0.074320 0.307082
0.224062 -0.315113 1.337483 0.910545 -0.401941 0.096706 0.149259 0.282733
0.162231 -0.462559 1.306827 0.910545 -0.401941 0.096706 0.176769 0.350793
0.395799 -0.128603 0.813981 0.801832 -0.597098 0.023227 0.200000 0.875199
0.242754 -0.334123 0.813981 0.801832 -0.597098 0.023227 0.100000 0.875199
0.246481 -0.339251 0.553510 0.801832 -0.597098 0.023227 0.100000 0.751596
0.348181 -0.113131 1.008333 0.796750 -0.566093 0.211489 0.200000 1.000000
0.216672 -0.298224 1.008333 0.796750 -0.566093 0.211489 0.100000 1.000000
0.242754 -0.334123 0.813981 0.796750 -0.566093 0.211489 0.100000 0.875199
0.242754 -0.334123 0.813981 0.292177 -0.932687 0.211489 0.100000 0.875199
0.216672 -0.298224 1.008333 0.292177 -0.932687 0.211489 0.100000 1.000000
-0.000000 -0.366099 1.008333 0.292177 -0.932687 0.211489 0.000000 1.000000
0.246481 -0.339251 0.553510 0.320094 -0.947101 0.023227 0.100000 0.751596
0.242754 -0.334123 0.813981 0.320094 -0.947101 0.023227 0.100000 0.875199
-0.000000 -0.416167 0.813981 0.320094 -0.947101 0.023227 0.000000 0.875199
-0.000000 -0.423320 0.553510 0.000000 0.000000 1.000000 1.000000 0.751596
-0.608480 -0.837500 0.553510 0.000000 0.000000 1.000000 0.900000 0.751596
-0.000000 -1.045038 0.553510 0.000000 0.000000 1.000000 1.000000 0.751596
0.248821 0.342473 0.553510 0.000000 -0.000000 1.000000 0.400000 0.751596
0.000000 1.035208 0.553510 0.000000 -0.000000 1.000000 0.500000 0.751596
0.000000 0.419338 0.553510 0.000000 -0.000000 1.000000 0.500000 0.751596
0.402601 -0.130813 0.553510 0.000000 0.000000 1.000000 0.200000 0.751596
0.608480 -0.837500 0.553510 0.000000 0.000000 1.000000 0.100000 0.751596
0.993890 -0.322935 0.553510 0.000000 0.000000 1.000000 0.200000 0.751596
-0.402601 -0.130813 0.553510 -0.000000 0.000000 1.000000 0.800000 0.751596
-0.246481 -0.339251 0.553510 -0.000000 0.000000 1.000000 0.900000 0.751596
-0.984541 0.319897 0.553510 0.000000 -0.000000 1.000000 0.700000 0.751596
-0.993890 -0.322934 0.553510 0.000000 -0.000000 1.000000 0.800000 0.751596
0.984541 0.319897 0.553510 -0.000000 0.000000 1.000000 0.300000 0.751596
0.614258 0.845453 0.553510 -0.000000 0.000000 1.000000 0.400000 0.751596
-0.000000 -0.423320 0.553510 -0.000000 0.000000 1.000000 0.000000 0.751596
0.246481 -0.339251 0.553510 -0.000000 0.000000 1.000000 0.100000 0.751596
-0.248821 0.342473 0.553510 0.000000 0.000000 1.000000 0.600000 0.751596
-0.398814 0.129583 0.553510 0.000000 0.000000 1.000000 0.700000 0.751596
0.398814 0.129582 0.553510 -0.000000 -0.000000 1.000000 0.300000 0.751596
-0.614258 0.845453 0.553510 -0.000000 -0.000000 1.000000 0.600000 0.751596
-0.000000 -1.045038 0.553510 -0.000000 0.000000 1.000000 0.000000 0.751596
0.000000 -0.641261 1.526466 0.029744 0.713973 0.699541 0.250000 0.250000
-0.000000 -0.446765 1.327958 0.029744 0.713973 0.699541 0.250000 0.355925
-0.141286 -0.433134 1.320053 0.029744 0.713973 0.699541 0.323231 0.350793
-0.316549 -0.100175 1.003487 0.918330 0.380833 -0.107869 0.425680 0.307082
-0.193510 -0.304405 1.329932 0.918330 0.380833 -0.107869 0.350741 0.282733
-0.141286 -0.433134 1.320053 0.918330 0.380833 -0.107869 0.323231 0.350793
-0.000000 -0.330309 1.011248 0.273235 0.868244 0.414119 0.250000 0.434721
-0.196366 -0.268175 1.010541 0.273235 0.868244 0.414119 0.357555 0.398037
-0.141286 -0.433134 1.320053 0.273235 0.868244 0.414119 0.323231 0.350793
0.000000 -0.381461 0.809183 0.311434 0.950198 -0.011546 1.000000 0.875199
-0.000000 -0.384953 0.521781 0.311434 0.950198 -0.011546 1.000000 0.751596
-0.225875 -0.310890 0.524283 0.311434 0.950198 -0.011546 0.900000 0.751596
-0.000000 -0.330309 1.011248 0.311327 0.921243 -0.233208 1.000000 1.000000
0.000000 -0.381461 0.809183 0.311327 0.921243 -0.233208 1.000000 0.875199
-0.222489 -0.306230 0.809348 0.311327 0.921243 -0.233208 0.900000 0.875199
-0.222489 -0.306230 0.809348 0.778974 0.580039 -0.238232 0.900000 0.875199
-0.362791 -0.117878 0.809183 0.778974 0.580039 -0.238232 0.800000 0.875199
-0.316549 -0.100175 1.003487 0.778974 0.580039 -0.238232 0.800000 1.000000
-0.225875 -0.310890 0.524283 0.807454 0.589818 -0.011546 0.900000 0.751596
-0.366112 -0.118957 0.521781 0.807454 0.589818 -0.011546 0.800000 0.751596
-0.362791 -0.117878 0.809183 0.807454 0.589818 -0.011546 0.800000 0.875199
0.000000 -0.641261 1.526466 0.873435 0.262449 -0.410161 0.250000 0.250000
-0.193510 -0.304405 1.329932 0.873435 0.262449 -0.410161 0.350741 0.282733
-0.233544 -0.162992 1.335166 0.873435 0.262449 -0.410161 0.368490 0.211500
-0.196878 0.270444 0.993335 0.567028 -0.539113 -0.622765 0.358577 0.100557
-0.124905 -0.069617 1.353248 0.567028 -0.539113 -0.622765 0.312261 0.164305
-0.233544 -0.162992 1.335166 0.567028 -0.539113 -0.622765 0.368490 0.211500
-0.316549 -0.100175 1.003487 0.970357 0.006622 -0.241585 0.425680 0.307082
-0.319723 0.102008 0.996281 0.970357 0.006622 -0.241585 0.424028 0.193455
-0.233544 -0.162992 1.335166 0.970357 0.006622 -0.241585 0.368490 0.211500
-0.362791 -0.117878 0.809183 0.999930 -0.002564 -0.011546 0.800000 0.875199
-0.366112 -0.118957 0.521781 0.999930 -0.002564 -0.011546 0.800000 0.751596
-0.365474 0.118750 0.524283 0.999930 -0.002564 -0.011546 0.700000 0.751596
-0.316549 -0.100175 1.003487 0.973000 -0.011420 -0.230521 0.800000 1.000000
-0.362791 -0.117878 0.809183 0.973000 -0.011420 -0.230521 0.800000 0.875199
-0.359995 0.116970 0.809348 0.973000 -0.011420 -0.230521 0.700000 0.875199
-0.359995 0.116970 0.809348 0.793157 -0.562163 -0.234255 0.700000 0.875199
-0.224217 0.308608 0.809183 0.793157 -0.562163 -0.234255 0.600000 0.875199
-0.196878 0.270444 0.993335 0.793157 -0.562163 -0.234255 0.600000 1.000000
-0.365474 0.118750 0.524283 0.810467 -0.585670 -0.011546 0.700000 0.751596
-0.226270 0.311433 0.521781 0.810467 -0.585670 -0.011546 0.600000 0.751596
-0.224217 0.308608 0.809183 0.810467 -0.585670 -0.011546 0.600000 0.875199
0.000000 -0.641261 1.526466 0.204150 -0.242763 -0.948361 0.250000 0.250000
-0.124905 -0.069617 1.353248 0.204150 -0.242763 -0.948361 0.312261 0.164305
0.000000 0.010399 1.359653 0.204150 -0.242763 -0.948361 0.250000 0.125412
0.196878 0.270444 0.993335 -0.426879 -0.613152 -0.664695 0.141423 0.100557
0.124906 -0.069617 1.353248 -0.426879 -0.613152 -0.664695 0.187739 0.164305
0.000000 0.010399 1.359653 -0.426879 -0.613152 -0.664695 0.250000 0.125412
-0.196878 0.270444 0.993335 0.242068 -0.725023 -0.644783 0.358577 0.100557
0.000000 0.336824 0.992606 0.242068 -0.725023 -0.644783 0.250000 0.067016
0.000000 0.010399 1.359653 0.242068 -0.725023 -0.644783 0.250000 0.125412
-0.224217 0.308608 0.809183 0.306558 -0.951782 -0.011546 0.600000 0.875199
-0.226270 0.311433 0.521781 0.306558 -0.951782 -0.011546 0.600000 0.751596
0.000001 0.384282 0.524282 0.306558 -0.951782 -0.011546 0.500000 0.751596
-0.196878 0.270444 0.993335 0.289478 -0.927823 -0.235261 0.600000 1.000000
-0.224217 0.308608 0.809183 0.289478 -0.927823 -0.235261 0.600000 0.875199
0.000000 0.378521 0.809348 0.289478 -0.927823 -0.235261 0.500000 0.875199
0.000000 0.378521 0.809348 -0.289476 -0.927822 -0.235263 0.500000 0.875199
0.224216 0.308609 0.809183 -0.289476 -0.927822 -0.235263 0.400000 0.875199
0.196878 0.270444 0.993335 -0.289476 -0.927822 -0.235263 0.400000 1.000000
0.000001 0.384282 0.524282 -0.306559 -0.951782 -0.011545 0.500000 0.751596
0.226270 0.311433 0.521781 -0.306559 -0.951782 -0.011545 0.400000 0.751596
0.224216 0.308609 0.809183 -0.306559 -0.951782 -0.011545 0.400000 0.875199
0.000000 -0.641261 1.526466 -0.330910 -0.206698 -0.920747 0.250000 0.250000
0.124906 -0.069617 1.353248 -0.330910 -0.206698 -0.920747 0.187739 0.164305
0.233544 -0.162992 1.335166 -0.330910 -0.206698 -0.920747 0.131510 0.211500
0.316549 -0.100175 1.003487 -0.943892 0.274037 -0.184316 0.074320 0.307082
0.193510 -0.304405 1.329932 -0.943892 0.274037 -0.184316 0.149259 0.282733
0.233544 -0.162992 1.335166 -0.943892 0.274037 -0.184316 0.131510 0.211500
0.196878 0.270444 0.993335 -0.666306 -0.495696 -0.557065 0.141424 0.100557
0.319723 0.102008 0.996280 -0.666306 -0.495696 -0.557065 0.075972 0.193455
0.233544 -0.162992 1.335166 -0.666306 -0.495696 -0.557065 0.131510 0.211500
0.224216 0.308609 0.809183 -0.810468 -0.585669 -0.011547 0.400000 0.875199
0.226270 0.311433 0.521781 -0.810468 -0.585669 -0.011547 0.400000 0.751596
0.365473 0.118749 0.524283 -0.810468 -0.585669 -0.011547 0.300000 0.751596
0.196878 0.270444 0.993335 -0.793156 -0.562164 -0.234254 0.400000 1.000000
0.224216 0.308609 0.809183 -0.793156 -0.562164 -0.234254 0.400000 0.875199
0.359995 0.116969 0.809348 -0.793156 -0.562164 -0.234254 0.300000 0.875199
0.359995 0.116969 0.809348 -0.973001 -0.011419 -0.230520 0.300000 0.875199
0.362790 -0.117878 0.809183 -0.973001 -0.011419 -0.230520 0.200000 0.875199
0.316549 -0.100175 1.003487 -0.973001 -0.011419 -0.230520 0.200000 1.000000
0.365473 0.118749 0.524283 -0.999930 -0.002564 -0.011546 0.300000 0.751596
0.366112 -0.118957 0.521781 -0.999930 -0.002564 -0.011546 0.200000 0.751596
0.362790 -0.117878 0.809183 -0.999930 -0.002564 -0.011546 0.200000 0.875199
0.000000 -0.641261 1.526466 -0.895776 0.380979 -0.228999 0.250000 0.250000
0.193510 -0.304405 1.329932 -0.895776 0.380979 -0.228999 0.149259 0.282733
0.141286 -0.433134 1.320053 -0.895776 0.380979 -0.228999 0.176769 0.350793
-0.000000 -0.330309 1.011248 -0.071062 0.936187 0.344244 0.250000 0.434721
-0.000000 -0.446765 1.327958 -0.071062 0.936187 0.344244 0.250000 0.355925
0.141286 -0.433134 1.320053 -0.071062 0.936187 0.344244 0.176769 0.350793
0.316549 -0.100175 1.003487 -0.798704 0.578345 0.166101 0.074320 0.307082
0.196366 -0.268175 1.010541 -0.798704 0.578345 0.166101 0.142445 0.398037
0.141286 -0.433134 1.320053 -0.798704 0.578345 0.166101 0.176769 0.350793
0.362790 -0.117878 0.809183 -0.807454 0.589817 -0.011546 0.200000 0.875199
0.366112 -0.118957 0.521781 -0.807454 0.589817 -0.011546 0.200000 0.751596
0.225875 -0.310891 0.524282 -0.807454 0.589817 -0.011546 0.100000 0.751596
0.316549 -0.100175 1.003487 -0.778973 0.580040 -0.238232 0.200000 1.000000
0.362790 -0.117878 0.809183 -0.778973 0.580040 -0.238232 0.200000 0.875199
0.222489 -0.306230 0.809348 -0.778973 0.580040 -0.238232 0.100000 0.875199
0.222489 -0.306230 0.809348 -0.311328 0.921243 -0.233209 0.100000 0.875199
0.000000 -0.381461 0.809183 -0.311328 0.921243 -0.233209 0.000000 0.875199
-0.000000 -0.330309 1.011248 -0.311328 0.921243 -0.233209 0.000000 1.000000
0.225875 -0.310891 0.524282 -0.311432 0.950198 -0.011545 0.100000 0.751596
-0.000000 -0.384953 0.521781 -0.311432 0.950198 -0.011545 0.000000 0.751596
0.000000 -0.381461 0.809183 -0.311432 0.950198 -0.011545 0.000000 0.875199
0.000000 -0.641261 1.526466 0.895776 0.380979 -0.229000 0.250000 0.250000
-0.141286 -0.433134 1.320053 0.895776 0.380979 -0.229000 0.323231 0.350793
-0.193510 -0.304405 1.329932 0.895776 0.380979 -0.229000 0.350741 0.282733
-0.316549 -0.100175 1.003487 0.798704 0.578345 0.166101 0.425680 0.307082
-0.141286 -0.433134 1.320053 0.798704 0.578345 0.166101 0.323231 0.350793
-0.196366 -0.268175 1.010541 0.798704 0.578345 0.166101 0.357555 0.398037
-0.000000 -0.330309 1.011248 0.071062 0.936187 0.344244 0.250000 0.434721
-0.141286 -0.433134 1.320053 0.071062 0.936187 0.344244 0.323231 0.350793
-0.000000 -0.446765 1.327958 0.071062 0.936187 0.344244 0.250000 0.355925
0.000000 -0.381461 0.809183 0.320242 0.947140 -0.019287 1.000000 0.875199
-0.225875 -0.310890 0.524283 0.320242 0.947140 -0.019287 0.900000 0.751596
-0.222489 -0.306230 0.809348 0.320242 0.947140 -0.019287 0.900000 0.875199
-0.000000 -0.330309 1.011248 0.295360 0.931008 -0.214448 1.000000 1.000000
-0.222489 -0.306230 0.809348 0.295360 0.931008 -0.214448 0.900000 0.875199
-0.196366 -0.268175 1.010541 0.295360 0.931008 -0.214448 0.900000 1.000000
-0.222489 -0.306230 0.809348 0.799290 0.562962 -0.210263 0.900000 0.875199
-0.316549 -0.100175 1.003487 0.799290 0.562962 -0.210263 0.800000 1.000000
-0.196366 -0.268175 1.010541 0.799290 0.562962 -0.210263 0.900000 1.000000
-0.225875 -0.310890 0.524283 0.801823 0.597251 -0.019287 0.900000 0.751596
-0.362791 -0.117878 0.809183 0.801823 0.597251 -0.019287 0.800000 0.875199
-0.222489 -0.306230 0.809348 0.801823 0.597251 -0.019287 0.900000 0.875199
0.000000 -0.641261 1.526466 0.330912 -0.206697 -0.920746 0.250000 0.250000
-0.233544 -0.162992 1.335166 0.330912 -0.206697 -0.920746 0.368490 0.211500
-0.124905 -0.069617 1.353248 0.330912 -0.206697 -0.920746 0.312261 0.164305
-0.196878 0.270444 0.993335 0.666306 -0.495696 -0.557065 0.358577 0.100557
-0.233544 -0.162992 1.335166 0.666306 -0.495696 -0.557065 0.368490 0.211500
-0.319723 0.102008 0.996281 0.666306 -0.495696 -0.557065 0.424028 0.193455
-0.316549 -0.100175 1.003487 0.943892 0.274036 -0.184317 0.425680 0.307082
-0.233544 -0.162992 1.335166 0.943892 0.274036 -0.184317 0.368490 0.211500
-0.193510 -0.304405 1.329932 0.943892 0.274036 -0.184317 0.350741 0.282733
-0.362791 -0.117878 0.809183 0.999743 -0.011886 -0.019287 0.800000 0.875199
-0.365474 0.118750 0.524283 0.999743 -0.011886 -0.019287 0.700000 0.751596
-0.359995 0.116970 0.809348 0.999743 -0.011886 -0.019287 0.700000 0.875199
-0.316549 -0.100175 1.003487 0.977670 0.007863 -0.209998 0.800000 1.000000
-0.359995 0.116970 0.809348 0.977670 0.007863 -0.209998 0.700000 0.875199
-0.319723 0.102008 0.996281 0.977670 0.007863 -0.209998 0.700000 1.000000
-0.359995 0.116970 0.809348 0.787105 -0.577830 -0.215821 0.700000 0.875199
-0.196878 0.270444 0.993335 0.787105 -0.577830 -0.215821 0.600000 1.000000
-0.319723 0.102008 0.996281 0.787105 -0.577830 -0.215821 0.700000 1.000000
-0.365474 0.118750 0.524283 0.815796 -0.578018 -0.019287 0.700000 0.751596
-0.224217 0.308608 0.809183 0.815796 -0.578018 -0.019287 0.600000 0.875199
-0.359995 0.116970 0.809348 0.815796 -0.578018 -0.019287 0.700000 0.875199
0.000000 -0.641261 1.526466 -0.204151 -0.242763 -0.948361 0.250000 0.250000
0.000000 0.010399 1.359653 -0.204151 -0.242763 -0.948361 0.250000 0.125412
0.124906 -0.069617 1.353248 -0.204151 -0.242763 -0.948361 0.187739 0.164305
0.196878 0.270444 0.993335 -0.242068 -0.725023 -0.644783 0.141423 0.100557
0.000000 0.010399 1.359653 -0.242068 -0.725023 -0.644783 0.250000 0.125412
0.000000 0.336824 0.992606 -0.242068 -0.725023 -0.644783 0.250000 0.067016
-0.196878 0.270444 0.993335 0.426878 -0.613152 -0.664695 0.358577 0.100557
0.000000 0.010399 1.359653 0.426878 -0.613152 -0.664695 0.250000 0.125412
-0.124905 -0.069617 1.353248 0.426878 -0.613152 -0.664695 0.312261 0.164305
-0.224217 0.308608 0.809183 0.297633 -0.954485 -0.019288 0.600000 0.875199
0.000001 0.384282 0.524282 0.297633 -0.954485 -0.019288 0.500000 0.751596
0.000000 0.378521 0.809348 0.297633 -0.954485 -0.019288 0.500000 0.875199
-0.196878 0.270444 0.993335 0.311614 -0.926528 -0.210814 0.600000 1.000000
0.000000 0.378521 0.809348 0.311614 -0.926528 -0.210814 0.500000 0.875199
0.000000 0.336824 0.992606 0.311614 -0.926528 -0.210814 0.500000 1.000000
0.000000 0.378521 0.809348 -0.311614 -0.926528 -0.210814 0.500000 0.875199
0.196878 0.270444 0.993335 -0.311614 -0.926528 -0.210814 0.400000 1.000000
0.000000 0.336824 0.992606 -0.311614 -0.926528 -0.210814 0.500000 1.000000
0.000001 0.384282 0.524282 -0.297632 -0.954486 -0.019289 0.500000 0.751596
0.224216 0.308609 0.809183 -0.297632 -0.954486 -0.019289 0.400000 0.875199
0.000000 0.378521 0.809348 -0.297632 -0.954486 -0.019289 0.500000 0.875199
0.000000 -0.641261 1.526466 -0.873435 0.262450 -0.410159 0.250000 0.250000
0.233544 -0.162992 1.335166 -0.873435 0.262450 -0.410159 0.131510 0.211500
0.193510 -0.304405 1.329932 -0.873435 0.262450 -0.410159 0.149259 0.282733
0.316549 -0.100175 1.003487 -0.970357 0.006622 -0.241585 0.074320 0.307082
0.233544 -0.162992 1.335166 -0.970357 0.006622 -0.241585 0.131510 0.211500
0.319723 0.102008 0.996280 -0.970357 0.006622 -0.241585 0.075972 0.193455
0.196878 0.270444 0.993335 -0.567027 -0.539113 -0.622766 0.141424 0.100557
0.233544 -0.162992 1.335166 -0.567027 -0.539113 -0.622766 0.131510 0.211500
0.124906 -0.069617 1.353248 -0.567027 -0.539113 -0.622766 0.187739 0.164305
0.224216 0.308609 0.809183 -0.815795 -0.578019 -0.019286 0.400000 0.875199
0.365473 0.118749 0.524283 -0.815795 -0.578019 -0.019286 0.300000 0.751596
0.359995 0.116969 0.809348 -0.815795 -0.578019 -0.019286 0.300000 0.875199
0.196878 0.270444 0.993335 -0.787105 -0.577830 -0.215821 0.400000 1.000000
0.359995 0.116969 0.809348 -0.787105 -0.577830 -0.215821 0.300000 0.875199
0.319723 0.102008 0.996280 -0.787105 -0.577830 -0.215821 0.300000 1.000000
0.359995 0.116969 0.809348 -0.977670 0.007863 -0.209998 0.300000 0.875199
0.316549 -0.100175 1.003487 -0.977670 0.007863 -0.209998 0.200000 1.000000
0.319723 0.102008 0.996280 -0.977670 0.007863 -0.209998 0.300000 1.000000
0.365473 0.118749 0.524283 -0.999743 -0.011886 -0.019287 0.300000 0.751596
0.362790 -0.117878 0.809183 -0.999743 -0.011886 -0.019287 0.200000 0.875199
0.359995 0.116969 0.809348 -0.999743 -0.011886 -0.019287 0.300000 0.875199
0.000000 -0.641261 1.526466 -0.029744 0.713973 0.699541 0.250000 0.250000
0.141286 -0.433134 1.320053 -0.029744 0.713973 0.699541 0.176769 0.350793
-0.000000 -0.446765 1.327958 -0.029744 0.713973 0.699541 0.250000 0.355925
-0.000000 -0.330309 1.011248 -0.273235 0.868244 0.414119 0.250000 0.434721
0.141286 -0.433134 1.320053 -0.273235 0.868244 0.414119 0.176769 0.350793
0.196366 -0.268175 1.010541 -0.273235 0.868244 0.414119 0.142445 0.398037
0.316549 -0.100175 1.003487 -0.918330 0.380833 -0.107869 0.074320 0.307082
0.141286 -0.433134 1.320053 -0.918330 0.380833 -0.107869 0.176769 0.350793
0.193510 -0.304405 1.329932 -0.918330 0.380833 -0.107869 0.149259 0.282733
0.362790 -0.117878 0.809183 -0.801822 0.597251 -0.019288 0.200000 0.875199
0.225875 -0.310891 0.524282 -0.801822 0.597251 -0.019288 0.100000 0.751596
0.222489 -0.306230 0.809348 -0.801822 0.597251 -0.019288 0.100000 0.875199
0.316549 -0.100175 1.003487 -0.799289 0.562962 -0.210263 0.200000 1.000000
0.222489 -0.306230 0.809348 -0.799289 0.562962 -0.210263 0.100000 0.875199
0.196366 -0.268175 1.010541 -0.799289 0.562962 -0.210263 0.100000 1.000000
0.222489 -0.306230 0.809348 -0.295359 0.931008 -0.214447 0.100000 0.875199
-0.000000 -0.330309 1.011248 -0.295359 0.931008 -0.214447 0.000000 1.000000
0.196366 -0.268175 1.010541 -0.295359 0.931008 -0.214447 0.100000 1.000000
0.225875 -0.310891 0.524282 -0.320243 0.947139 -0.019288 0.100000 0.751596
0.000000 -0.381461 0.809183 -0.320243 0.947139 -0.019288 0.000000 0.875199
0.222489 -0.306230 0.809348 -0.320243 0.947139 -0.019288 0.100000 0.875199
-0.000000 -0.384953 0.521781 0.000656 0.001925 -0.999998 1.000000 0.751596
-0.000000 -1.045038 0.520510 0.000656 0.001925 -0.999998 1.000000 0.751596
-0.608480 -0.837500 0.520510 0.000656 0.001925 -0.999998 0.900000 0.751596
0.226270 0.311433 0.521781 -0.012919 -0.005794 -0.999900 0.400000 0.751596
0.000001 0.384282 0.524282 -0.012919 -0.005794 -0.999900 0.500000 0.751596
0.000000 1.035208 0.520510 -0.012919 -0.005794 -0.999900 0.500000 0.751596
0.366112 -0.118957 0.521781 -0.001628 0.001219 -0.999998 0.200000 0.751596
0.993890 -0.322935 0.520510 -0.001628 0.001219 -0.999998 0.200000 0.751596
0.608480 -0.837500 0.520510 -0.001628 0.001219 -0.999998 0.100000 0.751596
-0.366112 -0.118957 0.521781 0.013862 -0.002908 -0.999900 0.800000 0.751596
-0.225875 -0.310890 0.524283 0.013862 -0.002908 -0.999900 0.900000 0.751596
-0.608480 -0.837500 0.520510 0.013862 -0.002908 -0.999900 0.900000 0.751596
-0.366112 -0.118957 0.521781 0.002033 -0.000029 -0.999998 0.800000 0.751596
-0.993890 -0.322934 0.520510 0.002033 -0.000029 -0.999998 0.800000 0.751596
-0.984541 0.319897 0.520510 0.002033 -0.000029 -0.999998 0.700000 0.751596
0.226270 0.311433 0.521781 -0.001662 -0.001171 -0.999998 0.400000 0.751596
0.614258 0.845453 0.520510 -0.001662 -0.001171 -0.999998 0.400000 0.751596
0.984541 0.319897 0.520510 -0.001662 -0.001171 -0.999998 0.300000 0.751596
-0.000000 -0.384953 0.521781 0.007046 0.012281 -0.999900 0.000000 0.751596
0.225875 -0.310891 0.524282 0.007046 0.012281 -0.999900 0.100000 0.751596
0.608480 -0.837500 0.520510 0.007046 0.012281 -0.999900 0.100000 0.751596
-0.226270 0.311433 0.521781 0.001518 -0.014082 -0.999900 0.600000 0.751596
-0.365474 0.118750 0.524283 0.001518 -0.014082 -0.999900 0.700000 0.751596
-0.984541 0.319897 0.520510 0.001518 -0.014082 -0.999900 0.700000 0.751596
0.366112 -0.118957 0.521781 -0.009507 0.010502 -0.999900 0.200000 0.751596
0.365473 0.118749 0.524283 -0.009507 0.010502 -0.999900 0.300000 0.751596
0.984541 0.319897 0.520510 -0.009507 0.010502 -0.999900 0.300000 0.751596
-0.226270 0.311433 0.521781 0.000600 -0.001943 -0.999998 0.600000 0.751596
-0.614258 0.845453 0.520510 0.000600 -0.001943 -0.999998 0.600000 0.751596
0.000000 1.035208 0.520510 0.000600 -0.001943 -0.999998 0.500000 0.751596
-0.000000 -0.384953 0.521781 -0.007049 0.012285 -0.999900 1.000000 0.751596
-0.608480 -0.837500 0.520510 -0.007049 0.012285 -0.999900 0.900000 0.751596
-0.225875 -0.310890 0.524283 -0.007049 0.012285 -0.999900 0.900000 0.751596
0.226270 0.311433 0.521781 -0.000600 -0.001943 -0.999998 0.400000 0.751596
0.000000 1.035208 0.520510 -0.000600 -0.001943 -0.999998 0.500000 0.751596
0.614258 0.845453 0.520510 -0.000600 -0.001943 -0.999998 0.400000 0.751596
0.366112 -0.118957 0.521781 -0.013857 -0.002906 -0.999900 0.200000 0.751596
0.608480 -0.837500 0.520510 -0.013857 -0.002906 -0.999900 0.100000 0.751596
0.225875 -0.310891 0.524282 -0.013857 -0.002906 -0.999900 0.100000 0.751596
-0.366112 -0.118957 0.521781 0.001628 0.001219 -0.999998 0.800000 0.751596
-0.608480 -0.837500 0.520510 0.001628 0.001219 -0.999998 0.900000 0.751596
-0.993890 -0.322934 0.520510 0.001628 0.001219 -0.999998 0.800000 0.751596
-0.366112 -0.118957 0.521781 0.009505 0.010500 -0.999900 0.800000 0.751596
-0.984541 0.319897 0.520510 0.009505 0.010500 -0.999900 0.700000 0.751596
-0.365474 0.118750 0.524283 0.009505 0.010500 -0.999900 0.700000 0.751596
0.226270 0.311433 0.521781 -0.001518 -0.014084 -0.999900 0.400000 0.751596
0.984541 0.319897 0.520510 -0.001518 -0.014084 -0.999900 0.300000 0.751596
0.365473 0.118749 0.524283 -0.001518 -0.014084 -0.999900 0.300000 0.751596
-0.000000 -0.384953 0.521781 -0.000656 0.001925 -0.999998 0.000000 0.751596
0.608480 -0.837500 0.520510 -0.000656 0.001925 -0.999998 0.100000 0.751596
-0.000000 -1.045038 0.520510 -0.000656 0.001925 -0.999998 0.000000 0.751596
-0.226270 0.311433 0.521781 0.001662 -0.001171 -0.999998 0.600000 0.751596
-0.984541 0.319897 0.520510 0.001662 -0.001171 -0.999998 0.700000 0.751596
-0.614258 0.845453 0.520510 0.001662 -0.001171 -0.999998 0.600000 0.751596
0.366112 -0.118957 0.521781 -0.002033 -0.000029 -0.999998 0.200000 0.751596
0.984541 0.319897 0.520510 -0.002033 -0.000029 -0.999998 0.300000 0.751596
0.993890 -0.322935 0.520510 -0.002033 -0.000029 -0.999998 0.200000 0.751596
-0.226270 0.311433 0.521781 0.012919 -0.005794 -0.999900 0.600000 0.751596
0.000000 1.035208 0.520510 0.012919 -0.005794 -0.999900 0.500000 0.751596
0.000001 0.384282 0.524282 0.012919 -0.005794 -0.999900 0.500000 0.751596
0.608480 -0.837500 0.553510 0.800383 -0.599488 0.000000 0.100000 0.751596
0.993890 -0.322935 0.520510 0.800383 -0.599488 0.000000 0.200000 0.751596
0.993890 -0.322935 0.553510 0.800383 -0.599488 0.000000 0.200000 0.751596
-0.000000 -1.045038 0.553510 0.322815 -0.946462 0.000000 0.000000 0.751596
0.608480 -0.837500 0.520510 0.322815 -0.946462 0.000000 0.100000 0.751596
0.608480 -0.837500 0.553510 0.322815 -0.946462 0.000000 0.100000 0.751596
0.000000 1.035208 0.553510 -0.295154 0.955450 0.000000 0.500000 0.751596
-0.614258 0.845453 0.520510 -0.295154 0.955450 0.000000 0.600000 0.751596
-0.614258 0.845453 0.553510 -0.295154 0.955450 0.000000 0.600000 0.751596
0.614258 0.845453 0.553510 0.295154 0.955450 0.000000 0.400000 0.751596
0.000000 1.035208 0.520510 0.295154 0.955450 0.000000 0.500000 0.751596
0.000000 1.035208 0.553510 0.295154 0.955450 0.000000 0.500000 0.751596
0.984541 0.319897 0.553510 0.817479 0.575958 0.000000 0.300000 0.751596
0.614258 0.845453 0.520510 0.817479 0.575958 0.000000 0.400000 0.751596
0.614258 0.845453 0.553510 0.817479 0.575958 0.000000 0.400000 0.751596
0.984541 0.319897 0.553510 0.999894 0.014542 0.000000 0.300000 0.751596
0.993890 -0.322935 0.520510 0.999894 0.014542 0.000000 0.200000 0.751596
0.984541 0.319897 0.520510 0.999894 0.014542 0.000000 0.300000 0.751596
-0.608480 -0.837500 0.553510 -0.322815 -0.946462 -0.000000 0.900000 0.751596
-0.000000 -1.045038 0.520510 -0.322815 -0.946462 -0.000000 1.000000 0.751596
-0.000000 -1.045038 0.553510 -0.322815 -0.946462 -0.000000 1.000000 0.751596
-0.608480 -0.837500 0.553510 -0.800384 -0.599488 0.000000 0.900000 0.751596
-0.993890 -0.322934 0.520510 -0.800384 -0.599488 0.000000 0.800000 0.751596
-0.608480 -0.837500 0.520510 -0.800384 -0.599488 0.000000 0.900000 0.751596
-0.984541 0.319897 0.553510 -0.999894 0.014542 0.000000 0.700000 0.751596
-0.993890 -0.322934 0.520510 -0.999894 0.014542 0.000000 0.800000 0.751596
-0.993890 -0.322934 0.553510 -0.999894 0.014542 0.000000 0.800000 0.751596
-0.614258 0.845453 0.553510 -0.817479 0.575958 0.000000 0.600000 0.751596
-0.984541 0.319897 0.520510 -0.817479 0.575958 0.000000 0.700000 0.751596
-0.984541 0.319897 0.553510 -0.817479 0.575958 0.000000 0.700000 0.751596
0.608480 -0.837500 0.520510 0.800383 -0.599488 0.000000 0.100000 0.751596
-0.000000 -1.045038 0.520510 0.322815 -0.946462 0.000000 0.000000 0.751596
0.000000 1.035208 0.520510 -0.295154 0.955450 0.000000 0.500000 0.751596
0.614258 0.845453 0.520510 0.295154 0.955450 -0.000000 0.400000 0.751596
0.984541 0.319897 0.520510 0.817479 0.575958 -0.000000 0.300000 0.751596
0.993890 -0.322935 0.553510 0.999894 0.014542 -0.000000 0.200000 0.751596
-0.608480 -0.837500 0.520510 -0.322815 -0.946462 0.000000 0.900000 0.751596
-0.993890 -0.322934 0.553510 -0.800384 -0.599488 0.000000 0.800000 0.751596
-0.984541 0.319897 0.520510 -0.999894 0.014542 0.000000 0.700000 0.751596
-0.614258 0.845453 0.520510 -0.817479 0.575958 0.000000 0.600000 0.751596
3 0 1 2
3 3 4 5
3 6 7 8
3 9 10 11
3 12 13 14
3 15 16 17
3 18 19 20
3 21 22 23
3 24 25 26
3 27 28 29
3 30 31 32
3 33 34 35
3 36 37 38
3 39 40 41
3 42 43 44
3 45 46 47
3 48 49 50
3 51 52 53
3 54 55 56
3 57 58 59
3 60 61 62
3 63 64 65
3 66 67 68
3 69 70 71
3 72 73 74
3 75 76 77
3 78 79 80
3 81 82 83
3 84 85 86
3 87 88 89
3 90 91 92
3 93 94 95
3 96 97 98
3 99 100 101
3 102 103 104
3 105 106 107
3 108 109 110
3 111 112 113
3 114 115 116
3 117 118 119
3 120 121 122
3 123 124 125
3 126 127 128
3 129 130 131
3 132 133 134
3 135 136 137
3 138 139 140
3 141 142 143
3 144 145 146
3 147 148 149
3 150 151 152
3 153 154 155
3 156 157 158
3 159 160 161
3 162 163 164
3 165 166 167
3 168 169 170
3 171 172 173
3 174 175 176
3 177 178 179
3 180 181 182
3 183 184 185
3 186 187 188
3 189 190 191
3 192 193 194
3 195 196 197
3 198 199 200
3 201 202 203
3 204 205 206
3 207 208 209
3 210 211 212
3 213 214 215
3 216 217 218
3 219 211 220
3 219 221 222
3 213 223 224
3 225 217 226
3 227 221 228
3 216 223 229
3 227 214 230
3 210 220 211
3 213 224 214
3 216 226 217
3 219 222 211
3 219 228 221
3 213 229 223
3 225 231 217
3 227 230 221
3 216 218 223
3 227 215 214
3 232 233 234
3 235 236 237
3 238 239 240
3 241 242 243
3 244 245 246
3 247 248 249
3 250 251 252
3 253 254 255
3 256 257 258
3 259 260 261
3 262 263 264
3 265 266 267
3 268 269 270
3 271 272 273
3 274 275 276
3 277 278 279
3 280 281 282
3 283 284 285
3 286 287 288
3 289 290 291
3 292 293 294
3 295 296 297
3 298 299 300
3 301 302 303
3 304 305 306
3 307 308 309
3 310 311 312
3 313 314 315
3 316 317 318
3 319 320 321
3 322 323 324
3 325 326 327
3 328 329 330
3 331 332 333
3 334 335 336
3 337 338 339
3 340 341 342
3 343 344 345
3 346 347 348
3 349 350 351
3 352 353 354
3 355 356 357
3 358 359 360
3 361 362 363
3 364 365 366
3 367 368 369
3 370 371 372
3 373 374 375
3 376 377 378
3 379 380 381
3 382 383 384
3 385 386 387
3 388 389 390
3 391 392 393
3 394 395 396
3 397 398 399
3 400 401 402
3 403 404 405
3 406 407 408
3 409 410 411
3 412 413 414
3 415 416 417
3 418 419 420
3 421 422 423
3 424 425 426
3 427 428 429
3 430 431 432
3 433 434 435
3 436 437 438
3 439 440 441
3 442 443 444
3 445 446 447
3 448 449 450
3 451 452 453
3 454 455 456
3 457 458 459
3 460 461 462
3 463 464 465
3 466 467 468
3 469 470 471
3 472 473 474
3 475 476 477
3 478 479 480
3 481 482 483
3 484 485 486
3 487 488 489
3 490 491 492
3 493 494 495
3 496 497 498
3 499 500 501
3 502 503 504
3 505 506 507
3 508 509 510
3 511 512 513
3 514 515 516
3 517 518 519
3 520 521 522
3 523 524 525
3 526 527 528
3 529 530 531
3 502 532 503
3 505 533 506
3 508 534 509
3 511 535 512
3 514 536 515
3 517 537 518
3 520 538 521
3 523 539 524
3 526 540 527
3 529 541 530
