ply
format ascii 1.0
comment Created by Blender 2.91.2 - www.blender.org
element vertex 32
property float x
property float y
property float z
property float nx
property float ny
property float nz
property float s
property float t
property uchar red
property uchar green
property uchar blue
property uchar alpha
element face 12
property list uchar uint vertex_indices
end_header
0.000000 0.391929 0.592203 -0.310340 0.950626 0.000001 0.501001 0.248999 208 153 116 255
-0.227415 0.317688 0.631031 -0.310340 0.950626 0.000001 0.998999 0.001001 177 131 99 255
0.000000 0.391929 0.620479 -0.310340 0.950626 0.000001 0.501001 0.001001 208 153 116 255
0.000000 0.391929 0.592203 0.310340 0.950626 0.000000 0.248999 0.251001 208 153 116 255
0.227415 0.317688 0.631031 0.310340 0.950626 0.000000 0.001001 0.748999 207 152 116 255
0.227415 0.317688 0.568651 0.310340 0.950626 0.000000 0.248999 0.748999 208 153 116 255
0.088155 0.371061 0.446084 0.536695 0.843777 -0.000000 0.501001 0.751001 0 0 0 255
0.139259 0.338556 0.513207 0.536695 0.843777 -0.000000 0.748999 0.998999 0 0 0 255
0.139259 0.338556 0.436103 0.536695 0.843777 -0.000000 0.748999 0.751001 0 0 0 255
-0.087259 0.370246 0.446084 -0.504084 0.863655 0.000000 0.998999 0.501001 1 0 0 255
-0.140156 0.339372 0.513207 -0.504084 0.863655 0.000000 0.751001 0.748999 11 4 5 255
-0.087259 0.370246 0.504836 -0.504084 0.863655 0.000000 0.998999 0.748999 1 0 0 255
0.000000 0.381643 0.263338 -0.274163 0.961683 0.000000 0.251001 0.498999 208 153 116 255
-0.094629 0.354665 0.267540 -0.274163 0.961683 0.000000 0.748999 0.251001 208 153 116 255
0.000000 0.381643 0.275449 -0.274163 0.961683 0.000000 0.251001 0.251001 208 153 116 255
0.000000 0.381643 0.263338 0.274163 0.961683 -0.000000 0.498999 0.501001 208 153 116 255
0.094629 0.354665 0.267540 0.274163 0.961683 -0.000000 0.251001 0.998999 208 153 116 255
0.094629 0.354665 0.240823 0.274163 0.961683 -0.000000 0.498999 0.998999 207 153 116 255
0.000000 0.391929 0.592203 -0.310340 0.950626 0.000000 0.501001 0.248999 208 153 116 255
-0.227415 0.317688 0.568651 -0.310340 0.950626 0.000000 0.998999 0.248999 205 151 115 255
-0.227415 0.317688 0.631031 -0.310340 0.950626 0.000000 0.998999 0.001001 177 131 99 255
0.000000 0.391929 0.592203 0.310340 0.950626 0.000001 0.248999 0.251001 208 153 116 255
0.000000 0.391929 0.620479 0.310340 0.950626 0.000001 0.001001 0.251001 208 153 116 255
0.227415 0.317688 0.631031 0.310340 0.950626 0.000001 0.001001 0.748999 207 152 116 255
0.088155 0.371061 0.446084 0.536694 0.843777 0.000000 0.501001 0.751001 0 0 0 255
0.088155 0.371061 0.504836 0.536694 0.843777 0.000000 0.501001 0.998999 5 2 2 255
0.139259 0.338556 0.513207 0.536694 0.843777 0.000000 0.748999 0.998999 0 0 0 255
-0.087259 0.370246 0.446084 -0.504085 0.863654 0.000000 0.998999 0.501001 1 0 0 255
-0.140156 0.339372 0.436103 -0.504085 0.863654 0.000000 0.751001 0.501001 19 6 6 255
-0.140156 0.339372 0.513207 -0.504085 0.863654 0.000000 0.751001 0.748999 11 4 5 255
-0.094629 0.354665 0.240823 -0.274163 0.961683 0.000000 0.748999 0.498999 208 153 116 255
0.000000 0.381643 0.275449 0.274163 0.961683 0.000000 0.251001 0.501001 208 153 116 255
3 0 1 2
3 3 4 5
3 6 7 8
3 9 10 11
3 12 13 14
3 15 16 17
3 18 19 20
3 21 22 23
3 24 25 26
3 27 28 29
3 12 30 13
3 15 31 16
