ply
format ascii 1.0
comment Created by Blender 2.91.2 - www.blender.org
element vertex 200
property float x
property float y
property float z
property float nx
property float ny
property float nz
property float s
property float t
property uchar red
property uchar green
property uchar blue
property uchar alpha
element face 76
property list uchar uint vertex_indices
end_header
0.183631 0.093232 0.190121 0.999888 0.000000 0.014985 0.625000 0.000000 189 188 187 255
0.187605 0.014269 -0.075000 0.999888 0.000000 0.014985 0.500000 0.250000 189 188 187 255
0.187605 0.093232 -0.075000 0.999888 0.000000 0.014985 0.500000 0.000000 189 188 187 255
-0.104493 0.047069 0.111926 0.428300 -0.903071 -0.031969 0.500000 0.437500 189 188 187 255
-0.183631 0.006768 0.190121 0.428300 -0.903071 -0.031969 0.625000 0.500000 189 188 187 255
-0.187605 0.014269 -0.075000 0.428300 -0.903071 -0.031969 0.500000 0.500000 189 188 187 255
-0.187605 0.014269 -0.075000 -0.999888 0.000000 0.014985 0.500000 0.500000 189 188 187 255
-0.183631 0.093232 0.190121 -0.999888 0.000000 0.014985 0.625000 0.750000 189 188 187 255
-0.187605 0.093232 -0.075000 -0.999888 0.000000 0.014985 0.500000 0.750000 189 188 187 255
0.104493 0.109812 0.111926 0.202176 0.979345 0.003030 0.500000 0.937500 189 188 187 255
0.183631 0.093232 0.190121 0.202176 0.979345 0.003030 0.625000 1.000000 189 188 187 255
0.187605 0.093232 -0.075000 0.202176 0.979345 0.003030 0.500000 1.000000 189 188 187 255
-0.150628 0.014269 -0.214781 -0.728436 0.000000 -0.685114 0.375000 0.500000 189 188 187 255
-0.048266 0.093232 -0.323616 -0.728436 0.000000 -0.685114 0.312500 0.750000 189 188 187 255
-0.048266 0.006369 -0.323616 -0.728436 0.000000 -0.685114 0.312500 0.500000 189 188 187 255
0.093802 0.006768 0.173616 -0.168860 -0.012705 0.985558 0.812500 0.500000 189 188 187 255
0.183631 0.093232 0.190121 -0.168860 -0.012705 0.985558 0.875000 0.750000 189 188 187 255
0.087297 0.093232 0.173616 -0.168860 -0.012705 0.985558 0.812500 0.750000 189 188 187 255
0.000000 0.015925 0.173616 -0.000000 0.000000 1.000000 0.750000 0.500000 189 188 187 255
-0.087297 0.093232 0.173616 -0.000000 0.000000 1.000000 0.687500 0.750000 189 188 187 255
-0.093802 0.006768 0.173616 -0.000000 0.000000 1.000000 0.687500 0.500000 189 188 187 255
0.000000 0.008025 -0.323616 -0.000000 0.000000 -1.000000 0.250000 0.500000 189 188 187 255
0.048266 0.093232 -0.323616 -0.000000 0.000000 -1.000000 0.187500 0.750000 189 188 187 255
0.048266 0.006369 -0.323616 -0.000000 0.000000 -1.000000 0.187500 0.500000 189 188 187 255
-0.087297 0.093232 0.173616 -0.046588 0.961352 0.271352 0.625000 0.812500 189 188 187 255
0.000000 0.113604 0.116429 -0.046588 0.961352 0.271352 0.500000 0.875000 189 188 187 255
-0.104493 0.109812 0.111926 -0.046588 0.961352 0.271352 0.500000 0.812500 189 188 187 255
0.093802 0.006768 0.173616 -0.096311 -0.825568 -0.556023 0.625000 0.312500 189 188 187 255
0.000000 0.056226 0.116429 -0.096311 -0.825568 -0.556023 0.500000 0.375000 189 188 187 255
0.104493 0.047069 0.111926 -0.096311 -0.825568 -0.556023 0.500000 0.312500 189 188 187 255
-0.183631 0.093232 0.190121 -0.202176 0.979345 0.003030 0.625000 0.750000 189 188 187 255
-0.104493 0.109812 0.111926 -0.202176 0.979345 0.003030 0.500000 0.812500 189 188 187 255
-0.187605 0.093232 -0.075000 -0.202176 0.979345 0.003030 0.500000 0.750000 189 188 187 255
-0.093802 0.006768 0.173616 0.180717 -0.000000 0.983535 0.687500 0.500000 189 188 187 255
-0.183631 0.093232 0.190121 0.180717 -0.000000 0.983535 0.625000 0.750000 189 188 187 255
-0.183631 0.006768 0.190121 0.180717 -0.000000 0.983535 0.625000 0.500000 189 188 187 255
-0.048266 0.093232 -0.323616 0.000000 -0.000000 -1.000000 0.312500 0.750000 189 188 187 255
0.000000 0.102389 -0.323616 0.000000 -0.000000 -1.000000 0.250000 0.750000 189 188 187 255
0.000000 0.056226 0.116429 0.096311 -0.825568 -0.556023 0.500000 0.375000 189 188 187 255
-0.093802 0.006768 0.173616 0.096311 -0.825568 -0.556023 0.625000 0.437500 189 188 187 255
-0.104493 0.047069 0.111926 0.096311 -0.825568 -0.556023 0.500000 0.437500 189 188 187 255
0.183631 0.006768 0.190121 -0.428300 -0.903071 -0.031969 0.625000 0.250000 189 188 187 255
0.104493 0.047069 0.111926 -0.428300 -0.903071 -0.031969 0.500000 0.312500 189 188 187 255
0.187605 0.014269 -0.075000 -0.428300 -0.903071 -0.031969 0.500000 0.250000 189 188 187 255
0.150628 0.014269 -0.214781 0.728436 0.000000 -0.685114 0.125000 0.500000 189 188 187 255
0.048266 0.093232 -0.323616 0.728436 0.000000 -0.685114 0.187500 0.750000 189 188 187 255
0.150628 0.093232 -0.214781 0.728436 0.000000 -0.685114 0.125000 0.750000 189 188 187 255
0.087297 0.093232 0.173616 0.000000 0.000000 1.000000 0.812500 0.750000 189 188 187 255
0.000000 0.102389 0.173616 0.000000 0.000000 1.000000 0.750000 0.750000 189 188 187 255
0.000000 0.113604 0.116429 0.046588 0.961352 0.271352 0.500000 0.875000 189 188 187 255
0.087297 0.093232 0.173616 0.046588 0.961352 0.271352 0.625000 0.937500 189 188 187 255
0.104493 0.109812 0.111926 0.046588 0.961352 0.271352 0.500000 0.937500 189 188 187 255
0.000000 0.113604 0.116429 0.037933 0.999280 0.000000 0.500000 0.875000 117 117 117 255
0.099914 0.109812 -0.132118 0.037933 0.999280 0.000000 0.437500 0.937500 117 117 117 255
0.000000 0.113604 -0.259747 0.037933 0.999280 0.000000 0.437500 0.875000 117 117 117 255
0.187605 0.014269 -0.075000 -0.396211 -0.914382 0.083197 0.500000 0.250000 189 188 187 255
0.099914 0.047069 -0.132118 -0.396211 -0.914382 0.083197 0.437500 0.312500 189 188 187 255
0.170327 0.014269 -0.157282 -0.396211 -0.914382 0.083197 0.437500 0.250000 189 188 187 255
0.000000 0.056226 0.116429 0.091268 -0.995826 0.000000 0.500000 0.375000 117 84 50 255
-0.099914 0.047069 -0.132118 0.091268 -0.995826 0.000000 0.437500 0.437500 117 84 50 255
0.000000 0.056226 -0.259747 0.091268 -0.995826 0.000000 0.437500 0.375000 117 84 50 255
-0.187605 0.093232 -0.075000 -0.213735 0.975860 -0.044881 0.500000 0.750000 189 188 187 255
-0.099914 0.109812 -0.132118 -0.213735 0.975860 -0.044881 0.437500 0.812500 189 188 187 255
-0.170327 0.093232 -0.157282 -0.213735 0.975860 -0.044881 0.437500 0.750000 189 188 187 255
0.099914 0.047069 -0.132118 -0.091268 -0.995826 0.000000 0.437500 0.312500 117 84 50 255
0.000000 0.056226 0.116429 -0.091268 -0.995826 0.000000 0.500000 0.375000 117 84 50 255
0.000000 0.056226 -0.259747 -0.091268 -0.995826 0.000000 0.437500 0.375000 117 84 50 255
-0.099914 0.109812 -0.132118 -0.037933 0.999280 0.000000 0.437500 0.812500 117 117 117 255
0.000000 0.113604 0.116429 -0.037933 0.999280 0.000000 0.500000 0.875000 117 117 117 255
0.000000 0.113604 -0.259747 -0.037933 0.999280 0.000000 0.437500 0.875000 117 117 117 255
0.099914 0.109812 -0.132118 0.213735 0.975860 -0.044881 0.437500 0.937500 189 188 187 255
0.187605 0.093232 -0.075000 0.213735 0.975860 -0.044881 0.500000 1.000000 189 188 187 255
0.170327 0.093232 -0.157282 0.213735 0.975860 -0.044881 0.437500 1.000000 189 188 187 255
-0.187605 0.014269 -0.075000 -0.978657 0.000000 -0.205501 0.500000 0.500000 189 188 187 255
-0.170327 0.093232 -0.157282 -0.978657 0.000000 -0.205501 0.437500 0.750000 189 188 187 255
-0.170327 0.014269 -0.157282 -0.978657 0.000000 -0.205501 0.437500 0.500000 189 188 187 255
-0.099914 0.047069 -0.132118 0.396211 -0.914382 0.083197 0.437500 0.437500 189 188 187 255
-0.187605 0.014269 -0.075000 0.396211 -0.914382 0.083197 0.500000 0.500000 189 188 187 255
-0.170327 0.014269 -0.157282 0.396211 -0.914382 0.083197 0.437500 0.500000 189 188 187 255
0.187605 0.093232 -0.075000 0.978657 0.000000 -0.205501 0.500000 0.000000 189 188 187 255
0.170327 0.014269 -0.157282 0.978657 0.000000 -0.205501 0.437500 0.250000 189 188 187 255
0.170327 0.093232 -0.157282 0.978657 0.000000 -0.205501 0.437500 0.000000 189 188 187 255
0.170327 0.093232 -0.157282 0.946022 0.000000 -0.324104 0.437500 0.000000 189 188 187 255
0.150628 0.014269 -0.214781 0.946022 0.000000 -0.324104 0.375000 0.250000 189 188 187 255
0.150628 0.093232 -0.214781 0.946022 0.000000 -0.324104 0.375000 0.000000 189 188 187 255
-0.099914 0.047069 -0.132118 0.197506 -0.946696 0.254475 0.437500 0.437500 189 188 187 255
-0.150628 0.014269 -0.214781 0.197506 -0.946696 0.254475 0.375000 0.500000 189 188 187 255
-0.048266 0.006369 -0.323616 0.197506 -0.946696 0.254475 0.375000 0.437500 189 188 187 255
-0.170327 0.014269 -0.157282 -0.946022 0.000000 -0.324104 0.437500 0.500000 189 188 187 255
-0.150628 0.093232 -0.214781 -0.946022 0.000000 -0.324104 0.375000 0.750000 189 188 187 255
-0.150628 0.014269 -0.214781 -0.946022 0.000000 -0.324104 0.375000 0.500000 189 188 187 255
0.099914 0.109812 -0.132118 0.127082 0.984664 -0.119524 0.437500 0.937500 189 188 187 255
0.150628 0.093232 -0.214781 0.127082 0.984664 -0.119524 0.375000 1.000000 189 188 187 255
0.048266 0.093232 -0.323616 0.127082 0.984664 -0.119524 0.375000 0.937500 189 188 187 255
-0.048266 0.093232 -0.323616 -0.183684 0.968173 -0.170006 0.375000 0.812500 189 188 187 255
0.000000 0.113604 -0.259747 -0.183684 0.968173 -0.170006 0.437500 0.875000 189 188 187 255
0.000000 0.102389 -0.323616 -0.183684 0.968173 -0.170006 0.375000 0.875000 189 188 187 255
0.048266 0.006369 -0.323616 -0.462006 -0.833930 0.301845 0.375000 0.312500 189 188 187 255
0.099914 0.047069 -0.132118 -0.462006 -0.833930 0.301845 0.437500 0.312500 189 188 187 255
0.000000 0.056226 -0.259747 -0.462006 -0.833930 0.301845 0.437500 0.375000 189 188 187 255
-0.150628 0.093232 -0.214781 -0.127082 0.984664 -0.119524 0.375000 0.750000 189 188 187 255
-0.099914 0.109812 -0.132118 -0.127082 0.984664 -0.119524 0.437500 0.812500 189 188 187 255
-0.048266 0.093232 -0.323616 -0.127082 0.984664 -0.119524 0.375000 0.812500 189 188 187 255
0.000000 0.008025 -0.323616 0.027380 -0.797899 0.602169 0.375000 0.375000 189 188 187 255
0.000000 0.056226 -0.259747 0.027380 -0.797899 0.602169 0.437500 0.375000 189 188 187 255
-0.048266 0.006369 -0.323616 0.027380 -0.797899 0.602169 0.375000 0.437500 189 188 187 255
0.150628 0.014269 -0.214781 -0.197506 -0.946696 0.254475 0.375000 0.250000 189 188 187 255
0.099914 0.047069 -0.132118 -0.197506 -0.946696 0.254475 0.437500 0.312500 189 188 187 255
0.048266 0.006369 -0.323616 -0.197506 -0.946696 0.254475 0.375000 0.312500 189 188 187 255
0.000000 0.113604 -0.259747 0.183684 0.968173 -0.170006 0.437500 0.875000 189 188 187 255
0.048266 0.093232 -0.323616 0.183684 0.968173 -0.170006 0.375000 0.937500 189 188 187 255
0.000000 0.102389 -0.323616 0.183684 0.968173 -0.170006 0.375000 0.875000 189 188 187 255
-0.048266 0.006369 -0.323616 0.462006 -0.833930 0.301845 0.375000 0.437500 189 188 187 255
0.000000 0.056226 -0.259747 0.462006 -0.833930 0.301845 0.437500 0.375000 189 188 187 255
-0.099914 0.047069 -0.132118 0.462006 -0.833930 0.301845 0.437500 0.437500 189 188 187 255
0.000000 0.056226 -0.259747 -0.027380 -0.797899 0.602169 0.437500 0.375000 189 188 187 255
0.000000 0.008025 -0.323616 -0.027380 -0.797899 0.602169 0.375000 0.375000 189 188 187 255
0.048266 0.006369 -0.323616 -0.027380 -0.797899 0.602169 0.375000 0.312500 189 188 187 255
0.183631 0.006768 0.190121 0.999888 -0.000000 0.014985 0.625000 0.250000 189 188 187 255
-0.104493 0.047069 0.111926 -0.097818 -0.840846 -0.532363 0.500000 0.437500 189 188 187 255
-0.093802 0.006768 0.173616 -0.097818 -0.840846 -0.532363 0.625000 0.437500 189 188 187 255
-0.183631 0.006768 0.190121 -0.097818 -0.840846 -0.532363 0.625000 0.500000 189 188 187 255
-0.183631 0.006768 0.190121 -0.999888 0.000000 0.014985 0.625000 0.500000 189 188 187 255
0.104493 0.109812 0.111926 -0.042531 0.967766 0.248234 0.500000 0.937500 189 188 187 255
0.087297 0.093232 0.173616 -0.042531 0.967766 0.248234 0.625000 0.937500 189 188 187 255
0.183631 0.093232 0.190121 -0.042531 0.967766 0.248234 0.625000 1.000000 189 188 187 255
-0.150628 0.093232 -0.214781 -0.728436 -0.000000 -0.685114 0.375000 0.750000 189 188 187 255
0.093802 0.006768 0.173616 -0.180717 0.000000 0.983535 0.812500 0.500000 189 188 187 255
0.183631 0.006768 0.190121 -0.180717 0.000000 0.983535 0.875000 0.500000 189 188 187 255
0.183631 0.093232 0.190121 -0.180717 0.000000 0.983535 0.875000 0.750000 189 188 187 255
-0.087297 0.093232 0.173616 -0.102395 0.976150 0.191434 0.625000 0.812500 189 188 187 255
0.000000 0.102389 0.173616 -0.102395 0.976150 0.191434 0.625000 0.875000 189 188 187 255
0.000000 0.113604 0.116429 -0.102395 0.976150 0.191434 0.500000 0.875000 189 188 187 255
0.093802 0.006768 0.173616 -0.079544 -0.814821 -0.574230 0.625000 0.312500 189 188 187 255
0.000000 0.015925 0.173616 -0.079544 -0.814821 -0.574230 0.625000 0.375000 189 188 187 255
0.000000 0.056226 0.116429 -0.079544 -0.814821 -0.574230 0.500000 0.375000 189 188 187 255
-0.183631 0.093232 0.190121 0.042531 0.967766 0.248234 0.625000 0.750000 189 188 187 255
-0.087297 0.093232 0.173616 0.042531 0.967766 0.248234 0.625000 0.812500 189 188 187 255
-0.104493 0.109812 0.111926 0.042531 0.967766 0.248234 0.500000 0.812500 189 188 187 255
-0.093802 0.006768 0.173616 0.168860 -0.012705 0.985558 0.687500 0.500000 189 188 187 255
-0.087297 0.093232 0.173616 0.168860 -0.012705 0.985558 0.687500 0.750000 189 188 187 255
-0.183631 0.093232 0.190121 0.168860 -0.012705 0.985558 0.625000 0.750000 189 188 187 255
-0.048266 0.006369 -0.323616 0.000000 0.000000 -1.000000 0.312500 0.500000 189 188 187 255
0.000000 0.056226 0.116429 0.079544 -0.814821 -0.574230 0.500000 0.375000 189 188 187 255
0.000000 0.015925 0.173616 0.079544 -0.814821 -0.574230 0.625000 0.375000 189 188 187 255
-0.093802 0.006768 0.173616 0.079544 -0.814821 -0.574230 0.625000 0.437500 189 188 187 255
0.183631 0.006768 0.190121 0.097818 -0.840846 -0.532363 0.625000 0.250000 189 188 187 255
0.093802 0.006768 0.173616 0.097818 -0.840846 -0.532363 0.625000 0.312500 189 188 187 255
0.104493 0.047069 0.111926 0.097818 -0.840846 -0.532363 0.500000 0.312500 189 188 187 255
0.048266 0.006369 -0.323616 0.728436 0.000000 -0.685114 0.187500 0.500000 189 188 187 255
0.093802 0.006768 0.173616 0.000000 0.000000 1.000000 0.812500 0.500000 189 188 187 255
0.000000 0.113604 0.116429 0.102395 0.976150 0.191434 0.500000 0.875000 189 188 187 255
0.000000 0.102389 0.173616 0.102395 0.976150 0.191434 0.625000 0.875000 189 188 187 255
0.087297 0.093232 0.173616 0.102395 0.976150 0.191434 0.625000 0.937500 189 188 187 255
0.000000 0.113604 0.116429 0.036243 0.999343 -0.000680 0.500000 0.875000 117 117 117 255
0.104493 0.109812 0.111926 0.036243 0.999343 -0.000680 0.500000 0.937500 117 117 117 255
0.099914 0.109812 -0.132118 0.036243 0.999343 -0.000680 0.437500 0.937500 117 117 117 255
0.187605 0.014269 -0.075000 -0.354125 -0.935174 0.006644 0.500000 0.250000 189 188 187 255
0.104493 0.047069 0.111926 -0.354125 -0.935174 0.006644 0.500000 0.312500 189 188 187 255
0.099914 0.047069 -0.132118 -0.354125 -0.935174 0.006644 0.437500 0.312500 189 188 187 255
0.000000 0.056226 0.116429 0.087229 -0.996187 0.001637 0.500000 0.375000 117 84 50 255
-0.104493 0.047069 0.111926 0.087229 -0.996187 0.001637 0.500000 0.437500 117 84 50 255
-0.099914 0.047069 -0.132118 0.087229 -0.996187 0.001637 0.437500 0.437500 117 84 50 255
-0.187605 0.093232 -0.075000 -0.187991 0.982165 -0.003527 0.500000 0.750000 189 188 187 255
-0.104493 0.109812 0.111926 -0.187991 0.982165 -0.003527 0.500000 0.812500 189 188 187 255
-0.099914 0.109812 -0.132118 -0.187991 0.982165 -0.003527 0.437500 0.812500 189 188 187 255
0.099914 0.047069 -0.132118 -0.087229 -0.996187 0.001637 0.437500 0.312500 117 84 50 255
0.104493 0.047069 0.111926 -0.087229 -0.996187 0.001637 0.500000 0.312500 117 84 50 255
0.000000 0.056226 0.116429 -0.087229 -0.996187 0.001637 0.500000 0.375000 117 84 50 255
-0.099914 0.109812 -0.132118 -0.036243 0.999343 -0.000680 0.437500 0.812500 117 117 117 255
-0.104493 0.109812 0.111926 -0.036243 0.999343 -0.000680 0.500000 0.812500 117 117 117 255
0.000000 0.113604 0.116429 -0.036243 0.999343 -0.000680 0.500000 0.875000 117 117 117 255
0.099914 0.109812 -0.132118 0.187991 0.982165 -0.003527 0.437500 0.937500 189 188 187 255
0.104493 0.109812 0.111926 0.187991 0.982165 -0.003527 0.500000 0.937500 189 188 187 255
0.187605 0.093232 -0.075000 0.187991 0.982165 -0.003527 0.500000 1.000000 189 188 187 255
-0.187605 0.093232 -0.075000 -0.978657 -0.000000 -0.205501 0.500000 0.750000 189 188 187 255
-0.099914 0.047069 -0.132118 0.354125 -0.935174 0.006644 0.437500 0.437500 189 188 187 255
-0.104493 0.047069 0.111926 0.354125 -0.935174 0.006644 0.500000 0.437500 189 188 187 255
-0.187605 0.014269 -0.075000 0.354125 -0.935174 0.006644 0.500000 0.500000 189 188 187 255
0.187605 0.014269 -0.075000 0.978657 0.000000 -0.205501 0.500000 0.250000 189 188 187 255
0.170327 0.014269 -0.157282 0.946022 0.000000 -0.324104 0.437500 0.250000 189 188 187 255
-0.099914 0.047069 -0.132118 0.380052 -0.915755 0.130204 0.437500 0.437500 189 188 187 255
-0.170327 0.014269 -0.157282 0.380052 -0.915755 0.130204 0.437500 0.500000 189 188 187 255
-0.150628 0.014269 -0.214781 0.380052 -0.915755 0.130204 0.375000 0.500000 189 188 187 255
-0.170327 0.093232 -0.157282 -0.946022 -0.000000 -0.324104 0.437500 0.750000 189 188 187 255
0.099914 0.109812 -0.132118 0.204799 0.976286 -0.070163 0.437500 0.937500 189 188 187 255
0.170327 0.093232 -0.157282 0.204799 0.976286 -0.070163 0.437500 1.000000 189 188 187 255
0.150628 0.093232 -0.214781 0.204799 0.976286 -0.070163 0.375000 1.000000 189 188 187 255
-0.048266 0.093232 -0.323616 -0.218770 0.965304 -0.142577 0.375000 0.812500 189 188 187 255
-0.099914 0.109812 -0.132118 -0.218770 0.965304 -0.142577 0.437500 0.812500 189 188 187 255
0.000000 0.113604 -0.259747 -0.218770 0.965304 -0.142577 0.437500 0.875000 189 188 187 255
-0.150628 0.093232 -0.214781 -0.204799 0.976286 -0.070163 0.375000 0.750000 189 188 187 255
-0.170327 0.093232 -0.157282 -0.204799 0.976286 -0.070163 0.437500 0.750000 189 188 187 255
-0.099914 0.109812 -0.132118 -0.204799 0.976286 -0.070163 0.437500 0.812500 189 188 187 255
0.150628 0.014269 -0.214781 -0.380052 -0.915755 0.130204 0.375000 0.250000 189 188 187 255
0.170327 0.014269 -0.157282 -0.380052 -0.915755 0.130204 0.437500 0.250000 189 188 187 255
0.099914 0.047069 -0.132118 -0.380052 -0.915755 0.130204 0.437500 0.312500 189 188 187 255
0.000000 0.113604 -0.259747 0.218770 0.965304 -0.142577 0.437500 0.875000 189 188 187 255
0.099914 0.109812 -0.132118 0.218770 0.965304 -0.142577 0.437500 0.937500 189 188 187 255
0.048266 0.093232 -0.323616 0.218770 0.965304 -0.142577 0.375000 0.937500 189 188 187 255
3 0 1 2
3 3 4 5
3 6 7 8
3 9 10 11
3 12 13 14
3 15 16 17
3 18 19 20
3 21 22 23
3 24 25 26
3 27 28 29
3 30 31 32
3 33 34 35
3 21 36 37
3 38 39 40
3 41 42 43
3 44 45 46
3 18 47 48
3 49 50 51
3 52 53 54
3 55 56 57
3 58 59 60
3 61 62 63
3 64 65 66
3 67 68 69
3 70 71 72
3 73 74 75
3 76 77 78
3 79 80 81
3 82 83 84
3 85 86 87
3 88 89 90
3 91 92 93
3 94 95 96
3 97 98 99
3 100 101 102
3 103 104 105
3 106 107 108
3 109 110 111
3 112 113 114
3 115 116 117
3 0 118 1
3 119 120 121
3 6 122 7
3 123 124 125
3 12 126 13
3 127 128 129
3 18 48 19
3 21 37 22
3 130 131 132
3 133 134 135
3 136 137 138
3 139 140 141
3 21 142 36
3 143 144 145
3 146 147 148
3 44 149 45
3 18 150 47
3 151 152 153
3 154 155 156
3 157 158 159
3 160 161 162
3 163 164 165
3 166 167 168
3 169 170 171
3 172 173 174
3 73 175 74
3 176 177 178
3 79 179 80
3 82 180 83
3 181 182 183
3 88 184 89
3 185 186 187
3 188 189 190
3 191 192 193
3 194 195 196
3 197 198 199
