ply
format ascii 1.0
comment Created by Blender 2.91.2 - www.blender.org
element vertex 164
property float x
property float y
property float z
property float nx
property float ny
property float nz
property float s
property float t
property uchar red
property uchar green
property uchar blue
property uchar alpha
element face 86
property list uchar uint vertex_indices
end_header
0.034167 0.034167 0.111621 0.954565 -0.000001 -0.298002 0.625000 0.000000 148 94 70 255
0.024297 0.017594 0.080008 0.954565 -0.000001 -0.298002 0.589597 0.035403 148 94 70 255
0.024297 0.024301 0.080008 0.954565 -0.000001 -0.298002 0.589597 0.000000 148 94 70 255
0.034167 -0.034167 0.111621 -0.000000 -0.943493 -0.331393 0.625000 0.250000 148 94 70 255
0.017590 -0.023063 0.080008 -0.000000 -0.943493 -0.331393 0.589598 0.285403 148 94 70 255
0.024297 -0.023063 0.080008 -0.000000 -0.943493 -0.331393 0.589598 0.250000 148 94 70 255
-0.034167 -0.034167 0.111621 -0.943528 0.000000 -0.331292 0.625000 0.500000 148 94 70 255
-0.023067 -0.016356 0.080008 -0.943528 0.000000 -0.331292 0.589597 0.535403 148 94 70 255
-0.023067 -0.023063 0.080008 -0.943528 0.000000 -0.331292 0.589598 0.500000 148 94 70 255
-0.034167 0.034167 0.111621 -0.000001 0.954598 -0.297898 0.625000 0.750000 148 94 70 255
-0.016359 0.024301 0.080008 -0.000001 0.954598 -0.297898 0.589597 0.785403 148 94 70 255
-0.023067 0.024301 0.080008 -0.000001 0.954598 -0.297898 0.589597 0.750000 148 94 70 255
-0.034167 -0.034167 -0.111621 -0.000000 0.000000 -1.000000 0.375000 0.500000 148 94 70 255
0.034167 0.034167 -0.111621 -0.000000 0.000000 -1.000000 0.125000 0.750000 148 94 70 255
0.034167 -0.034167 -0.111621 -0.000000 0.000000 -1.000000 0.125000 0.500000 148 94 70 255
0.034167 0.034167 0.111621 0.129521 0.000000 -0.991577 0.625000 0.000000 158 148 151 255
0.110344 -0.034167 0.121572 0.129521 0.000000 -0.991577 0.625000 0.250000 158 148 151 255
0.034167 -0.034167 0.111621 0.129521 0.000000 -0.991577 0.625000 0.250000 158 148 151 255
-0.110344 0.034167 0.121572 0.000000 1.000000 -0.000000 0.625000 0.750000 158 148 151 255
0.110344 0.034167 0.148566 0.000000 1.000000 -0.000000 0.625000 1.000000 158 148 151 255
0.110344 0.034167 0.121572 0.000000 1.000000 -0.000000 0.625000 1.000000 158 148 151 255
-0.034167 0.034167 0.111621 0.000000 1.000000 -0.000000 0.625000 0.750000 158 148 151 255
0.034167 0.034167 0.111621 0.000000 1.000000 -0.000000 0.625000 1.000000 158 148 151 255
0.034167 -0.034167 0.111621 0.000000 -1.000000 0.000000 0.625000 0.250000 158 148 151 255
-0.110344 -0.034167 0.121572 0.000000 -1.000000 0.000000 0.625000 0.500000 158 148 151 255
-0.034167 -0.034167 0.111621 0.000000 -1.000000 0.000000 0.625000 0.500000 158 148 151 255
-0.034167 -0.034167 0.111621 -0.129521 0.000000 -0.991577 0.625000 0.500000 158 148 151 255
-0.110344 0.034167 0.121572 -0.129521 0.000000 -0.991577 0.625000 0.750000 158 148 151 255
-0.034167 0.034167 0.111621 -0.129521 0.000000 -0.991577 0.625000 0.750000 158 148 151 255
-0.110344 -0.034167 0.148566 -0.000000 0.000000 1.000000 0.625000 0.500000 158 148 151 255
-0.055616 0.014403 0.148566 -0.000000 0.000000 1.000000 0.625000 0.750000 158 148 151 255
-0.110344 0.034167 0.148566 -0.000000 0.000000 1.000000 0.625000 0.750000 158 148 151 255
0.110344 -0.034167 0.121572 0.000000 -1.000000 0.000000 0.625000 0.250000 158 148 151 255
-0.110344 -0.034167 0.148566 0.000000 -1.000000 0.000000 0.625000 0.500000 158 148 151 255
-0.110344 -0.034167 0.121572 -1.000000 -0.000000 0.000000 0.625000 0.500000 158 148 151 255
-0.110344 0.034167 0.148566 -1.000000 -0.000000 0.000000 0.625000 0.750000 158 148 151 255
-0.110344 0.034167 0.121572 -1.000000 -0.000000 0.000000 0.625000 0.750000 158 148 151 255
0.110344 0.034167 0.121572 1.000000 -0.000000 0.000000 0.625000 0.000000 158 148 151 255
0.110344 -0.034167 0.148566 1.000000 -0.000000 0.000000 0.625000 0.250000 158 148 151 255
0.110344 -0.034167 0.121572 1.000000 -0.000000 0.000000 0.625000 0.250000 158 148 151 255
0.055616 0.014403 0.148566 0.999927 0.000000 -0.012060 0.625000 0.000000 216 223 223 255
0.061580 -0.017239 0.643015 0.999927 0.000000 -0.012060 0.625000 0.250000 216 223 223 255
0.055616 -0.014403 0.148566 0.999927 0.000000 -0.012060 0.625000 0.250000 216 223 223 255
0.110344 0.034167 0.148566 0.000000 0.000000 1.000000 0.625000 0.000000 158 148 151 255
0.055616 -0.014403 0.148566 0.000000 0.000000 1.000000 0.625000 0.250000 158 148 151 255
0.110344 -0.034167 0.148566 0.000000 0.000000 1.000000 0.625000 0.250000 158 148 151 255
-0.110344 0.034167 0.148566 0.000000 0.000001 1.000000 0.625000 0.750000 158 148 151 255
0.055616 0.014403 0.148566 0.000000 0.000001 1.000000 0.625000 1.000000 158 148 151 255
0.110344 0.034167 0.148566 0.000000 0.000001 1.000000 0.625000 1.000000 158 148 151 255
-0.110344 -0.034167 0.148566 0.000000 -0.000001 1.000000 0.625000 0.500000 158 148 151 255
0.055616 -0.014403 0.148566 0.000000 -0.000001 1.000000 0.625000 0.250000 158 148 151 255
-0.055616 -0.014403 0.148566 0.000000 -0.000001 1.000000 0.625000 0.500000 158 148 151 255
-0.061580 0.017239 0.643015 0.000000 0.993494 0.113884 0.625000 0.750000 216 223 223 255
0.006767 0.003379 0.763926 0.000000 0.993494 0.113884 0.625000 1.000000 215 222 222 255
0.061580 0.017239 0.643015 0.000000 0.993494 0.113884 0.625000 1.000000 216 223 223 255
0.055616 0.014403 0.148566 0.000000 0.999984 -0.005735 0.625000 1.000000 216 223 223 255
-0.061580 0.017239 0.643015 0.000000 0.999984 -0.005735 0.625000 0.750000 216 223 223 255
0.061580 0.017239 0.643015 0.000000 0.999984 -0.005735 0.625000 1.000000 216 223 223 255
-0.055616 -0.014403 0.148566 0.000000 -0.999984 -0.005735 0.625000 0.500000 216 223 223 255
0.061580 -0.017239 0.643015 0.000000 -0.999984 -0.005735 0.625000 0.250000 216 223 223 255
-0.061580 -0.017239 0.643015 0.000000 -0.999984 -0.005735 0.625000 0.500000 216 223 223 255
-0.055616 -0.014403 0.148566 -0.999927 0.000000 -0.012060 0.625000 0.500000 216 223 223 255
-0.061580 0.017239 0.643015 -0.999927 0.000000 -0.012060 0.625000 0.750000 216 223 223 255
-0.055616 0.014403 0.148566 -0.999927 0.000000 -0.012060 0.625000 0.750000 216 223 223 255
0.006767 -0.003379 0.763926 -0.000000 0.000000 1.000000 0.875000 0.500000 215 222 222 255
-0.006767 0.003379 0.763926 -0.000000 0.000000 1.000000 0.625000 0.750000 216 223 223 255
-0.006767 -0.003379 0.763926 -0.000000 0.000000 1.000000 0.625000 0.500000 216 223 223 255
-0.061580 -0.017239 0.643015 0.000000 -0.993494 0.113884 0.625000 0.500000 216 223 223 255
0.006767 -0.003379 0.763926 0.000000 -0.993494 0.113884 0.625000 0.250000 215 222 222 255
-0.006767 -0.003379 0.763926 0.000000 -0.993494 0.113884 0.625000 0.500000 216 223 223 255
-0.061580 0.017239 0.643015 -0.910784 0.000000 0.412883 0.625000 0.750000 216 223 223 255
-0.006767 -0.003379 0.763926 -0.910784 0.000000 0.412883 0.625000 0.500000 216 223 223 255
-0.006767 0.003379 0.763926 -0.910784 0.000000 0.412883 0.625000 0.750000 216 223 223 255
0.061580 -0.017239 0.643015 0.910784 -0.000000 0.412884 0.625000 0.250000 216 223 223 255
0.006767 0.003379 0.763926 0.910784 -0.000000 0.412884 0.625000 0.000000 215 222 222 255
0.006767 -0.003379 0.763926 0.910784 -0.000000 0.412884 0.625000 0.250000 215 222 222 255
0.034167 -0.034167 0.111621 0.954565 0.000000 -0.298003 0.625000 0.250000 148 94 70 255
0.024297 0.017594 0.080008 0.954565 0.000000 -0.298003 0.589597 0.035403 148 94 70 255
0.034167 0.034167 0.111621 0.954565 0.000000 -0.298003 0.625000 0.000000 148 94 70 255
-0.034167 -0.034167 0.111621 0.000000 -0.943493 -0.331393 0.625000 0.500000 148 94 70 255
-0.034167 0.034167 0.111621 -0.943528 0.000000 -0.331292 0.625000 0.750000 148 94 70 255
0.034167 0.034167 0.111621 0.000000 0.954598 -0.297898 0.625000 1.000000 148 94 70 255
-0.016359 0.024301 0.080008 0.000000 0.954598 -0.297898 0.589597 0.785403 148 94 70 255
-0.034167 0.034167 0.111621 0.000000 0.954598 -0.297898 0.625000 0.750000 148 94 70 255
-0.034167 0.034167 -0.111621 -0.000000 -0.000000 -1.000000 0.375000 0.750000 148 94 70 255
0.110344 0.034167 0.121572 0.129521 0.000000 -0.991577 0.625000 0.000000 158 148 151 255
-0.110344 0.034167 0.148566 0.000000 1.000000 0.000000 0.625000 0.750000 158 148 151 255
-0.110344 -0.034167 0.121572 -0.129521 -0.000000 -0.991577 0.625000 0.500000 158 148 151 255
-0.055616 -0.014403 0.148566 -0.000000 0.000000 1.000000 0.625000 0.500000 158 148 151 255
0.110344 -0.034167 0.148566 0.000000 -1.000000 0.000000 0.625000 0.250000 158 148 151 255
-0.110344 -0.034167 0.148566 -1.000000 -0.000000 -0.000000 0.625000 0.500000 158 148 151 255
0.110344 0.034167 0.148566 1.000000 -0.000000 0.000000 0.625000 0.000000 158 148 151 255
0.061580 0.017239 0.643015 0.999927 0.000000 -0.012060 0.625000 0.000000 216 223 223 255
0.055616 0.014403 0.148566 0.000000 -0.000000 1.000000 0.625000 0.000000 158 148 151 255
-0.055616 0.014403 0.148566 0.000000 0.000001 1.000000 0.625000 0.750000 158 148 151 255
0.110344 -0.034167 0.148566 0.000000 -0.000001 1.000000 0.625000 0.250000 158 148 151 255
-0.006767 0.003379 0.763926 0.000000 0.993494 0.113884 0.625000 0.750000 216 223 223 255
-0.055616 0.014403 0.148566 0.000000 0.999984 -0.005735 0.625000 0.750000 216 223 223 255
0.055616 -0.014403 0.148566 -0.000000 -0.999984 -0.005735 0.625000 0.250000 216 223 223 255
-0.061580 -0.017239 0.643015 -0.999927 -0.000000 -0.012060 0.625000 0.500000 216 223 223 255
0.006767 0.003379 0.763926 -0.000000 0.000000 1.000000 0.875000 0.750000 215 222 222 255
0.061580 -0.017239 0.643015 0.000000 -0.993494 0.113884 0.625000 0.250000 216 223 223 255
-0.061580 -0.017239 0.643015 -0.910784 0.000000 0.412883 0.625000 0.500000 216 223 223 255
0.061580 0.017239 0.643015 0.910784 0.000000 0.412884 0.625000 0.000000 216 223 223 255
-0.016359 0.024301 0.080008 -0.000000 1.000000 0.000000 0.589597 0.785403 148 94 70 255
-0.023067 0.024301 -0.060419 -0.000000 1.000000 0.000000 0.432339 0.750000 148 94 70 255
-0.023067 0.024301 0.080008 -0.000000 1.000000 0.000000 0.589597 0.750000 148 94 70 255
0.013361 0.024301 -0.060075 -0.001793 0.981865 0.189572 0.432725 0.942275 148 94 70 255
-0.034167 0.034167 -0.111621 -0.001793 0.981865 0.189572 0.375000 0.750000 148 94 70 255
-0.023067 0.024301 -0.060419 -0.001793 0.981865 0.189572 0.432339 0.750000 148 94 70 255
-0.023067 -0.023063 0.080008 -0.000000 -1.000000 0.000000 0.589598 0.500000 148 94 70 255
-0.012181 -0.023063 -0.060316 -0.000000 -1.000000 0.000000 0.432455 0.442545 148 94 70 255
0.017590 -0.023063 0.080008 -0.000000 -1.000000 0.000000 0.589598 0.285403 148 94 70 255
-0.012181 -0.023063 -0.060316 -0.002009 -0.977191 0.212353 0.432455 0.442545 148 94 70 255
-0.023067 -0.023063 -0.060419 -0.002009 -0.977191 0.212353 0.432339 0.500000 148 94 70 255
-0.034167 -0.034167 -0.111621 -0.002009 -0.977191 0.212353 0.375000 0.500000 148 94 70 255
0.024297 -0.012104 -0.059971 1.000000 0.000000 0.000000 0.432841 0.192159 148 94 70 255
0.024297 0.024301 -0.059971 1.000000 0.000000 0.000000 0.432841 0.000000 148 94 70 255
0.024297 0.024301 0.000000 1.000000 0.000000 0.000000 0.500000 0.000000 148 94 70 255
0.024297 -0.012104 -0.059971 0.982230 0.000000 0.187684 0.432841 0.192159 148 94 70 255
0.034167 0.034167 -0.111621 0.982230 0.000000 0.187684 0.375000 0.000000 148 94 70 255
0.024297 0.024301 -0.059971 0.982230 0.000000 0.187684 0.432841 0.000000 148 94 70 255
-0.023067 0.024301 0.080008 -1.000000 0.000000 0.000000 0.589597 0.750000 148 94 70 255
-0.023067 0.013438 -0.060419 -1.000000 0.000000 0.000000 0.432339 0.692661 148 94 70 255
-0.023067 -0.016356 0.080008 -1.000000 0.000000 0.000000 0.589597 0.535403 148 94 70 255
-0.023067 0.013438 -0.060419 -0.977298 0.000000 0.211868 0.432339 0.692661 148 94 70 255
-0.023067 0.024301 -0.060419 -0.977298 0.000000 0.211868 0.432339 0.750000 148 94 70 255
-0.034167 0.034167 -0.111621 -0.977298 0.000000 0.211868 0.375000 0.750000 148 94 70 255
0.024297 -0.023063 -0.059971 -0.000000 -1.000000 -0.000000 0.432841 0.250000 148 94 70 255
0.024297 -0.023063 0.080008 -0.000000 -1.000000 -0.000000 0.589598 0.250000 148 94 70 255
-0.012181 -0.023063 -0.060316 -0.001985 -0.977738 0.209818 0.432455 0.442545 148 94 70 255
0.034167 -0.034167 -0.111621 -0.001985 -0.977738 0.209818 0.375000 0.250000 148 94 70 255
0.024297 -0.023063 -0.059971 -0.001985 -0.977738 0.209818 0.432841 0.250000 148 94 70 255
0.024297 0.024301 0.000000 0.000000 1.000000 0.000000 0.500000 1.000000 148 94 70 255
0.024297 0.024301 -0.059971 0.000000 1.000000 0.000000 0.432841 1.000000 148 94 70 255
0.013361 0.024301 -0.060075 0.000000 1.000000 0.000000 0.432725 0.942275 148 94 70 255
0.013361 0.024301 -0.060075 -0.001772 0.982304 0.187287 0.432725 0.942275 148 94 70 255
0.024297 0.024301 -0.059971 -0.001772 0.982304 0.187287 0.432841 1.000000 148 94 70 255
0.034167 0.034167 -0.111621 -0.001772 0.982304 0.187287 0.375000 1.000000 148 94 70 255
-0.023067 -0.023063 -0.060419 -1.000000 0.000000 0.000000 0.432339 0.500000 148 94 70 255
-0.023067 -0.023063 0.080008 -1.000000 0.000000 0.000000 0.589598 0.500000 148 94 70 255
-0.034167 -0.034167 -0.111621 -0.977298 -0.000000 0.211868 0.375000 0.500000 148 94 70 255
-0.023067 -0.023063 -0.060419 -0.977298 -0.000000 0.211868 0.432339 0.500000 148 94 70 255
0.024297 -0.023063 0.080008 1.000000 0.000000 0.000000 0.589598 0.250000 148 94 70 255
0.024297 0.017594 0.080008 1.000000 0.000000 0.000000 0.589597 0.035403 148 94 70 255
0.024297 -0.012104 -0.059971 0.982229 -0.000000 0.187684 0.432841 0.192159 148 94 70 255
0.024297 -0.023063 -0.059971 0.982229 -0.000000 0.187684 0.432841 0.250000 148 94 70 255
0.034167 -0.034167 -0.111621 0.982229 -0.000000 0.187684 0.375000 0.250000 148 94 70 255
0.024297 -0.023063 0.080008 0.954565 0.000000 -0.298003 0.589598 0.250000 148 94 70 255
-0.023067 -0.023063 0.080008 -0.000000 -0.943493 -0.331393 0.589598 0.500000 148 94 70 255
-0.023067 0.024301 0.080008 -0.943528 -0.000000 -0.331292 0.589597 0.750000 148 94 70 255
0.024297 0.024301 0.080008 0.000000 0.954598 -0.297898 0.589597 1.000000 148 94 70 255
0.013361 0.024301 -0.060075 -0.000000 0.982173 0.187977 0.432725 0.942275 148 94 70 255
0.034167 0.034167 -0.111621 -0.000000 0.982173 0.187977 0.375000 1.000000 148 94 70 255
-0.034167 0.034167 -0.111621 -0.000000 0.982173 0.187977 0.375000 0.750000 148 94 70 255
-0.023067 -0.023063 -0.060419 -0.000000 -1.000000 0.000000 0.432339 0.500000 148 94 70 255
0.024297 0.024301 0.080008 1.000000 0.000000 0.000000 0.589597 0.000000 148 94 70 255
0.034167 -0.034167 -0.111621 0.982230 0.000000 0.187684 0.375000 0.250000 148 94 70 255
-0.023067 0.024301 -0.060419 -1.000000 0.000000 0.000000 0.432339 0.750000 148 94 70 255
-0.012181 -0.023063 -0.060316 0.000000 -0.977371 0.211531 0.432455 0.442545 148 94 70 255
-0.034167 -0.034167 -0.111621 0.000000 -0.977371 0.211531 0.375000 0.500000 148 94 70 255
0.034167 -0.034167 -0.111621 0.000000 -0.977371 0.211531 0.375000 0.250000 148 94 70 255
0.024297 0.024301 0.080008 0.000000 1.000000 -0.000000 0.589597 1.000000 148 94 70 255
0.024297 -0.023063 -0.059971 1.000000 0.000000 -0.000000 0.432841 0.250000 148 94 70 255
3 0 1 2
3 3 4 5
3 6 7 8
3 9 10 11
3 12 13 14
3 15 16 17
3 18 19 20
3 21 20 22
3 23 24 25
3 26 27 28
3 29 30 31
3 32 33 24
3 34 35 36
3 37 38 39
3 40 41 42
3 43 44 45
3 46 47 48
3 49 50 51
3 52 53 54
3 55 56 57
3 58 59 60
3 61 62 63
3 64 65 66
3 67 68 69
3 70 71 72
3 73 74 75
3 76 77 78
3 79 4 3
3 80 7 6
3 81 82 83
3 12 84 13
3 15 85 16
3 18 86 19
3 21 18 20
3 23 32 24
3 26 87 27
3 29 88 30
3 32 89 33
3 34 90 35
3 37 91 38
3 40 92 41
3 43 93 44
3 46 94 47
3 49 95 50
3 52 96 53
3 55 97 56
3 58 98 59
3 61 99 62
3 64 100 65
3 67 101 68
3 70 102 71
3 73 103 74
3 104 105 106
3 107 108 109
3 110 111 112
3 113 114 115
3 116 117 118
3 119 120 121
3 122 123 124
3 125 126 127
3 112 128 129
3 130 131 132
3 133 134 135
3 136 137 138
3 124 139 140
3 125 141 142
3 143 116 144
3 145 146 147
3 76 148 77
3 79 149 4
3 80 150 7
3 81 151 82
3 104 135 105
3 152 153 154
3 110 155 111
3 118 156 144
3 144 116 118
3 119 157 120
3 122 158 123
3 112 111 128
3 159 160 161
3 135 104 133
3 104 162 133
3 124 123 139
3 125 127 141
3 143 163 116
