ply
format ascii 1.0
comment Created by Blender 3.4.1 - www.blender.org
element vertex 142
property float x
property float y
property float z
property float nx
property float ny
property float nz
property float s
property float t
property uchar red
property uchar green
property uchar blue
property uchar alpha
element face 226
property list uchar uint vertex_indices
end_header
-7.915798 2.529457 -1.342496 0.754291 0.627972 0.191563 0.000000 0.000000 255 255 255 255
-14.389215 3.354891 -6.450442 -0.616710 0.782382 -0.086876 0.000000 0.000000 255 255 255 255
-15.081486 4.069201 -1.342496 -0.630567 0.757600 0.168603 0.000000 0.000000 255 255 255 255
-8.110694 -3.123508 -6.450442 0.724503 -0.677981 -0.124247 0.000000 0.000000 255 255 255 255
-7.418423 -3.837819 -1.342496 0.766429 -0.629550 0.127489 0.000000 0.000000 255 255 255 255
-15.343214 -2.809087 0.804923 -0.772156 -0.347865 0.531756 0.000000 0.000000 255 255 255 255
-12.392216 4.144912 0.804923 -0.147731 0.955704 0.254569 0.000000 0.000000 255 255 255 255
-15.138388 -3.529892 -6.450442 -0.705717 -0.672070 -0.224245 0.000000 0.000000 255 255 255 255
-12.485857 1.892022 4.640074 -0.491144 0.435644 0.754315 0.000000 0.000000 255 255 255 255
-8.034499 0.824749 0.804923 0.927223 0.244690 0.283519 0.000000 0.000000 255 255 255 255
-9.573743 -4.093508 0.804923 0.367815 -0.863890 0.344102 0.000000 0.000000 255 255 255 255
-15.995869 -4.333818 -1.342496 -0.717884 -0.685002 0.124156 0.000000 0.000000 255 255 255 255
-9.480102 -1.840619 4.640074 0.539005 -0.410532 0.735484 0.000000 0.000000 255 255 255 255
-12.706194 -2.259956 4.640074 -0.385873 -0.482337 0.786418 0.000000 0.000000 255 255 255 255
-9.259762 2.311361 4.640074 0.541092 0.530094 0.652855 0.000000 0.000000 255 255 255 255
-7.361520 3.761274 -6.450442 0.675899 0.696379 0.241280 0.000000 0.000000 255 255 255 255
32.739239 8.850459 1.174622 0.742824 -0.556338 0.372425 0.000000 0.000000 255 255 255 255
31.845295 11.803654 -0.509551 0.559125 0.826146 0.069725 0.000000 0.000000 255 255 255 255
31.715792 11.747691 1.192016 0.484778 0.785601 0.384474 0.000000 0.000000 255 255 255 255
29.896463 8.795652 -0.756802 -0.559125 -0.826146 -0.069725 0.000000 0.000000 255 255 255 255
29.766960 8.739690 0.944765 -0.537826 -0.817985 0.204066 0.000000 0.000000 255 255 255 255
28.743515 11.636921 0.962159 -0.784577 0.536439 0.310920 0.000000 0.000000 255 255 255 255
31.449804 11.072328 1.869829 0.431958 0.666352 0.607772 0.000000 0.000000 255 255 255 255
28.873016 11.692883 -0.739408 -0.825607 0.562502 -0.044334 0.000000 0.000000 255 255 255 255
29.630234 10.554873 3.000681 -0.639318 0.344521 0.687443 0.000000 0.000000 255 255 255 255
31.075825 10.688459 3.115095 0.287070 0.583962 0.759328 0.000000 0.000000 255 255 255 255
32.176819 9.386019 1.869700 0.664634 -0.360268 0.654575 0.000000 0.000000 255 255 255 255
29.915470 9.177049 1.690721 -0.503599 -0.759453 0.411849 0.000000 0.000000 255 255 255 255
29.188456 10.863357 1.690850 -0.791699 0.236618 0.563227 0.000000 0.000000 255 255 255 255
30.094984 9.476883 3.000598 -0.395656 -0.630885 0.667413 0.000000 0.000000 255 255 255 255
31.540575 9.610469 3.115012 0.529750 -0.391869 0.752200 0.000000 0.000000 255 255 255 255
32.868740 8.906422 -0.526945 0.825606 -0.562502 0.044334 0.000000 0.000000 255 255 255 255
37.455158 9.338107 7.515812 0.990480 -0.004952 0.137568 0.000000 0.000000 255 255 255 255
35.532448 11.834876 -0.419490 -0.015598 0.997450 0.069643 0.000000 0.000000 255 255 255 255
35.184620 11.272779 7.553154 -0.032756 0.986223 0.162147 0.000000 0.000000 255 255 255 255
35.621792 7.934591 -0.690575 0.015599 -0.997450 -0.069643 0.000000 0.000000 255 255 255 255
35.273968 7.372495 7.282070 0.025665 -0.999643 0.007383 0.000000 0.000000 255 255 255 255
33.003426 9.307167 7.319412 -0.998435 -0.003073 0.055840 0.000000 0.000000 255 255 255 255
35.216492 10.323672 10.862429 -0.066868 0.972297 0.223980 0.000000 0.000000 255 255 255 255
33.351254 9.869264 -0.653233 -0.998933 -0.012517 -0.044464 0.000000 0.000000 255 255 255 255
33.904289 8.396755 16.696499 -0.820485 -0.099046 0.563022 0.000000 0.000000 255 255 255 255
34.923862 9.423664 16.813381 -0.093224 0.740903 0.665111 0.000000 0.000000 255 255 255 255
36.636944 9.280107 10.850825 0.977951 0.068610 0.197241 0.000000 0.000000 255 255 255 255
35.042011 7.673706 10.667986 0.068282 -0.996175 0.054532 0.000000 0.000000 255 255 255 255
33.621559 8.717270 10.679589 -0.986355 -0.113993 0.118787 0.000000 0.000000 255 255 255 255
34.812328 7.729646 16.689083 0.039758 -0.827301 0.560350 0.000000 0.000000 255 255 255 255
35.831905 8.756556 16.805965 0.767986 0.014209 0.640309 0.000000 0.000000 255 255 255 255
37.802986 9.900204 -0.456833 0.998933 0.012517 0.044464 0.000000 0.000000 255 255 255 255
37.684711 8.311169 6.617459 0.668063 0.718797 0.192413 0.000000 0.000000 255 255 255 255
37.532661 -2.254201 -0.368329 0.689828 -0.688369 -0.224245 0.000000 0.000000 255 255 255 255
36.732231 7.339819 -0.368329 0.694553 0.693586 -0.191140 0.000000 0.000000 255 255 255 255
27.141293 -2.441136 6.617459 -0.674964 -0.726969 0.126250 0.000000 0.000000 255 255 255 255
38.661652 -3.398530 6.617459 0.726692 -0.680319 0.095320 0.000000 0.000000 255 255 255 255
28.271683 8.429379 9.554337 -0.367421 0.763045 0.531756 0.000000 0.000000 255 255 255 255
37.881908 4.637068 9.554337 0.855508 0.336923 0.393178 0.000000 0.000000 255 255 255 255
27.293343 8.124233 -0.368329 -0.689828 0.688369 -0.224245 0.000000 0.000000 255 255 255 255
34.798527 4.686609 14.799410 0.422992 0.502082 0.754315 0.000000 0.000000 255 255 255 255
36.326859 -3.295630 9.554337 0.353354 -0.833383 0.424986 0.000000 0.000000 255 255 255 255
26.716631 0.496684 9.554337 -0.868976 -0.364604 0.334581 0.000000 0.000000 255 255 255 255
26.164354 9.268562 6.617459 -0.703066 0.700202 0.124156 0.000000 0.000000 255 255 255 255
29.800016 0.447143 14.799410 -0.422992 -0.502082 0.754315 0.000000 0.000000 255 255 255 255
29.114315 4.843208 14.799410 -0.492010 0.373462 0.786418 0.000000 0.000000 255 255 255 255
35.484226 0.290541 14.799410 0.492010 -0.373462 0.786418 0.000000 0.000000 255 255 255 255
28.093771 -1.469787 -0.368329 -0.694553 -0.693586 -0.191140 0.000000 0.000000 255 255 255 255
-40.012260 -25.975388 3.194030 0.000000 0.000000 1.000000 0.000000 0.000000 81 148 83 255
-30.225483 -22.669111 3.194030 -0.092987 0.010077 0.995616 0.000000 0.000000 84 146 82 255
-42.343235 -15.112741 3.194030 0.000000 0.000000 1.000000 0.000000 0.000000 82 148 82 255
-30.225483 -15.112741 3.194030 0.005609 0.050988 0.998684 0.000000 0.000000 83 147 82 255
-30.225483 -7.556370 3.194030 0.087061 0.017339 0.996052 0.000000 0.000000 82 147 83 255
-40.925884 14.088406 -5.029855 0.000000 0.000000 1.000000 0.000000 0.000000 136 98 36 255
-33.369514 14.088408 -5.029855 0.029411 0.004012 0.999559 0.000000 0.000000 138 87 49 255
-33.369514 21.644777 -5.029855 0.010268 -0.006807 0.999924 0.000000 0.000000 133 104 35 255
-31.594851 -32.756428 3.194030 -0.105441 -0.046867 0.993320 0.000000 0.000000 87 147 75 255
-22.669113 -30.225483 4.830276 -0.168191 -0.067215 0.983460 0.000000 0.000000 111 126 63 255
-19.956114 -17.332756 4.916308 -0.021066 0.427013 0.904000 0.000000 0.000000 101 135 77 255
-17.604786 -14.384401 1.200573 0.124703 0.403672 0.906365 0.000000 0.000000 92 141 79 255
-13.904709 -1.419677 -5.491093 0.008269 0.744776 0.667263 0.000000 0.000000 101 133 76 255
-17.958288 1.318264 -4.675403 0.336329 0.552891 0.762361 0.000000 0.000000 125 115 72 255
-13.904709 -1.419677 -0.046151 0.099354 0.606529 0.788829 0.000000 0.000000 146 91 66 255
-32.486115 5.531187 2.741073 0.132680 0.551912 0.823280 0.000000 0.000000 101 133 75 255
-26.558924 3.889812 2.886190 0.295492 0.537262 0.789958 0.000000 0.000000 117 123 74 255
-30.225483 7.556372 -5.029855 0.204234 0.482164 0.851943 0.000000 0.000000 112 123 69 255
-22.669113 -37.781853 3.194030 -0.171817 -0.208487 0.962815 0.000000 0.000000 105 145 39 255
-15.112741 -33.345501 5.967057 -0.137367 -0.026054 0.990177 0.000000 0.000000 127 114 36 255
-17.004047 -25.711657 5.520407 -0.134821 0.031575 0.990367 0.000000 0.000000 127 104 58 255
-3.778186 -25.299915 7.734254 -0.172667 -0.031235 0.984485 0.000000 0.000000 113 122 68 255
-0.000001 -14.655753 8.257785 -0.090111 0.707310 0.701136 0.000000 0.000000 148 88 66 255
-7.556372 -17.743544 7.210723 -0.297440 0.473079 0.829292 0.000000 0.000000 143 93 66 255
-15.112741 -18.513660 5.219532 -0.056297 0.441769 0.895361 0.000000 0.000000 121 117 70 255
-7.556372 -15.112741 0.364778 -0.092048 0.580923 0.808737 0.000000 0.000000 116 120 68 255
-0.000001 -7.556370 -0.172490 0.025258 0.000407 0.999681 0.000000 0.000000 97 138 78 255
-7.556372 -34.175156 6.691848 -0.151936 -0.029732 0.987943 0.000000 0.000000 120 122 38 255
7.556370 -25.299915 10.127320 -0.067186 -0.071091 0.995205 0.000000 0.000000 83 147 82 255
7.556370 -17.743544 10.127320 -0.041769 0.485535 0.873219 0.000000 0.000000 123 119 74 255
-0.000001 -12.873506 -0.172490 0.033026 0.543110 0.839012 0.000000 0.000000 148 88 66 255
7.556370 -15.112741 -0.172490 -0.051604 0.678841 0.732470 0.000000 0.000000 148 88 66 255
-27.237364 10.538952 -5.293070 0.007078 0.029570 0.999538 0.000000 0.000000 118 115 65 255
7.556370 -35.960396 7.907701 -0.129593 -0.134399 0.982417 0.000000 0.000000 96 143 67 255
15.112741 -37.781853 9.174827 -0.020830 0.000000 0.999783 0.000000 0.000000 95 147 61 255
15.112741 -35.245903 9.174827 0.004266 -0.030893 0.999514 0.000000 0.000000 92 145 70 255
18.890926 -26.228943 8.677754 0.074603 -0.014913 0.997102 0.000000 0.000000 86 145 81 255
15.112741 -15.112741 9.337785 -0.262166 0.416103 0.870705 0.000000 0.000000 143 95 68 255
15.112741 -10.307093 -0.172490 -0.357488 0.469637 0.807244 0.000000 0.000000 135 106 71 255
22.669111 -37.781853 8.395520 0.064648 -0.004503 0.997898 0.000000 0.000000 99 147 47 255
30.225483 -30.225483 8.395520 0.021797 -0.008783 0.999724 0.000000 0.000000 117 125 49 255
22.669111 -7.556370 10.770156 0.016801 0.625027 0.780422 0.000000 0.000000 148 88 66 255
22.669111 -5.151177 -0.172490 -0.045749 0.435677 0.898940 0.000000 0.000000 148 89 66 255
15.112741 0.000001 -0.172490 0.001174 0.003083 0.999995 0.000000 0.000000 83 147 82 255
22.669111 11.334557 -0.172490 -0.011068 0.007663 0.999909 0.000000 0.000000 103 143 48 255
6.768683 37.886864 -1.425148 -0.385268 0.030213 0.922310 0.000000 0.000000 102 141 55 255
3.548991 34.809357 -5.029855 -0.548235 0.005522 0.836306 0.000000 0.000000 96 139 73 255
6.920870 20.327229 -0.786353 -0.603532 -0.032659 0.796669 0.000000 0.000000 94 142 71 255
28.784142 -9.093251 0.306879 0.378218 0.615605 0.691362 0.000000 0.000000 148 88 66 255
30.225483 -22.669111 8.395520 0.027728 -0.007485 0.999587 0.000000 0.000000 122 112 62 255
37.781853 -22.669111 8.395520 0.000000 0.000000 1.000000 0.000000 0.000000 141 88 42 255
37.781853 -15.112741 8.395520 0.000000 0.309799 0.950802 0.000000 0.000000 143 76 43 255
-28.391933 30.676847 -5.029855 0.000000 0.000000 1.000000 0.000000 0.000000 117 128 40 255
-21.064756 30.906040 -5.029855 0.029518 -0.019089 0.999382 0.000000 0.000000 108 127 69 255
-2.972497 31.142258 -5.029855 -0.011025 0.030694 0.999468 0.000000 0.000000 84 146 82 255
5.618111 20.327229 -4.762634 -0.594404 -0.058079 0.802066 0.000000 0.000000 92 142 76 255
-40.792404 -7.556372 3.194030 0.000000 0.000000 1.000000 0.000000 0.000000 90 143 78 255
-34.687843 3.558770 3.194030 0.048774 0.038035 0.998085 0.000000 0.000000 101 133 75 255
-40.925884 21.644777 -5.029855 0.000000 0.000000 1.000000 0.000000 0.000000 116 134 19 255
-22.669113 -4.498773 1.874455 0.168530 -0.009075 0.985655 0.000000 0.000000 81 148 83 255
-0.000001 -35.846821 7.907701 -0.057985 -0.004354 0.998308 0.000000 0.000000 105 138 53 255
-21.352581 12.407594 -5.014390 -0.049521 0.030127 0.998319 0.000000 0.000000 115 119 67 255
-10.209470 23.955648 -4.829267 -0.042079 0.062767 0.997141 0.000000 0.000000 82 148 83 255
-14.307703 29.202953 -5.396491 -0.022245 0.031301 0.999262 0.000000 0.000000 87 144 81 255
-21.497118 0.640057 2.080902 0.381732 0.399465 0.833492 0.000000 0.000000 130 111 72 255
-14.427517 8.514966 -4.744352 -0.145514 0.024473 0.989053 0.000000 0.000000 107 127 71 255
30.225483 -15.112741 8.395520 0.178395 0.335884 0.924855 0.000000 0.000000 144 92 66 255
37.643280 11.334557 -0.172490 0.000000 0.012693 0.999919 0.000000 0.000000 105 148 11 255
26.343233 28.384909 -0.172491 -0.022591 0.005499 0.999730 0.000000 0.000000 105 148 9 255
21.995575 35.719109 -0.325053 -0.046752 0.015854 0.998781 0.000000 0.000000 105 148 10 255
4.815863 10.212204 -0.039076 -0.103195 0.395748 0.912543 0.000000 0.000000 96 147 63 255
-7.249925 0.739388 0.272762 -0.252582 0.184462 0.949830 0.000000 0.000000 105 131 71 255
-1.224345 13.062454 -2.509722 0.120490 0.540978 0.832361 0.000000 0.000000 148 88 66 255
-9.519670 5.245962 -2.032133 -0.497900 0.088115 0.862747 0.000000 0.000000 145 92 66 255
-10.339111 0.739388 -4.653868 -0.613537 0.351769 0.706987 0.000000 0.000000 134 106 67 255
6.629094 12.931587 -4.015358 -0.640500 0.421653 0.641848 0.000000 0.000000 109 148 36 255
7.215855 12.904846 -0.443969 -0.502410 0.222885 0.835408 0.000000 0.000000 94 146 65 255
1.092123 13.062454 -4.951057 0.169686 0.563088 0.808788 0.000000 0.000000 146 93 65 255
3 0 1 2
3 3 0 4
3 2 5 6
3 7 2 1
3 5 8 6
3 4 9 10
3 0 6 9
3 11 10 5
3 7 4 11
3 12 8 13
3 9 12 10
3 6 14 9
3 10 13 5
3 0 15 1
3 3 15 0
3 2 11 5
3 7 11 2
3 5 13 8
3 4 0 9
3 0 2 6
3 11 4 10
3 7 3 4
3 12 14 8
3 9 14 12
3 6 8 14
3 10 12 13
3 16 17 18
3 19 16 20
3 21 22 18
3 21 17 23
3 22 24 25
3 20 26 27
3 18 26 16
3 20 28 21
3 19 21 23
3 29 25 24
3 27 30 29
3 22 30 26
3 27 24 28
3 16 31 17
3 19 31 16
3 21 28 22
3 21 18 17
3 22 28 24
3 20 16 26
3 18 22 26
3 20 27 28
3 19 20 21
3 29 30 25
3 27 26 30
3 22 25 30
3 27 29 24
3 32 33 34
3 35 32 36
3 37 38 34
3 37 33 39
3 38 40 41
3 36 42 43
3 34 42 32
3 36 44 37
3 35 37 39
3 45 41 40
3 43 46 45
3 38 46 42
3 43 40 44
3 32 47 33
3 35 47 32
3 37 44 38
3 37 34 33
3 38 44 40
3 36 32 42
3 34 38 42
3 36 43 44
3 35 36 37
3 45 46 41
3 43 42 46
3 38 41 46
3 43 45 40
3 48 49 50
3 51 49 52
3 48 53 54
3 55 48 50
3 53 56 54
3 51 57 58
3 52 54 57
3 59 58 53
3 55 51 59
3 60 56 61
3 57 60 58
3 54 62 57
3 58 61 53
3 48 52 49
3 51 63 49
3 48 59 53
3 55 59 48
3 53 61 56
3 51 52 57
3 52 48 54
3 59 51 58
3 55 63 51
3 60 62 56
3 57 62 60
3 54 56 62
3 58 60 61
3 64 65 66
3 66 67 68
3 69 70 71
3 72 73 65
3 65 74 67
3 67 75 68
3 76 77 78
3 79 80 81
3 82 83 73
3 73 84 74
3 85 86 87
3 75 88 89
3 75 89 90
3 83 91 84
3 84 85 88
3 88 87 89
3 85 92 93
3 87 86 89
3 89 94 90
3 86 93 95
3 81 96 70
3 97 98 99
3 92 99 100
3 93 100 101
3 95 101 102
3 71 70 96
3 98 103 99
3 100 103 104
3 102 105 106
3 107 106 108
3 109 110 111
3 86 85 93
3 103 100 99
3 106 112 108
3 113 114 115
3 72 65 64
3 82 73 72
3 116 71 117
3 118 119 110
3 120 66 68
3 68 121 120
3 122 69 71
3 73 74 65
3 74 75 67
3 74 88 75
3 121 68 123
3 83 84 73
3 84 88 74
3 124 97 85
3 75 123 68
3 125 126 127
3 91 85 84
3 85 87 88
3 91 124 85
3 77 128 78
3 86 94 89
3 94 86 95
3 92 97 99
3 93 92 100
3 95 93 101
3 125 77 129
3 97 92 85
3 100 104 113
3 102 101 105
3 107 102 106
3 118 126 119
3 101 100 113
3 130 101 113
3 105 101 130
3 112 105 130
3 106 105 112
3 112 131 108
3 108 131 132
3 130 113 115
3 65 67 66
3 127 117 96
3 110 119 111
3 96 125 127
3 94 95 90
3 90 102 107
3 90 95 102
3 77 80 128
3 133 111 132
3 121 80 79
3 123 78 128
3 107 134 90
3 90 134 135
3 123 128 80
3 78 90 135
3 136 129 137
3 77 76 129
3 117 71 96
3 77 96 81
3 125 129 126
3 126 118 127
3 76 138 129
3 129 138 137
3 76 78 138
3 78 135 138
3 111 139 140
3 132 140 108
3 111 140 132
3 108 140 107
3 135 136 137
3 138 135 137
3 134 141 136
3 136 141 126
3 126 141 119
3 139 119 141
3 130 115 112
3 77 81 80
3 133 109 111
3 121 123 80
3 123 75 78
3 107 140 134
3 78 75 90
3 136 126 129
3 77 125 96
3 134 140 139
3 111 119 139
3 135 134 136
3 134 139 141
