ply
format ascii 1.0
comment Created by Blender 2.91.2 - www.blender.org
element vertex 36
property float x
property float y
property float z
property float nx
property float ny
property float nz
property float s
property float t
element face 12
property list uchar uint vertex_indices
end_header
0.507497 -0.503614 1.016701 -0.000000 0.000000 1.000000 0.332332 0.002002
-0.492503 0.496386 1.016701 -0.000000 0.000000 1.000000 0.002002 0.332332
-0.492503 -0.503614 1.016701 -0.000000 0.000000 1.000000 0.332332 0.332332
-0.492503 0.496386 1.016701 0.000000 1.000000 -0.000000 0.332332 0.335335
0.507497 0.496386 0.016701 0.000000 1.000000 -0.000000 0.002002 0.665666
-0.492503 0.496386 0.016701 0.000000 1.000000 -0.000000 0.332332 0.665666
0.507497 0.496386 1.016701 1.000000 0.000000 -0.000000 0.665666 0.002002
0.507497 -0.503614 0.016701 1.000000 0.000000 -0.000000 0.335335 0.332332
0.507497 0.496386 0.016701 1.000000 0.000000 -0.000000 0.665666 0.332332
-0.492503 -0.503614 0.016701 -0.000000 0.000000 -1.000000 0.665666 0.335335
0.507497 0.496386 0.016701 -0.000000 0.000000 -1.000000 0.335335 0.665666
0.507497 -0.503614 0.016701 -0.000000 0.000000 -1.000000 0.665666 0.665666
-0.492503 -0.503614 1.016701 -1.000000 0.000000 0.000000 0.332332 0.668669
-0.492503 0.496386 0.016701 -1.000000 0.000000 0.000000 0.002002 0.998999
-0.492503 -0.503614 0.016701 -1.000000 0.000000 0.000000 0.332332 0.998999
0.507497 -0.503614 1.016701 0.000000 -1.000000 0.000000 0.998999 0.002002
-0.492503 -0.503614 0.016701 0.000000 -1.000000 0.000000 0.668669 0.332332
0.507497 -0.503614 0.016701 0.000000 -1.000000 0.000000 0.998999 0.332332
0.507497 -0.503614 1.016701 -0.000000 0.000000 1.000000 0.997998 0.001001
0.507497 0.496386 1.016701 -0.000000 0.000000 1.000000 0.667668 0.001001
-0.492503 0.496386 1.016701 -0.000000 0.000000 1.000000 0.667668 0.331331
-0.492503 0.496386 1.016701 0.000000 1.000000 -0.000000 0.331331 0.667668
0.507497 0.496386 1.016701 0.000000 1.000000 -0.000000 0.001001 0.667668
0.507497 0.496386 0.016701 0.000000 1.000000 -0.000000 0.001001 0.997998
0.507497 0.496386 1.016701 1.000000 0.000000 0.000000 0.664665 0.334334
0.507497 -0.503614 1.016701 1.000000 0.000000 0.000000 0.334334 0.334334
0.507497 -0.503614 0.016701 1.000000 0.000000 0.000000 0.334334 0.664665
-0.492503 -0.503614 0.016701 -0.000000 -0.000000 -1.000000 0.664665 0.001001
-0.492503 0.496386 0.016701 -0.000000 -0.000000 -1.000000 0.334334 0.001001
0.507497 0.496386 0.016701 -0.000000 -0.000000 -1.000000 0.334334 0.331331
-0.492503 -0.503614 1.016701 -1.000000 0.000000 0.000000 0.331331 0.334334
-0.492503 0.496386 1.016701 -1.000000 0.000000 0.000000 0.001001 0.334334
-0.492503 0.496386 0.016701 -1.000000 0.000000 0.000000 0.001001 0.664665
0.507497 -0.503614 1.016701 0.000000 -1.000000 0.000000 0.331331 0.001001
-0.492503 -0.503614 1.016701 0.000000 -1.000000 0.000000 0.001001 0.001001
-0.492503 -0.503614 0.016701 0.000000 -1.000000 0.000000 0.001001 0.331331
3 0 1 2
3 3 4 5
3 6 7 8
3 9 10 11
3 12 13 14
3 15 16 17
3 18 19 20
3 21 22 23
3 24 25 26
3 27 28 29
3 30 31 32
3 33 34 35
