ply
format ascii 1.0
comment Created by Blender 3.2.2 - www.blender.org
element vertex 120
property float x
property float y
property float z
property float nx
property float ny
property float nz
property float s
property float t
property uchar red
property uchar green
property uchar blue
property uchar alpha
element face 180
property list uchar uint vertex_indices
end_header
0.000000 0.000000 0.000000 0.001311 0.001993 -0.999997 0.750000 0.250000 255 255 255 255
0.147483 0.202993 0.000598 0.001311 0.001993 -0.999997 0.823231 0.350793 255 255 255 255
0.203693 0.066184 0.000399 0.001311 0.001993 -0.999997 0.850741 0.282733 255 255 255 255
0.000000 0.332817 0.003191 0.003133 0.023526 -0.999718 0.750000 0.434721 255 255 255 255
0.000000 0.214175 0.000399 0.003133 0.023526 -0.999718 0.750000 0.355925 255 255 255 255
0.316528 0.102846 0.003191 0.026475 0.018810 -0.999472 0.925681 0.307082 255 255 255 255
0.196975 0.271112 0.003191 0.026475 0.018810 -0.999472 0.857555 0.398037 255 255 255 255
0.000000 0.000000 1.000000 0.038925 0.048543 0.998062 0.250000 0.250000 255 255 255 255
0.147483 0.202993 0.984375 0.038925 0.048543 0.998062 0.323231 0.350793 255 255 255 255
0.000000 0.214175 0.989583 0.038925 0.048543 0.998062 0.250000 0.355925 255 255 255 255
0.316528 0.102846 0.916667 0.475259 0.227621 0.849893 0.425680 0.307082 255 255 255 255
0.203693 0.066184 0.989583 0.475259 0.227621 0.849893 0.350741 0.282733 255 255 255 255
0.000000 0.332817 0.916667 0.193406 0.617391 0.762511 0.250000 0.434721 255 255 255 255
0.196975 0.271112 0.916667 0.193406 0.617391 0.762511 0.357555 0.398037 255 255 255 255
0.000000 0.378334 0.739982 0.322707 0.946142 0.025980 1.000000 0.875199 255 255 255 255
0.224073 0.308410 0.503191 0.322707 0.946142 0.025980 0.900000 0.751596 255 255 255 255
0.000000 0.384836 0.503191 0.322707 0.946142 0.025980 1.000000 0.751596 255 255 255 255
0.000000 0.332817 0.916667 0.311052 0.920344 0.237096 1.000000 1.000000 255 255 255 255
0.220686 0.303748 0.739982 0.311052 0.920344 0.237096 0.900000 0.875199 255 255 255 255
0.316528 0.102846 0.916667 0.779178 0.580230 0.237096 0.800000 1.000000 255 255 255 255
0.359817 0.116912 0.739982 0.779178 0.580230 0.237096 0.800000 0.875199 255 255 255 255
0.366001 0.118921 0.503191 0.800112 0.599287 0.025980 0.800000 0.751596 255 255 255 255
0.238632 -0.077536 0.000598 0.002301 -0.000631 -0.999997 0.868490 0.211500 255 255 255 255
0.125889 -0.173272 0.000399 0.002301 -0.000631 -0.999997 0.812261 0.164305 255 255 255 255
0.195625 -0.269255 0.003191 0.026071 -0.019366 -0.999472 0.858577 0.100557 255 255 255 255
0.318712 -0.103556 0.003191 0.026071 -0.019366 -0.999473 0.924028 0.193455 255 255 255 255
0.238632 -0.077536 0.984375 0.058196 -0.022019 0.998062 0.368490 0.211500 255 255 255 255
0.195625 -0.269255 0.916667 0.363345 -0.381657 0.849893 0.358577 0.100557 255 255 255 255
0.125889 -0.173272 0.989583 0.363345 -0.381657 0.849893 0.312261 0.164305 255 255 255 255
0.318712 -0.103556 0.916667 0.646934 0.006845 0.762515 0.424028 0.193455 255 255 255 255
0.362558 -0.117802 0.503191 0.999557 -0.014538 0.025981 0.700000 0.751596 255 255 255 255
0.357077 -0.116021 0.739982 0.971419 -0.011427 0.237095 0.700000 0.875199 255 255 255 255
0.195625 -0.269255 0.916667 0.792612 -0.561740 0.237095 0.600000 1.000000 255 255 255 255
0.222379 -0.306079 0.739982 0.792612 -0.561740 0.237095 0.600000 0.875199 255 255 255 255
0.226201 -0.311339 0.503191 0.817204 -0.575763 0.025980 0.600000 0.751596 255 255 255 255
0.000000 -0.250913 0.000598 0.000111 -0.002383 -0.999997 0.750000 0.125412 255 255 255 255
-0.125889 -0.173272 0.000399 0.000111 -0.002383 -0.999997 0.687739 0.164305 255 255 255 255
-0.195625 -0.269255 0.003191 -0.010362 -0.030779 -0.999472 0.641424 0.100557 255 255 255 255
0.000000 -0.335113 0.003191 -0.010362 -0.030779 -0.999472 0.750000 0.067016 255 255 255 255
0.000000 -0.250913 0.984375 -0.002958 -0.062152 0.998062 0.250000 0.125412 255 255 255 255
-0.195625 -0.269255 0.916667 -0.250699 -0.463499 0.849893 0.141423 0.100557 255 255 255 255
-0.125889 -0.173272 0.989583 -0.250699 -0.463499 0.849893 0.187739 0.164305 255 255 255 255
0.000000 -0.335113 0.916667 0.206423 -0.613161 0.762511 0.250000 0.067016 255 255 255 255
0.000000 -0.381216 0.503191 0.295054 -0.955127 0.025979 0.500000 0.751596 255 255 255 255
0.000000 -0.375453 0.739982 0.289316 -0.927406 0.237095 0.500000 0.875199 255 255 255 255
-0.195625 -0.269255 0.916667 -0.289320 -0.927406 0.237090 0.400000 1.000000 255 255 255 255
-0.222379 -0.306078 0.739982 -0.289320 -0.927406 0.237090 0.400000 0.875199 255 255 255 255
-0.226201 -0.311339 0.503191 -0.295054 -0.955127 0.025983 0.400000 0.751596 255 255 255 255
-0.238633 -0.077536 0.000598 -0.002232 -0.000842 -0.999997 0.631510 0.211500 255 255 255 255
-0.203693 0.066184 0.000399 -0.002232 -0.000842 -0.999997 0.649259 0.282733 255 255 255 255
-0.316528 0.102846 0.003191 -0.032475 0.000344 -0.999472 0.574320 0.307082 255 255 255 255
-0.318712 -0.103556 0.003191 -0.032475 0.000344 -0.999472 0.575972 0.193455 255 255 255 255
-0.238633 -0.077536 0.984375 -0.060024 -0.016393 0.998062 0.131510 0.211500 255 255 255 255
-0.316528 0.102846 0.916667 -0.518283 0.095203 0.849893 0.074320 0.307082 255 255 255 255
-0.203693 0.066184 0.989583 -0.518284 0.095203 0.849893 0.149259 0.282733 255 255 255 255
-0.195625 -0.269255 0.916667 -0.519359 -0.385798 0.762513 0.141424 0.100557 255 255 255 255
-0.318712 -0.103556 0.916667 -0.519359 -0.385798 0.762513 0.075972 0.193455 255 255 255 255
-0.362558 -0.117802 0.503191 -0.817204 -0.575763 0.025983 0.300000 0.751596 255 255 255 255
-0.357077 -0.116021 0.739982 -0.792611 -0.561743 0.237092 0.300000 0.875199 255 255 255 255
-0.316528 0.102846 0.916667 -0.971419 -0.011427 0.237095 0.200000 1.000000 255 255 255 255
-0.359817 0.116912 0.739982 -0.971419 -0.011427 0.237095 0.200000 0.875199 255 255 255 255
-0.366001 0.118921 0.503191 -0.999557 -0.014538 0.025981 0.200000 0.751596 255 255 255 255
-0.147483 0.202993 0.000598 -0.001491 0.001863 -0.999997 0.676769 0.350793 255 255 255 255
-0.196975 0.271112 0.003191 -0.009709 0.030992 -0.999472 0.642445 0.398037 255 255 255 255
-0.147483 0.202993 0.984375 -0.034139 0.052021 0.998062 0.176769 0.350793 255 255 255 255
-0.196975 0.271112 0.916667 -0.527407 0.374723 0.762512 0.142445 0.398037 255 255 255 255
-0.224073 0.308410 0.503191 -0.800112 0.599287 0.025980 0.100000 0.751596 255 255 255 255
-0.220686 0.303748 0.739982 -0.779178 0.580230 0.237096 0.100000 0.875199 255 255 255 255
0.000000 0.332817 0.916667 -0.311052 0.920344 0.237096 0.000000 1.000000 255 255 255 255
0.000000 0.378334 0.739982 -0.311052 0.920344 0.237096 0.000000 0.875199 255 255 255 255
0.000000 0.384836 0.503191 -0.322707 0.946142 0.025980 0.000000 0.751596 255 255 255 255
-0.366001 0.118921 0.096098 -0.800382 0.599490 0.000000 0.200000 0.548049 255 255 255 255
-0.224073 0.308410 0.269591 -0.800382 0.599490 0.000000 0.100000 0.634796 255 255 255 255
-0.224073 0.308410 0.096098 -0.800382 0.599490 0.000000 0.100000 0.548049 255 255 255 255
-0.366001 0.118921 0.269591 -0.800382 0.599490 0.000000 0.200000 0.634796 255 255 255 255
0.000000 0.384836 0.269591 -0.322816 0.946462 0.000000 0.000000 0.634796 255 255 255 255
0.000000 0.384836 0.096098 -0.322816 0.946462 0.000000 0.000000 0.548049 255 255 255 255
0.000000 0.332817 0.003191 0.117848 0.376196 -0.919015 1.000000 0.500000 255 255 255 255
0.220686 0.303748 0.019591 0.117848 0.376196 -0.919015 0.900000 0.509596 255 255 255 255
0.196975 0.271112 0.003191 0.117848 0.376196 -0.919015 0.900000 0.500000 255 255 255 255
0.000000 0.378334 0.019591 0.319357 0.944917 -0.071717 1.000000 0.509596 255 255 255 255
0.224073 0.308410 0.096098 0.319357 0.944917 -0.071717 0.900000 0.548049 255 255 255 255
0.359817 0.116912 0.019591 0.799982 0.595722 -0.071716 0.800000 0.509596 255 255 255 255
0.316528 0.102846 0.003191 0.321368 0.228332 -0.919014 0.800000 0.500000 255 255 255 255
-0.226201 -0.311339 0.269591 -0.817480 -0.575957 0.000000 0.400000 0.634796 255 255 255 255
-0.362558 -0.117802 0.096098 -0.817480 -0.575957 0.000000 0.300000 0.548049 255 255 255 255
-0.226201 -0.311339 0.096098 -0.817480 -0.575957 0.000000 0.400000 0.548049 255 255 255 255
-0.362558 -0.117802 0.269591 -0.817480 -0.575957 0.000000 0.300000 0.634796 255 255 255 255
0.226201 -0.311339 0.269591 0.295153 -0.955450 0.000000 0.600000 0.634796 255 255 255 255
0.000000 -0.381216 0.096098 0.295153 -0.955450 0.000000 0.500000 0.548049 255 255 255 255
0.226201 -0.311339 0.096098 0.295153 -0.955450 0.000000 0.600000 0.548049 255 255 255 255
0.000000 -0.381216 0.269591 0.295153 -0.955450 0.000000 0.500000 0.634796 255 255 255 255
0.366001 0.118921 0.096098 0.999894 -0.014543 0.000000 0.800000 0.548049 255 255 255 255
0.362558 -0.117802 0.269591 0.999894 -0.014543 0.000000 0.700000 0.634796 255 255 255 255
0.362558 -0.117802 0.096098 0.999894 -0.014543 0.000000 0.700000 0.548049 255 255 255 255
0.366001 0.118921 0.269591 0.999894 -0.014543 0.000000 0.800000 0.634796 255 255 255 255
0.000000 0.384836 0.096098 0.322816 0.946462 0.000000 1.000000 0.548049 255 255 255 255
0.224073 0.308410 0.269591 0.322816 0.946462 0.000000 0.900000 0.634796 255 255 255 255
0.000000 0.384836 0.269591 0.322816 0.946462 0.000000 1.000000 0.634796 255 255 255 255
0.357077 -0.116021 0.019591 0.394208 0.004171 -0.919012 0.700000 0.509596 255 255 255 255
0.318712 -0.103556 0.003191 0.394208 0.004171 -0.919012 0.700000 0.500000 255 255 255 255
0.222379 -0.306079 0.019591 0.813774 -0.576738 -0.071725 0.600000 0.509596 255 255 255 255
0.195625 -0.269255 0.003191 0.316471 -0.235086 -0.919011 0.600000 0.500000 255 255 255 255
0.000000 -0.375453 0.019591 0.125781 -0.373620 -0.919014 0.500000 0.509596 255 255 255 255
0.000000 -0.335113 0.003191 0.125781 -0.373620 -0.919014 0.500000 0.500000 255 255 255 255
-0.222379 -0.306078 0.019591 -0.297045 -0.952166 -0.071723 0.400000 0.509596 255 255 255 255
-0.195625 -0.269255 0.003191 -0.125781 -0.373620 -0.919014 0.400000 0.500000 255 255 255 255
-0.357077 -0.116021 0.019591 -0.316471 -0.235086 -0.919011 0.300000 0.509596 255 255 255 255
-0.318712 -0.103556 0.003191 -0.316471 -0.235086 -0.919011 0.300000 0.500000 255 255 255 255
-0.359817 0.116912 0.019591 -0.997355 -0.011732 -0.071724 0.200000 0.509596 255 255 255 255
-0.316528 0.102846 0.003191 -0.394208 0.004171 -0.919012 0.200000 0.500000 255 255 255 255
-0.220686 0.303748 0.019591 -0.321368 0.228332 -0.919014 0.100000 0.509596 255 255 255 255
-0.196975 0.271112 0.003191 -0.321368 0.228332 -0.919014 0.100000 0.500000 255 255 255 255
0.000000 0.378334 0.019591 -0.319357 0.944917 -0.071717 0.000000 0.509596 255 255 255 255
0.000000 0.332817 0.003191 -0.117848 0.376196 -0.919015 0.000000 0.500000 255 255 255 255
0.196975 0.271112 0.916667 0.292176 0.932687 0.211489 0.900000 1.000000 255 255 255 255
0.318712 -0.103556 0.916667 0.977327 0.010341 0.211485 0.700000 1.000000 255 255 255 255
0.000000 -0.335113 0.916667 0.311842 -0.926298 0.211489 0.500000 1.000000 255 255 255 255
-0.318712 -0.103556 0.916667 -0.784595 -0.582825 0.211483 0.300000 1.000000 255 255 255 255
-0.196975 0.271112 0.916667 -0.796751 0.566092 0.211488 0.100000 1.000000 255 255 255 255
3 0 1 2
3 3 1 4
3 5 1 6
3 7 8 9
3 10 8 11
3 12 8 13
3 14 15 16
3 17 18 14
3 18 19 20
3 15 20 21
3 0 22 23
3 5 22 2
3 24 22 25
3 7 26 11
3 27 26 28
3 10 26 29
3 20 30 21
3 19 31 20
3 31 32 33
3 30 33 34
3 0 35 36
3 24 35 23
3 37 35 38
3 7 39 28
3 40 39 41
3 27 39 42
3 33 43 34
3 32 44 33
3 44 45 46
3 43 46 47
3 0 48 49
3 37 48 36
3 50 48 51
3 7 52 41
3 53 52 54
3 55 52 56
3 46 57 47
3 45 58 46
3 58 59 60
3 57 60 61
3 0 62 4
3 50 62 49
3 3 62 63
3 7 64 54
3 12 64 9
3 53 64 65
3 60 66 61
3 59 67 60
3 67 68 69
3 66 69 70
3 71 72 73
3 61 72 74
3 72 70 75
3 72 76 73
3 77 78 79
3 80 81 78
3 81 82 78
3 78 83 79
3 84 85 86
3 47 87 84
3 87 61 74
3 87 71 85
3 88 89 90
3 34 91 88
3 91 47 84
3 89 84 86
3 92 93 94
3 21 93 95
3 93 34 88
3 93 90 94
3 96 97 81
3 16 97 98
3 97 21 95
3 81 95 92
3 83 99 100
3 82 94 99
3 94 101 99
3 99 102 100
3 102 103 104
3 101 89 103
3 89 105 103
3 103 106 104
3 106 107 108
3 105 85 107
3 85 109 107
3 107 110 108
3 110 111 112
3 109 73 111
3 73 113 111
3 111 114 112
3 0 4 1
3 3 6 1
3 5 2 1
3 7 11 8
3 10 13 8
3 12 9 8
3 14 18 15
3 17 115 18
3 18 115 19
3 15 18 20
3 0 2 22
3 5 25 22
3 24 23 22
3 7 28 26
3 27 29 26
3 10 11 26
3 20 31 30
3 19 116 31
3 31 116 32
3 30 31 33
3 0 23 35
3 24 38 35
3 37 36 35
3 7 41 39
3 40 42 39
3 27 28 39
3 33 44 43
3 32 117 44
3 44 117 45
3 43 44 46
3 0 36 48
3 37 51 48
3 50 49 48
3 7 54 52
3 53 56 52
3 55 41 52
3 46 58 57
3 45 118 58
3 58 118 59
3 57 58 60
3 0 49 62
3 50 63 62
3 3 4 62
3 7 9 64
3 12 65 64
3 53 54 64
3 60 67 66
3 59 119 67
3 67 119 68
3 66 67 69
3 71 74 72
3 61 66 72
3 72 66 70
3 72 75 76
3 77 80 78
3 80 96 81
3 81 92 82
3 78 82 83
3 84 87 85
3 47 57 87
3 87 57 61
3 87 74 71
3 88 91 89
3 34 43 91
3 91 43 47
3 89 91 84
3 92 95 93
3 21 30 93
3 93 30 34
3 93 88 90
3 96 98 97
3 16 15 97
3 97 15 21
3 81 97 95
3 83 82 99
3 82 92 94
3 94 90 101
3 99 101 102
3 102 101 103
3 101 90 89
3 89 86 105
3 103 105 106
3 106 105 107
3 105 86 85
3 85 71 109
3 107 109 110
3 110 109 111
3 109 71 73
3 73 76 113
3 111 113 114
