ply
format ascii 1.0
comment Created by Blender 2.91.2 - www.blender.org
element vertex 4
property float x
property float y
property float z
property float nx
property float ny
property float nz
property float s
property float t
property uchar red
property uchar green
property uchar blue
property uchar alpha
element face 2
property list uchar uint vertex_indices
end_header
-0.500000 0.500000 1.000000 0.000000 0.000000 1.000000 0.875000 0.500000 189 202 255 255
0.500000 -0.500000 1.000000 0.000000 0.000000 1.000000 0.625000 0.750000 189 202 255 255
0.500000 0.500000 1.000000 0.000000 0.000000 1.000000 0.625000 0.500000 189 202 255 255
-0.500000 -0.500000 1.000000 0.000000 -0.000000 1.000000 0.875000 0.750000 189 202 255 255
3 0 1 2
3 0 3 1
