ply
format ascii 1.0
comment Created by Blender 2.91.2 - www.blender.org
element vertex 25
property float x
property float y
property float z
property float nx
property float ny
property float nz
property float s
property float t
element face 32
property list uchar uint vertex_indices
end_header
0.375000 0.375000 0.000000 -0.000000 0.000000 1.000000 0.750000 0.750000
0.500000 0.500000 0.000000 -0.000000 0.000000 1.000000 1.000000 1.000000
0.250000 0.500000 0.000000 -0.000000 0.000000 1.000000 0.750000 1.000000
-0.375000 0.375000 0.000000 0.000000 0.000000 1.000000 0.250000 0.750000
0.000000 0.375000 0.000000 0.000000 0.000000 1.000000 0.500000 0.750000
-0.250000 0.500000 0.000000 0.000000 0.000000 1.000000 0.250000 1.000000
-0.375000 -0.375000 0.000000 0.000000 0.000000 1.000000 0.250000 0.250000
0.000000 -0.375000 0.000000 0.000000 0.000000 1.000000 0.500000 0.250000
-0.375000 0.000000 0.000000 0.000000 0.000000 1.000000 0.250000 0.500000
0.375000 -0.375000 0.000000 0.000000 0.000000 1.000000 0.750000 0.250000
0.500000 -0.250000 0.000000 0.000000 0.000000 1.000000 1.000000 0.250000
0.375000 0.000000 0.000000 0.000000 0.000000 1.000000 0.750000 0.500000
0.000000 0.000000 0.000000 0.000000 0.000000 1.000000 0.500000 0.500000
0.500000 0.250000 0.000000 -0.000000 0.000000 1.000000 1.000000 0.750000
0.250000 -0.500000 0.000000 0.000000 0.000000 1.000000 0.750000 0.000000
0.500000 -0.500000 0.000000 0.000000 0.000000 1.000000 1.000000 0.000000
-0.250000 -0.500000 0.000000 -0.000000 0.000000 1.000000 0.250000 0.000000
-0.500000 -0.500000 0.000000 0.000000 0.000000 1.000000 0.000000 0.000000
-0.500000 0.000000 0.000000 0.000000 0.000000 1.000000 0.000000 0.500000
-0.500000 0.250000 0.000000 0.000000 0.000000 1.000000 0.000000 0.750000
-0.500000 -0.250000 0.000000 0.000000 0.000000 1.000000 0.000000 0.250000
-0.500000 0.500000 0.000000 0.000000 0.000000 1.000000 0.000000 1.000000
0.000000 -0.500000 0.000000 0.000000 0.000000 1.000000 0.500000 0.000000
0.000000 0.500000 0.000000 0.000000 0.000000 1.000000 0.500000 1.000000
0.500000 0.000000 0.000000 0.000000 0.000000 1.000000 1.000000 0.500000
3 0 1 2
3 3 4 5
3 6 7 8
3 9 10 11
3 8 12 4
3 13 0 11
3 14 15 9
3 16 7 6
3 17 16 6
3 18 8 19
3 20 6 8
3 19 3 21
3 22 14 7
3 12 11 4
3 7 11 12
3 4 0 2
3 21 3 5
3 1 0 13
3 9 15 10
3 6 20 17
3 5 4 23
3 2 23 4
3 7 16 22
3 7 14 9
3 11 10 24
3 13 11 24
3 8 18 20
3 19 8 3
3 11 7 9
3 4 3 8
3 8 7 12
3 11 0 4
